<!-- Generated by readme-aura https://github.com/collectioneur/readme-aura -->
<svg width="900" height="200" viewBox="0 0 900 200" xmlns="http://www.w3.org/2000/svg"><clipPath id="satori_cp-id"><path x="0" y="0" width="900" height="200" d="M16,0 h868 a16,16 0 0 1 16,16 v168 a16,16 0 0 1 -16,16 h-868 a16,16 0 0 1 -16,-16 v-168 a16,16 0 0 1 16,-16"/></clipPath><mask id="satori_om-id"><rect x="0" y="0" width="900" height="200" fill="#fff"/></mask><path x="0" y="0" width="900" height="200" fill="#07070c" d="M16,0 h868 a16,16 0 0 1 16,16 v168 a16,16 0 0 1 -16,16 h-868 a16,16 0 0 1 -16,-16 v-168 a16,16 0 0 1 16,-16"/><clipPath id="satori_cp-id-0" clip-path="url(#satori_cp-id)"><rect x="0" y="0" width="900" height="200"/></clipPath><mask id="satori_om-id-0"><rect x="0" y="0" width="900" height="200" fill="#fff" mask="url(#satori_om-id)"/></mask><svg x="0" y="0" width="900" height="200" preserveAspectRatio="none" clip-path="url(#satori_cp-id-0)" mask="url(#satori_om-id-0)"><defs><radialGradient id="svg1" cx="50%" cy="50%" r="50%"><stop offset="0%" stop-color="rgba(212,175,55,0.38)"></stop><stop offset="100%" stop-color="rgba(212,175,55,0)"></stop></radialGradient><radialGradient id="svg2" cx="50%" cy="50%" r="50%"><stop offset="0%" stop-color="rgba(184,134,11,0.3)"></stop><stop offset="100%" stop-color="rgba(184,134,11,0)"></stop></radialGradient><radialGradient id="svg3" cx="50%" cy="50%" r="50%"><stop offset="0%" stop-color="rgba(245,220,140,0.2)"></stop><stop offset="100%" stop-color="rgba(245,220,140,0)"></stop></radialGradient><radialGradient id="svg4" cx="50%" cy="50%" r="50%"><stop offset="0%" stop-color="rgba(212,175,55,0.16)"></stop><stop offset="100%" stop-color="rgba(212,175,55,0)"></stop></radialGradient></defs><ellipse id="sv1" cx="80" cy="170" rx="190" ry="130" fill="url(#svg1)"></ellipse><ellipse id="sv2" cx="830" cy="40" rx="175" ry="130" fill="url(#svg2)"></ellipse><ellipse id="sv3" cx="700" cy="175" rx="160" ry="120" fill="url(#svg3)"></ellipse><ellipse id="sv4" cx="200" cy="35" rx="160" ry="115" fill="url(#svg4)"></ellipse><style>

    @keyframes svc-orb-a { 0%, 100% { transform: translate(0,0); opacity: 0.45; } 50% { transform: translate(22px,-16px); opacity: 0.72; } }
    @keyframes svc-orb-b { 0%, 100% { transform: translate(0,0); opacity: 0.38; } 50% { transform: translate(-18px,12px); opacity: 0.6; } }
    @keyframes svc-chip { 0% { opacity: 0; transform: translateY(10px); } 100% { opacity: 1; transform: translateY(0); } }
    #sv1 { animation: svc-orb-a 11s ease-in-out infinite; }
    #sv2 { animation: svc-orb-b 13s ease-in-out infinite 1.5s; }
    #sv3 { animation: svc-orb-a 10s ease-in-out infinite 3s; }
    #sv4 { animation: svc-orb-b 12s ease-in-out infinite 0.8s; }
  
</style>
</svg><mask id="satori_om-id-0-0"><rect x="0" y="0" width="0" height="200" fill="#fff" mask="url(#satori_om-id)"/></mask><mask id="satori_om-id-0-0-0"><rect x="0" y="0" width="0" height="200" fill="#fff" mask="url(#satori_om-id)"/></mask><mask id="satori_om-id-0-0-0-0"><rect x="0" y="0" width="0" height="200" fill="#fff" mask="url(#satori_om-id)"/></mask><mask id="satori_om-id-0-0-0-1"><rect x="0" y="0" width="0" height="200" fill="#fff" mask="url(#satori_om-id)"/></mask><mask id="satori_om-id-0-0-1"><rect x="0" y="0" width="0" height="200" fill="#fff" mask="url(#satori_om-id)"/></mask><mask id="satori_om-id-0-0-1-0"><rect x="0" y="0" width="0" height="200" fill="#fff" mask="url(#satori_om-id)"/></mask><mask id="satori_om-id-0-0-1-1"><rect x="0" y="0" width="0" height="200" fill="#fff" mask="url(#satori_om-id)"/></mask><mask id="satori_om-id-0-0-2"><rect x="0" y="0" width="0" height="200" fill="#fff" mask="url(#satori_om-id)"/></mask><mask id="satori_om-id-0-0-2-0"><rect x="0" y="0" width="0" height="200" fill="#fff" mask="url(#satori_om-id)"/></mask><mask id="satori_om-id-0-0-2-1"><rect x="0" y="0" width="0" height="200" fill="#fff" mask="url(#satori_om-id)"/></mask><mask id="satori_om-id-0-0-3"><rect x="0" y="0" width="0" height="200" fill="#fff" mask="url(#satori_om-id)"/></mask><mask id="satori_om-id-0-0-3-0"><rect x="0" y="0" width="0" height="200" fill="#fff" mask="url(#satori_om-id)"/></mask><mask id="satori_om-id-0-0-3-1"><rect x="0" y="0" width="0" height="200" fill="#fff" mask="url(#satori_om-id)"/></mask><mask id="satori_om-id-0-1"><rect x="0" y="0" width="0" height="200" fill="#fff" mask="url(#satori_om-id)"/></mask><mask id="satori_om-id-0-2"><rect x="0" y="0" width="0" height="200" fill="#fff" mask="url(#satori_om-id)"/></mask><mask id="satori_om-id-0-3"><rect x="0" y="0" width="0" height="200" fill="#fff" mask="url(#satori_om-id)"/></mask><mask id="satori_om-id-0-4"><rect x="0" y="0" width="0" height="200" fill="#fff" mask="url(#satori_om-id)"/></mask><mask id="satori_om-id-1"><rect x="410" y="27" width="81" height="12" fill="#fff" mask="url(#satori_om-id)"/></mask><g mask="url(#satori_om-id)" clip-path="url(#satori_cp-id)"><path fill="rgba(212,175,55,0.5)" d="M413.2 37.1L413.2 37.1Q412.4 37.1 411.8 36.9Q411.3 36.6 410.9 36.2Q410.6 35.7 410.6 35.1L410.6 35.1L411.5 35.1Q411.6 35.5 411.8 35.8Q412.0 36.0 412.4 36.2Q412.8 36.3 413.2 36.3L413.2 36.3Q413.7 36.3 414.1 36.1Q414.5 36.0 414.7 35.7Q414.9 35.4 414.9 35.0L414.9 35.0Q414.9 34.7 414.7 34.4Q414.6 34.2 414.2 34.1Q413.9 33.9 413.5 33.8L413.5 33.8L412.6 33.6Q411.7 33.3 411.3 32.9Q410.8 32.4 410.8 31.7L410.8 31.7Q410.8 31.1 411.1 30.6Q411.4 30.1 412.0 29.9Q412.6 29.6 413.3 29.6L413.3 29.6Q414.0 29.6 414.5 29.9Q415.1 30.1 415.4 30.6Q415.7 31.0 415.8 31.6L415.8 31.6L414.8 31.6Q414.8 31.0 414.3 30.7Q413.9 30.4 413.2 30.4L413.2 30.4Q412.8 30.4 412.4 30.6Q412.1 30.8 411.9 31.0Q411.7 31.3 411.7 31.6L411.7 31.6Q411.7 32.0 411.9 32.2Q412.1 32.5 412.5 32.6Q412.8 32.7 413.1 32.8L413.1 32.8L413.8 33.0Q414.1 33.1 414.4 33.2Q414.8 33.4 415.1 33.6Q415.4 33.8 415.6 34.2Q415.8 34.5 415.8 35.0L415.8 35.0Q415.8 35.6 415.5 36.1Q415.2 36.6 414.6 36.8Q414.0 37.1 413.2 37.1ZM425.8 37L421.3 37L421.3 29.7L425.7 29.7L425.7 30.5L422.2 30.5L422.2 32.9L425.5 32.9L425.5 33.7L422.2 33.7L422.2 36.2L425.8 36.2L425.8 37ZM432.2 37L431.3 37L431.3 29.7L433.8 29.7Q434.6 29.7 435.2 30.0Q435.7 30.3 436.0 30.8Q436.3 31.3 436.3 32.0Q436.3 32.6 436.0 33.1Q435.7 33.6 435.2 33.9L435.2 33.9Q435.1 34.0 434.9 34.0L434.9 34.0L436.6 37L435.5 37L434.0 34.2Q433.9 34.2 433.8 34.2L433.8 34.2L432.2 34.2L432.2 37ZM432.2 30.5L432.2 33.4L433.8 33.4Q434.3 33.4 434.7 33.2Q435.0 33.0 435.2 32.7Q435.4 32.4 435.4 32.0L435.4 32.0Q435.4 31.5 435.2 31.2Q435.0 30.9 434.7 30.7Q434.3 30.5 433.7 30.5L433.7 30.5L432.2 30.5ZM444.9 37L443.8 37L441.1 29.7L442.1 29.7L443.6 34.0Q443.8 34.4 444.0 35.0L444.0 35.0Q444.1 35.5 444.3 36.2L444.3 36.2Q444.5 35.5 444.7 35.0L444.7 35.0Q444.9 34.4 445.0 34.0L445.0 34.0L446.5 29.7L447.5 29.7L444.9 37ZM452.6 29.7L453.6 29.7L453.6 37L452.6 37L452.6 29.7ZM462.3 37.1L462.3 37.1Q461.3 37.1 460.6 36.6Q459.9 36.2 459.5 35.4Q459.0 34.5 459.0 33.4L459.0 33.4Q459.0 32.2 459.5 31.4Q459.9 30.5 460.6 30.1Q461.3 29.6 462.3 29.6L462.3 29.6Q462.8 29.6 463.3 29.8Q463.8 29.9 464.2 30.3Q464.6 30.6 464.8 31.0Q465.1 31.5 465.2 32.0L465.2 32.0L464.3 32.0Q464.2 31.6 464.0 31.4Q463.8 31.1 463.6 30.9Q463.3 30.7 463.0 30.6Q462.6 30.5 462.3 30.5L462.3 30.5Q461.6 30.5 461.1 30.8Q460.6 31.2 460.3 31.8Q459.9 32.4 459.9 33.4L459.9 33.4Q459.9 34.3 460.3 34.9Q460.6 35.6 461.1 35.9Q461.6 36.2 462.3 36.2L462.3 36.2Q462.6 36.2 463.0 36.1Q463.3 36.0 463.6 35.8Q463.8 35.7 464.0 35.4Q464.2 35.1 464.3 34.7L464.3 34.7L465.2 34.7Q465.1 35.3 464.9 35.7Q464.6 36.1 464.2 36.5Q463.8 36.8 463.3 36.9Q462.8 37.1 462.3 37.1ZM475.1 37L470.6 37L470.6 29.7L475.1 29.7L475.1 30.5L471.6 30.5L471.6 32.9L474.8 32.9L474.8 33.7L471.6 33.7L471.6 36.2L475.1 36.2L475.1 37ZM483.0 37.1L483.0 37.1Q482.2 37.1 481.6 36.9Q481.0 36.6 480.7 36.2Q480.4 35.7 480.3 35.1L480.3 35.1L481.3 35.1Q481.3 35.5 481.6 35.8Q481.8 36.0 482.2 36.2Q482.5 36.3 483.0 36.3L483.0 36.3Q483.5 36.3 483.9 36.1Q484.3 36.0 484.5 35.7Q484.7 35.4 484.7 35.0L484.7 35.0Q484.7 34.7 484.5 34.4Q484.3 34.2 484.0 34.1Q483.7 33.9 483.3 33.8L483.3 33.8L482.4 33.6Q481.5 33.3 481.0 32.9Q480.5 32.4 480.5 31.7L480.5 31.7Q480.5 31.1 480.9 30.6Q481.2 30.1 481.8 29.9Q482.3 29.6 483.0 29.6L483.0 29.6Q483.8 29.6 484.3 29.9Q484.9 30.1 485.2 30.6Q485.5 31.0 485.5 31.6L485.5 31.6L484.6 31.6Q484.5 31.0 484.1 30.7Q483.7 30.4 483.0 30.4L483.0 30.4Q482.5 30.4 482.2 30.6Q481.8 30.8 481.6 31.0Q481.4 31.3 481.4 31.6L481.4 31.6Q481.4 32.0 481.7 32.2Q481.9 32.5 482.2 32.6Q482.6 32.7 482.8 32.8L482.8 32.8L483.6 33.0Q483.8 33.1 484.2 33.2Q484.6 33.4 484.9 33.6Q485.2 33.8 485.4 34.2Q485.6 34.5 485.6 35.0L485.6 35.0Q485.6 35.6 485.3 36.1Q485.0 36.6 484.4 36.8Q483.8 37.1 483.0 37.1Z "/></g><mask id="satori_om-id-2"><rect x="51" y="63" width="798" height="110" fill="#fff" mask="url(#satori_om-id)"/></mask><defs><clipPath id="satori_bc-id-2-0" clip-path="url(#satori_cp-id)"><path x="51" y="63" width="180" height="110" d="M65,63 h152 a14,14 0 0 1 14,14 v82 a14,14 0 0 1 -14,14 h-152 a14,14 0 0 1 -14,-14 v-82 a14,14 0 0 1 14,-14"/></clipPath></defs><mask id="satori_om-id-2-0"><rect x="52" y="64" width="178" height="108" fill="#fff" mask="url(#satori_om-id)"/><path width="180" height="110" fill="none" stroke="#000" stroke-width="2" d="M55.101,67.101 A14,14 0 0 1 65,63 h152 a14,14 0 0 1 14,14 v82 a14,14 0 0 1 -14,14 h-152 a14,14 0 0 1 -14,-14 v-82 A14,14 0 0 1 55.101,67.101"/></mask><path x="51" y="63" width="180" height="110" fill="rgba(255,255,255,0.025)" d="M65,63 h152 a14,14 0 0 1 14,14 v82 a14,14 0 0 1 -14,14 h-152 a14,14 0 0 1 -14,-14 v-82 a14,14 0 0 1 14,-14" clip-path="url(#satori_cp-id)" mask="url(#satori_om-id)"/><path width="180" height="110" clip-path="url(#satori_bc-id-2-0)" fill="none" stroke="rgba(212,175,55,0.12)" stroke-width="2" d="M55.101,67.101 A14,14 0 0 1 65,63 h152 a14,14 0 0 1 14,14 v82 a14,14 0 0 1 -14,14 h-152 a14,14 0 0 1 -14,-14 v-82 A14,14 0 0 1 55.101,67.101"/><clipPath id="satori_cp-id-2-0-0" clip-path="url(#satori_cp-id)"><rect x="127" y="82" width="28" height="28"/></clipPath><mask id="satori_om-id-2-0-0"><rect x="127" y="82" width="28" height="28" fill="#fff" mask="url(#satori_om-id)"/></mask><svg x="127" y="82" width="28" height="28" preserveAspectRatio="none" clip-path="url(#satori_cp-id-2-0-0)" mask="url(#satori_om-id-2-0-0)"><circle cx="12" cy="12" r="10" stroke="rgba(212,175,55,0.85)" stroke-width="1.5"></circle><circle cx="12" cy="12" r="6" stroke="rgba(212,175,55,0.85)" stroke-width="1.5"></circle><circle cx="12" cy="12" r="2" fill="rgba(212,175,55,0.85)"></circle><line x1="12" y1="2" x2="12" y2="5" stroke="rgba(212,175,55,0.85)" stroke-width="1.5" stroke-linecap="round"></line><line x1="12" y1="19" x2="12" y2="22" stroke="rgba(212,175,55,0.85)" stroke-width="1.5" stroke-linecap="round"></line><line x1="2" y1="12" x2="5" y2="12" stroke="rgba(212,175,55,0.85)" stroke-width="1.5" stroke-linecap="round"></line><line x1="19" y1="12" x2="22" y2="12" stroke="rgba(212,175,55,0.85)" stroke-width="1.5" stroke-linecap="round"></line></svg><mask id="satori_om-id-2-0-0-0"><rect x="127" y="82" width="0" height="28" fill="#fff" mask="url(#satori_om-id)"/></mask><mask id="satori_om-id-2-0-0-1"><rect x="127" y="82" width="0" height="28" fill="#fff" mask="url(#satori_om-id)"/></mask><mask id="satori_om-id-2-0-0-2"><rect x="127" y="82" width="0" height="28" fill="#fff" mask="url(#satori_om-id)"/></mask><mask id="satori_om-id-2-0-0-3"><rect x="127" y="82" width="0" height="28" fill="#fff" mask="url(#satori_om-id)"/></mask><mask id="satori_om-id-2-0-0-4"><rect x="127" y="82" width="0" height="28" fill="#fff" mask="url(#satori_om-id)"/></mask><mask id="satori_om-id-2-0-0-5"><rect x="127" y="82" width="0" height="28" fill="#fff" mask="url(#satori_om-id)"/></mask><mask id="satori_om-id-2-0-0-6"><rect x="127" y="82" width="0" height="28" fill="#fff" mask="url(#satori_om-id)"/></mask><mask id="satori_om-id-2-0-1"><rect x="122" y="118" width="38" height="16" fill="#fff" mask="url(#satori_om-id)"/></mask><g mask="url(#satori_om-id)" clip-path="url(#satori_cp-id)"><path fill="rgba(212,175,55,0.85)" d="M127.0 131.1L127.0 131.1Q125.7 131.1 124.7 130.6Q123.7 130.0 123.2 128.9Q122.6 127.8 122.6 126.3L122.6 126.3Q122.6 124.7 123.2 123.6Q123.8 122.6 124.7 122.0Q125.7 121.4 127.0 121.4L127.0 121.4Q127.8 121.4 128.5 121.6Q129.2 121.9 129.7 122.3Q130.3 122.7 130.6 123.4Q131.0 124.0 131.1 124.8L131.1 124.8L129.1 124.8Q129.0 124.4 128.9 124.1Q128.7 123.8 128.4 123.6Q128.1 123.4 127.8 123.2Q127.4 123.1 127.0 123.1L127.0 123.1Q126.3 123.1 125.7 123.5Q125.2 123.9 124.9 124.6Q124.6 125.3 124.6 126.3L124.6 126.3Q124.6 127.3 124.9 128.0Q125.2 128.7 125.7 129.1Q126.3 129.4 127.0 129.4L127.0 129.4Q127.4 129.4 127.8 129.3Q128.1 129.2 128.4 129.0Q128.7 128.8 128.9 128.5Q129.0 128.1 129.1 127.8L129.1 127.8L131.1 127.8Q131.0 128.4 130.7 129.0Q130.4 129.6 129.8 130.1Q129.3 130.6 128.6 130.9Q127.9 131.1 127.0 131.1ZM134.3 126.9L134.3 126.9L134.3 131L132.4 131L132.4 121.5L134.3 121.5L134.3 125.3Q134.6 124.7 135.0 124.3L135.0 124.3Q135.6 123.8 136.5 123.8L136.5 123.8Q137.2 123.8 137.7 124.1Q138.3 124.5 138.6 125.1Q138.9 125.7 138.9 126.5L138.9 126.5L138.9 131L137.0 131L137.0 126.8Q137.0 126.2 136.7 125.8Q136.3 125.4 135.7 125.4L135.7 125.4Q135.3 125.4 135.0 125.6Q134.7 125.8 134.5 126.1Q134.3 126.4 134.3 126.9ZM143.7 131.1L143.7 131.1Q142.6 131.1 141.9 130.7Q141.1 130.3 140.6 129.4Q140.2 128.6 140.2 127.5L140.2 127.5Q140.2 126.4 140.6 125.6Q141.1 124.7 141.8 124.3Q142.6 123.8 143.6 123.8L143.6 123.8Q144.3 123.8 144.9 124.0Q145.5 124.3 146.0 124.7Q146.5 125.2 146.7 125.8Q147.0 126.5 147.0 127.4L147.0 127.4L147.0 127.9L142.1 127.9Q142.1 128.5 142.3 128.9L142.3 128.9Q142.5 129.3 142.9 129.5Q143.3 129.7 143.8 129.7L143.8 129.7Q144.1 129.7 144.4 129.6Q144.6 129.5 144.8 129.3Q145.0 129.1 145.1 128.9L145.1 128.9L146.9 129.2Q146.7 129.8 146.3 130.2Q145.8 130.7 145.2 130.9Q144.6 131.1 143.7 131.1ZM142.1 126.8L142.1 126.8L145.1 126.8Q145.1 126.4 145.0 126.1L145.0 126.1Q144.8 125.7 144.5 125.5Q144.1 125.2 143.7 125.2L143.7 125.2Q143.2 125.2 142.8 125.5Q142.5 125.7 142.3 126.1L142.3 126.1Q142.2 126.4 142.1 126.8ZM150.2 131.1L150.2 131.1Q149.6 131.1 149.0 130.9Q148.5 130.7 148.2 130.2Q147.9 129.7 147.9 129.0L147.9 129.0Q147.9 128.4 148.1 128.0Q148.3 127.6 148.7 127.4Q149.1 127.1 149.6 127.0Q150.0 126.9 150.6 126.8L150.6 126.8Q151.2 126.8 151.6 126.7Q151.9 126.7 152.1 126.5Q152.3 126.4 152.3 126.2L152.3 126.2L152.3 126.2Q152.3 125.9 152.2 125.7Q152.0 125.4 151.8 125.3Q151.5 125.2 151.2 125.2L151.2 125.2Q150.8 125.2 150.5 125.3Q150.3 125.4 150.1 125.6Q149.9 125.8 149.8 126.0L149.8 126.0L148.1 125.8Q148.3 125.1 148.7 124.7Q149.1 124.3 149.8 124.0Q150.4 123.8 151.2 123.8L151.2 123.8Q151.8 123.8 152.3 124.0Q152.8 124.1 153.3 124.4Q153.7 124.7 153.9 125.1Q154.2 125.6 154.2 126.2L154.2 126.2L154.2 131L152.4 131L152.4 130.0L152.3 130.0Q152.2 130.3 151.9 130.6Q151.6 130.8 151.2 131.0Q150.8 131.1 150.2 131.1ZM150.8 129.8L150.8 129.8Q151.2 129.8 151.6 129.6Q151.9 129.4 152.1 129.1Q152.3 128.8 152.3 128.5L152.3 128.5L152.3 127.7Q152.2 127.8 152.0 127.8Q151.9 127.9 151.7 127.9Q151.5 127.9 151.3 128.0Q151.0 128.0 150.9 128.0L150.9 128.0Q150.5 128.1 150.3 128.2Q150.0 128.3 149.9 128.5Q149.7 128.7 149.7 129.0L149.7 129.0Q149.7 129.2 149.9 129.4Q150.0 129.6 150.2 129.7Q150.5 129.8 150.8 129.8ZM158.0 123.9L159.3 123.9L159.3 125.4L158.0 125.4L158.0 128.9Q158.0 129.3 158.2 129.4Q158.3 129.6 158.7 129.6L158.7 129.6Q158.8 129.6 159.0 129.6Q159.2 129.5 159.3 129.5L159.3 129.5L159.5 130.9Q159.2 131.0 158.9 131.1Q158.6 131.1 158.3 131.1L158.3 131.1Q157.2 131.1 156.7 130.6Q156.1 130.1 156.1 129.1L156.1 129.1L156.1 125.4L155.1 125.4L155.1 123.9L156.1 123.9L156.1 122.2L158.0 122.2L158.0 123.9Z "/></g><mask id="satori_om-id-2-0-2"><rect x="80" y="142" width="122" height="12" fill="#fff" mask="url(#satori_om-id)"/></mask><g mask="url(#satori_om-id)" clip-path="url(#satori_cp-id)"><path fill="rgba(255,255,255,0.35)" d="M83.9 152.1L83.9 152.1Q82.9 152.1 82.1 151.6Q81.4 151.2 81.0 150.4Q80.6 149.5 80.6 148.4L80.6 148.4Q80.6 147.2 81.0 146.4Q81.4 145.5 82.1 145.1Q82.9 144.6 83.8 144.6L83.8 144.6Q84.4 144.6 84.9 144.8Q85.4 145.0 85.8 145.3Q86.2 145.6 86.4 146.0Q86.7 146.5 86.8 147.0L86.8 147.0L85.8 147.0Q85.7 146.7 85.5 146.4Q85.3 146.1 85.1 145.9Q84.8 145.7 84.5 145.6Q84.2 145.5 83.8 145.5L83.8 145.5Q83.2 145.5 82.6 145.8Q82.1 146.1 81.8 146.8Q81.5 147.4 81.5 148.4L81.5 148.4Q81.5 149.3 81.8 149.9Q82.1 150.6 82.7 150.9Q83.2 151.2 83.9 151.2L83.9 151.2Q84.5 151.2 84.9 151.0Q85.4 150.7 85.7 150.2L85.7 150.2Q85.9 149.8 85.9 149.2L85.9 149.2L84.0 149.2L84.0 148.3L86.8 148.3L86.8 149.1Q86.8 150.0 86.5 150.7Q86.1 151.4 85.4 151.7Q84.7 152.1 83.9 152.1ZM90.3 152.1L90.3 152.1Q89.7 152.1 89.3 151.9Q88.9 151.7 88.6 151.4Q88.4 151.0 88.4 150.4L88.4 150.4Q88.4 150.0 88.6 149.7Q88.8 149.4 89.1 149.2Q89.4 149.1 89.8 149.0Q90.1 148.9 90.5 148.8L90.5 148.8Q91.0 148.8 91.3 148.7Q91.6 148.7 91.8 148.6Q91.9 148.5 91.9 148.3L91.9 148.3L91.9 148.3Q91.9 148.0 91.8 147.7Q91.7 147.5 91.4 147.4Q91.2 147.2 90.8 147.2L90.8 147.2Q90.4 147.2 90.1 147.4Q89.8 147.5 89.7 147.7Q89.5 147.9 89.4 148.0L89.4 148.0L88.6 147.8Q88.8 147.3 89.1 147.0Q89.5 146.7 89.9 146.6Q90.3 146.5 90.8 146.5L90.8 146.5Q91.0 146.5 91.4 146.5Q91.7 146.6 92.1 146.8Q92.4 147.0 92.6 147.4Q92.8 147.8 92.8 148.4L92.8 148.4L92.8 152L91.9 152L91.9 151.3L91.9 151.3Q91.8 151.4 91.6 151.7Q91.4 151.9 91.1 152.0Q90.7 152.1 90.3 152.1ZM90.4 151.4L90.4 151.4Q90.9 151.4 91.2 151.2Q91.6 151.0 91.8 150.7Q91.9 150.4 91.9 150.0L91.9 150.0L91.9 149.3Q91.9 149.3 91.7 149.4Q91.5 149.4 91.3 149.5Q91.0 149.5 90.8 149.5Q90.6 149.6 90.5 149.6L90.5 149.6Q90.2 149.6 89.9 149.7Q89.6 149.8 89.5 150.0Q89.3 150.2 89.3 150.5L89.3 150.5Q89.3 150.8 89.4 151.0Q89.6 151.2 89.8 151.3Q90.1 151.4 90.4 151.4ZM95.7 152L94.8 152L94.8 146.5L95.7 146.5L95.7 147.5Q95.8 147.2 96.0 147.0L96.0 147.0Q96.2 146.7 96.6 146.6Q96.9 146.4 97.2 146.4L97.2 146.4Q97.8 146.4 98.2 146.8L98.2 146.8Q98.5 147.1 98.6 147.6L98.6 147.6Q98.7 147.3 98.9 147.1L98.9 147.1Q99.2 146.8 99.5 146.6Q99.9 146.4 100.3 146.4L100.3 146.4Q100.8 146.4 101.2 146.6Q101.6 146.9 101.8 147.3Q102.1 147.7 102.1 148.3L102.1 148.3L102.1 152L101.2 152L101.2 148.3Q101.2 147.8 100.9 147.5Q100.5 147.2 100.1 147.2L100.1 147.2Q99.7 147.2 99.4 147.4Q99.2 147.6 99.0 147.8Q98.9 148.1 98.9 148.4L98.9 148.4L98.9 152L98.0 152L98.0 148.3Q98.0 147.8 97.7 147.5Q97.4 147.2 96.9 147.2L96.9 147.2Q96.6 147.2 96.3 147.4Q96.1 147.5 95.9 147.8Q95.7 148.1 95.7 148.6L95.7 148.6L95.7 152ZM106.4 152.1L106.4 152.1Q105.6 152.1 105.0 151.8Q104.5 151.4 104.2 150.8Q103.8 150.2 103.8 149.3Q103.8 148.5 104.1 147.8Q104.4 147.2 105.0 146.8Q105.6 146.5 106.3 146.5L106.3 146.5Q106.7 146.5 107.2 146.6Q107.6 146.8 107.9 147.1Q108.3 147.4 108.5 147.9Q108.7 148.4 108.7 149.2L108.7 149.2L108.7 149.6L104.7 149.6Q104.8 150.1 104.9 150.5L104.9 150.5Q105.2 150.9 105.5 151.1Q105.9 151.3 106.4 151.3L106.4 151.3Q106.7 151.3 107.0 151.2Q107.3 151.2 107.4 151.0Q107.6 150.8 107.7 150.5L107.7 150.5L108.6 150.7Q108.5 151.1 108.2 151.5Q107.9 151.8 107.4 151.9Q107.0 152.1 106.4 152.1ZM104.7 148.8L104.7 148.8L107.8 148.8Q107.8 148.5 107.6 148.1L107.6 148.1Q107.5 147.7 107.1 147.5Q106.8 147.3 106.3 147.3Q105.8 147.3 105.5 147.5Q105.1 147.7 104.9 148.1L104.9 148.1Q104.8 148.5 104.7 148.8Z M116.0 152.1L116.0 152.1Q115.2 152.1 114.7 151.8Q114.1 151.4 113.8 150.8Q113.5 150.1 113.5 149.3L113.5 149.3Q113.5 148.5 113.8 147.8Q114.1 147.2 114.7 146.8Q115.2 146.5 116.0 146.5L116.0 146.5Q116.4 146.5 116.7 146.6Q117.1 146.7 117.4 146.9Q117.7 147.1 117.9 147.3Q118.1 147.6 118.2 148.0L118.2 148.0L117.3 148.2Q117.3 148.0 117.2 147.8Q117.0 147.7 116.9 147.5Q116.7 147.4 116.5 147.3Q116.2 147.3 116.0 147.3L116.0 147.3Q115.4 147.3 115.1 147.5Q114.7 147.8 114.6 148.3Q114.4 148.8 114.4 149.3L114.4 149.3Q114.4 149.8 114.6 150.3Q114.7 150.8 115.1 151.0Q115.4 151.3 116.0 151.3L116.0 151.3Q116.2 151.3 116.5 151.3Q116.7 151.2 116.9 151.1Q117.1 150.9 117.2 150.7Q117.3 150.5 117.4 150.3L117.4 150.3L118.2 150.6Q118.1 150.9 117.9 151.2Q117.7 151.5 117.4 151.7Q117.1 151.9 116.7 152.0Q116.4 152.1 116.0 152.1ZM120.8 148.7L120.8 148.7L120.8 152L120.0 152L120.0 144.7L120.8 144.7L120.8 147.5Q121.1 147.0 121.4 146.8L121.4 146.8Q121.9 146.5 122.5 146.5L122.5 146.5Q123.0 146.5 123.5 146.7Q123.9 146.9 124.1 147.4Q124.3 147.8 124.3 148.5L124.3 148.5L124.3 152L123.4 152L123.4 148.6Q123.4 148.0 123.1 147.6Q122.8 147.3 122.2 147.3L122.2 147.3Q121.8 147.3 121.5 147.4Q121.2 147.6 121.0 147.9Q120.8 148.3 120.8 148.7ZM128.7 152.1L128.7 152.1Q127.9 152.1 127.3 151.8Q126.7 151.4 126.4 150.8Q126.1 150.2 126.1 149.3Q126.1 148.5 126.4 147.8Q126.7 147.2 127.3 146.8Q127.8 146.5 128.6 146.5L128.6 146.5Q129.0 146.5 129.4 146.6Q129.8 146.8 130.2 147.1Q130.5 147.4 130.7 147.9Q130.9 148.4 130.9 149.2L130.9 149.2L130.9 149.6L127.0 149.6Q127.0 150.1 127.2 150.5L127.2 150.5Q127.4 150.9 127.8 151.1Q128.2 151.3 128.7 151.3L128.7 151.3Q129.0 151.3 129.3 151.2Q129.5 151.2 129.7 151.0Q129.9 150.8 130.0 150.5L130.0 150.5L130.9 150.7Q130.7 151.1 130.4 151.5Q130.1 151.8 129.7 151.9Q129.2 152.1 128.7 152.1ZM127.0 148.8L127.0 148.8L130.1 148.8Q130.0 148.5 129.9 148.1L129.9 148.1Q129.7 147.7 129.4 147.5Q129.1 147.3 128.6 147.3Q128.1 147.3 127.7 147.5Q127.4 147.7 127.2 148.1L127.2 148.1Q127.0 148.5 127.0 148.8ZM134.2 152.1L134.2 152.1Q133.7 152.1 133.3 151.9Q132.9 151.7 132.6 151.4Q132.4 151.0 132.4 150.4L132.4 150.4Q132.4 150.0 132.6 149.7Q132.7 149.4 133.1 149.2Q133.4 149.1 133.7 149.0Q134.1 148.9 134.5 148.8L134.5 148.8Q135.0 148.8 135.3 148.7Q135.6 148.7 135.8 148.6Q135.9 148.5 135.9 148.3L135.9 148.3L135.9 148.3Q135.9 148.0 135.8 147.7Q135.6 147.5 135.4 147.4Q135.1 147.2 134.8 147.2L134.8 147.2Q134.4 147.2 134.1 147.4Q133.8 147.5 133.6 147.7Q133.5 147.9 133.4 148.0L133.4 148.0L132.5 147.8Q132.7 147.3 133.1 147.0Q133.5 146.7 133.9 146.6Q134.3 146.5 134.7 146.5L134.7 146.5Q135.0 146.5 135.4 146.5Q135.7 146.6 136.0 146.8Q136.4 147.0 136.6 147.4Q136.8 147.8 136.8 148.4L136.8 148.4L136.8 152L135.9 152L135.9 151.3L135.9 151.3Q135.8 151.4 135.6 151.7Q135.4 151.9 135.0 152.0Q134.7 152.1 134.2 152.1ZM134.4 151.4L134.4 151.4Q134.9 151.4 135.2 151.2Q135.5 151.0 135.7 150.7Q135.9 150.4 135.9 150.0L135.9 150.0L135.9 149.3Q135.8 149.3 135.7 149.4Q135.5 149.4 135.3 149.5Q135.0 149.5 134.8 149.5Q134.6 149.6 134.5 149.6L134.5 149.6Q134.1 149.6 133.9 149.7Q133.6 149.8 133.4 150.0Q133.3 150.2 133.3 150.5L133.3 150.5Q133.3 150.8 133.4 151.0Q133.6 151.2 133.8 151.3Q134.1 151.4 134.4 151.4ZM139.8 146.5L141.0 146.5L141.0 147.3L139.8 147.3L139.8 150.6Q139.8 151.0 140.0 151.1Q140.1 151.3 140.5 151.3L140.5 151.3Q140.6 151.3 140.7 151.3Q140.8 151.2 140.9 151.2L140.9 151.2L141.1 152.0Q141.0 152.0 140.8 152.0Q140.6 152.1 140.5 152.1L140.5 152.1Q139.8 152.1 139.4 151.7Q139.0 151.3 139.0 150.7L139.0 150.7L139.0 147.3L138.1 147.3L138.1 146.5L139.0 146.5L139.0 145.2L139.8 145.2L139.8 146.5ZM144.4 152.1L144.4 152.1Q143.9 152.1 143.4 152.0Q143.0 151.8 142.7 151.5Q142.4 151.1 142.3 150.7L142.3 150.7L143.2 150.5Q143.3 150.9 143.6 151.1Q144.0 151.3 144.4 151.3L144.4 151.3Q145.0 151.3 145.3 151.1Q145.7 150.9 145.7 150.5L145.7 150.5Q145.7 150.2 145.5 150.0Q145.3 149.9 144.9 149.8L144.9 149.8L144.0 149.6Q143.2 149.4 142.9 149.0Q142.5 148.6 142.5 148.1L142.5 148.1Q142.5 147.6 142.8 147.2Q143.0 146.9 143.5 146.7Q144.0 146.5 144.5 146.5L144.5 146.5Q145.1 146.5 145.5 146.6Q145.9 146.8 146.1 147.1Q146.4 147.4 146.5 147.8L146.5 147.8L145.7 148.0Q145.6 147.7 145.3 147.5Q145.1 147.2 144.5 147.2L144.5 147.2Q144.1 147.2 143.7 147.4Q143.4 147.7 143.4 148.0L143.4 148.0Q143.4 148.3 143.6 148.5Q143.8 148.7 144.3 148.8L144.3 148.8L145.1 149.0Q145.9 149.2 146.2 149.5Q146.6 149.9 146.6 150.5L146.6 150.5Q146.6 150.9 146.3 151.3Q146.1 151.7 145.6 151.9Q145.1 152.1 144.4 152.1Z M153.7 152.1L153.7 152.1Q153.0 152.1 152.5 151.8Q152.0 151.6 151.7 151.1Q151.4 150.7 151.4 150.1L151.4 150.1Q151.4 149.6 151.6 149.3Q151.8 148.9 152.2 148.6L152.2 148.6Q152.5 148.4 152.9 148.1L152.9 148.1Q152.8 147.9 152.7 147.8L152.7 147.8Q152.4 147.5 152.2 147.1Q152.0 146.7 152.0 146.3L152.0 146.3Q152.0 145.8 152.2 145.4Q152.5 145.1 152.9 144.9Q153.3 144.7 153.8 144.7L153.8 144.7Q154.3 144.7 154.7 144.9Q155.1 145.1 155.3 145.4Q155.6 145.8 155.6 146.2L155.6 146.2Q155.6 146.6 155.4 146.8Q155.3 147.1 155.1 147.4Q154.9 147.6 154.6 147.8L154.6 147.8L154.1 148.2L155.6 150.1Q155.7 150.0 155.7 149.8L155.7 149.8Q155.9 149.4 155.9 148.8L155.9 148.8L156.8 148.8Q156.8 149.5 156.6 150.0Q156.4 150.4 156.2 150.7L156.2 150.7Q156.2 150.7 156.2 150.8L156.2 150.8L157.2 152L156.1 152L155.6 151.4Q155.3 151.7 154.8 151.9L154.8 151.9Q154.3 152.1 153.7 152.1ZM155.1 150.8L153.4 148.7L153.1 148.9Q152.7 149.2 152.5 149.5Q152.3 149.8 152.3 150.1L152.3 150.1Q152.3 150.5 152.5 150.8Q152.7 151.0 153.0 151.2Q153.3 151.3 153.7 151.3L153.7 151.3Q154.1 151.3 154.5 151.2L154.5 151.2Q154.8 151.0 155.1 150.8L155.1 150.8ZM153.5 147.6L153.5 147.6L154.0 147.2Q154.1 147.1 154.3 147.0Q154.5 146.8 154.6 146.7Q154.7 146.5 154.7 146.2L154.7 146.2Q154.7 145.9 154.4 145.6Q154.2 145.4 153.8 145.4L153.8 145.4Q153.5 145.4 153.3 145.5Q153.1 145.6 153.0 145.8Q152.9 146.0 152.9 146.3L152.9 146.3Q152.9 146.6 153.0 146.8Q153.1 147.1 153.4 147.3L153.4 147.3Q153.4 147.4 153.5 147.6Z M164.2 152.1L164.2 152.1Q163.4 152.1 162.9 151.8Q162.3 151.4 162.0 150.8Q161.7 150.2 161.7 149.3Q161.7 148.5 162.0 147.8Q162.3 147.2 162.8 146.8Q163.4 146.5 164.1 146.5L164.1 146.5Q164.6 146.5 165.0 146.6Q165.4 146.8 165.8 147.1Q166.1 147.4 166.3 147.9Q166.5 148.4 166.5 149.2L166.5 149.2L166.5 149.6L162.6 149.6Q162.6 150.1 162.8 150.5L162.8 150.5Q163.0 150.9 163.4 151.1Q163.7 151.3 164.2 151.3L164.2 151.3Q164.6 151.3 164.8 151.2Q165.1 151.2 165.3 151.0Q165.5 150.8 165.6 150.5L165.6 150.5L166.4 150.7Q166.3 151.1 166.0 151.5Q165.7 151.8 165.2 151.9Q164.8 152.1 164.2 152.1ZM162.6 148.8L162.6 148.8L165.6 148.8Q165.6 148.5 165.5 148.1L165.5 148.1Q165.3 147.7 165.0 147.5Q164.6 147.3 164.1 147.3Q163.6 147.3 163.3 147.5Q162.9 147.7 162.7 148.1L162.7 148.1Q162.6 148.5 162.6 148.8ZM168.8 152L167.8 152L169.7 149.2L167.9 146.5L169.0 146.5L169.6 147.6Q169.9 148.0 170.1 148.4L170.1 148.4Q170.2 148.5 170.3 148.7L170.3 148.7Q170.3 148.5 170.4 148.4L170.4 148.4Q170.6 148.0 170.8 147.6L170.8 147.6L171.5 146.5L172.5 146.5L170.7 149.2L172.6 152L171.6 152L170.8 150.8Q170.6 150.4 170.4 150.0L170.4 150.0Q170.3 149.9 170.2 149.8L170.2 149.8Q170.1 149.9 170.1 150.0L170.1 150.0Q169.9 150.4 169.6 150.8L169.6 150.8L168.8 152ZM175.1 154.0L174.2 154.0L174.2 146.5L175.1 146.5L175.1 147.4L175.2 147.4Q175.3 147.3 175.4 147.0Q175.6 146.8 175.9 146.6Q176.2 146.5 176.8 146.5L176.8 146.5Q177.4 146.5 178.0 146.8Q178.5 147.2 178.8 147.8Q179.1 148.4 179.1 149.3L179.1 149.3Q179.1 150.2 178.8 150.8Q178.5 151.4 178.0 151.8Q177.4 152.1 176.8 152.1L176.8 152.1Q176.2 152.1 175.9 151.9Q175.6 151.8 175.4 151.5Q175.3 151.3 175.2 151.2L175.2 151.2L175.1 151.2L175.1 154.0ZM176.6 151.3L176.6 151.3Q177.1 151.3 177.5 151.1Q177.8 150.8 178.0 150.3Q178.2 149.8 178.2 149.3L178.2 149.3Q178.2 148.7 178.0 148.3Q177.8 147.8 177.5 147.5Q177.1 147.3 176.6 147.3L176.6 147.3Q176.1 147.3 175.8 147.5Q175.4 147.8 175.3 148.2Q175.1 148.7 175.1 149.3L175.1 149.3Q175.1 149.9 175.3 150.3Q175.4 150.8 175.8 151.1Q176.1 151.3 176.6 151.3ZM180.8 144.7L181.7 144.7L181.7 152L180.8 152L180.8 144.7ZM186.0 152.1L186.0 152.1Q185.3 152.1 184.7 151.8Q184.1 151.4 183.8 150.8Q183.5 150.1 183.5 149.3L183.5 149.3Q183.5 148.5 183.8 147.8Q184.1 147.2 184.7 146.8Q185.3 146.5 186.0 146.5L186.0 146.5Q186.7 146.5 187.3 146.8Q187.9 147.2 188.2 147.8Q188.5 148.5 188.5 149.3L188.5 149.3Q188.5 150.1 188.2 150.8Q187.9 151.4 187.3 151.8Q186.7 152.1 186.0 152.1ZM186.0 151.3L186.0 151.3Q186.5 151.3 186.9 151.0Q187.3 150.8 187.4 150.3Q187.6 149.8 187.6 149.3L187.6 149.3Q187.6 148.8 187.4 148.3Q187.3 147.8 186.9 147.5Q186.5 147.3 186.0 147.3L186.0 147.3Q185.4 147.3 185.1 147.5Q184.7 147.8 184.6 148.3Q184.4 148.8 184.4 149.3L184.4 149.3Q184.4 149.8 184.6 150.3Q184.7 150.8 185.1 151.0Q185.4 151.3 186.0 151.3ZM191.1 152L190.3 152L190.3 146.5L191.1 146.5L191.1 152ZM190.7 145.6L190.7 145.6Q190.5 145.6 190.3 145.5Q190.1 145.3 190.1 145.1L190.1 145.1Q190.1 144.8 190.3 144.7Q190.5 144.5 190.7 144.5L190.7 144.5Q191.0 144.5 191.1 144.7Q191.3 144.8 191.3 145.1L191.3 145.1Q191.3 145.3 191.1 145.5Q191.0 145.6 190.7 145.6ZM194.2 146.5L195.3 146.5L195.3 147.3L194.2 147.3L194.2 150.6Q194.2 151.0 194.4 151.1Q194.5 151.3 194.9 151.3L194.9 151.3Q194.9 151.3 195.1 151.3Q195.2 151.2 195.3 151.2L195.3 151.2L195.5 152.0Q195.4 152.0 195.2 152.0Q195.0 152.1 194.8 152.1L194.8 152.1Q194.1 152.1 193.7 151.7Q193.3 151.3 193.3 150.7L193.3 150.7L193.3 147.3L192.5 147.3L192.5 146.5L193.3 146.5L193.3 145.2L194.2 145.2L194.2 146.5ZM198.8 152.1L198.8 152.1Q198.3 152.1 197.8 152.0Q197.4 151.8 197.1 151.5Q196.8 151.1 196.7 150.7L196.7 150.7L197.6 150.5Q197.7 150.9 198.0 151.1Q198.3 151.3 198.8 151.3L198.8 151.3Q199.4 151.3 199.7 151.1Q200.1 150.9 200.1 150.5L200.1 150.5Q200.1 150.2 199.9 150.0Q199.7 149.9 199.3 149.8L199.3 149.8L198.3 149.6Q197.6 149.4 197.2 149.0Q196.9 148.6 196.9 148.1L196.9 148.1Q196.9 147.6 197.1 147.2Q197.4 146.9 197.9 146.7Q198.3 146.5 198.9 146.5L198.9 146.5Q199.5 146.5 199.9 146.6Q200.3 146.8 200.5 147.1Q200.7 147.4 200.9 147.8L200.9 147.8L200.1 148.0Q200.0 147.7 199.7 147.5Q199.4 147.2 198.9 147.2L198.9 147.2Q198.4 147.2 198.1 147.4Q197.8 147.7 197.8 148.0L197.8 148.0Q197.8 148.3 198.0 148.5Q198.2 148.7 198.7 148.8L198.7 148.8L199.5 149.0Q200.3 149.2 200.6 149.5Q201.0 149.9 201.0 150.5L201.0 150.5Q201.0 150.9 200.7 151.3Q200.4 151.7 199.9 151.9Q199.5 152.1 198.8 152.1Z "/></g><defs><clipPath id="satori_bc-id-2-1" clip-path="url(#satori_cp-id)"><path x="247" y="63" width="196" height="110" d="M261,63 h168 a14,14 0 0 1 14,14 v82 a14,14 0 0 1 -14,14 h-168 a14,14 0 0 1 -14,-14 v-82 a14,14 0 0 1 14,-14"/></clipPath></defs><mask id="satori_om-id-2-1"><rect x="248" y="64" width="194" height="108" fill="#fff" mask="url(#satori_om-id)"/><path width="196" height="110" fill="none" stroke="#000" stroke-width="2" d="M251.101,67.101 A14,14 0 0 1 261,63 h168 a14,14 0 0 1 14,14 v82 a14,14 0 0 1 -14,14 h-168 a14,14 0 0 1 -14,-14 v-82 A14,14 0 0 1 251.101,67.101"/></mask><path x="247" y="63" width="196" height="110" fill="rgba(255,255,255,0.025)" d="M261,63 h168 a14,14 0 0 1 14,14 v82 a14,14 0 0 1 -14,14 h-168 a14,14 0 0 1 -14,-14 v-82 a14,14 0 0 1 14,-14" clip-path="url(#satori_cp-id)" mask="url(#satori_om-id)"/><path width="196" height="110" clip-path="url(#satori_bc-id-2-1)" fill="none" stroke="rgba(212,175,55,0.12)" stroke-width="2" d="M251.101,67.101 A14,14 0 0 1 261,63 h168 a14,14 0 0 1 14,14 v82 a14,14 0 0 1 -14,14 h-168 a14,14 0 0 1 -14,-14 v-82 A14,14 0 0 1 251.101,67.101"/><clipPath id="satori_cp-id-2-1-0" clip-path="url(#satori_cp-id)"><rect x="331" y="82" width="28" height="28"/></clipPath><mask id="satori_om-id-2-1-0"><rect x="331" y="82" width="28" height="28" fill="#fff" mask="url(#satori_om-id)"/></mask><svg x="331" y="82" width="28" height="28" preserveAspectRatio="none" clip-path="url(#satori_cp-id-2-1-0)" mask="url(#satori_om-id-2-1-0)"><rect x="2" y="4" width="20" height="13" rx="2" stroke="rgba(108,195,255,0.85)" stroke-width="1.5"></rect><line x1="8" y1="21" x2="16" y2="21" stroke="rgba(108,195,255,0.85)" stroke-width="1.5" stroke-linecap="round"></line><line x1="12" y1="17" x2="12" y2="21" stroke="rgba(108,195,255,0.85)" stroke-width="1.5" stroke-linecap="round"></line><circle cx="17" cy="9" r="1.5" fill="rgba(108,195,255,0.85)"></circle><line x1="6" y1="9" x2="11" y2="9" stroke="rgba(108,195,255,0.85)" stroke-width="1.2" stroke-linecap="round"></line><line x1="6" y1="12" x2="11" y2="12" stroke="rgba(108,195,255,0.85)" stroke-width="1.2" stroke-linecap="round"></line></svg><mask id="satori_om-id-2-1-0-0"><rect x="331" y="82" width="0" height="28" fill="#fff" mask="url(#satori_om-id)"/></mask><mask id="satori_om-id-2-1-0-1"><rect x="331" y="82" width="0" height="28" fill="#fff" mask="url(#satori_om-id)"/></mask><mask id="satori_om-id-2-1-0-2"><rect x="331" y="82" width="0" height="28" fill="#fff" mask="url(#satori_om-id)"/></mask><mask id="satori_om-id-2-1-0-3"><rect x="331" y="82" width="0" height="28" fill="#fff" mask="url(#satori_om-id)"/></mask><mask id="satori_om-id-2-1-0-4"><rect x="331" y="82" width="0" height="28" fill="#fff" mask="url(#satori_om-id)"/></mask><mask id="satori_om-id-2-1-0-5"><rect x="331" y="82" width="0" height="28" fill="#fff" mask="url(#satori_om-id)"/></mask><mask id="satori_om-id-2-1-1"><rect x="276" y="118" width="138" height="16" fill="#fff" mask="url(#satori_om-id)"/></mask><g mask="url(#satori_om-id)" clip-path="url(#satori_cp-id)"><path fill="rgba(108,195,255,0.85)" d="M278.8 131L276.9 131L276.9 121.5L280.5 121.5Q281.6 121.5 282.4 121.9Q283.1 122.3 283.5 123.0Q283.9 123.7 283.9 124.6Q283.9 125.6 283.5 126.2Q283.1 126.9 282.4 127.3L282.4 127.3Q282.3 127.3 282.3 127.3L282.3 127.3L284.3 131L282.1 131L280.3 127.6L278.8 127.6L278.8 131ZM278.8 123.1L278.8 126.1L280.2 126.1Q280.8 126.1 281.2 125.9Q281.5 125.7 281.7 125.4Q281.9 125.1 281.9 124.6L281.9 124.6Q281.9 124.1 281.7 123.8Q281.5 123.5 281.2 123.3Q280.8 123.1 280.2 123.1L280.2 123.1L278.8 123.1ZM288.6 131.1L288.6 131.1Q287.5 131.1 286.7 130.7Q285.9 130.3 285.5 129.4Q285.1 128.6 285.1 127.5L285.1 127.5Q285.1 126.4 285.5 125.6Q285.9 124.7 286.7 124.3Q287.4 123.8 288.5 123.8L288.5 123.8Q289.2 123.8 289.8 124.0Q290.4 124.3 290.8 124.7Q291.3 125.2 291.5 125.8Q291.8 126.5 291.8 127.4L291.8 127.4L291.8 127.9L286.9 127.9Q287.0 128.5 287.1 128.9L287.1 128.9Q287.3 129.3 287.7 129.5Q288.1 129.7 288.6 129.7L288.6 129.7Q288.9 129.7 289.2 129.6Q289.5 129.5 289.7 129.3Q289.9 129.1 290.0 128.9L290.0 128.9L291.7 129.2Q291.5 129.8 291.1 130.2Q290.7 130.7 290.0 130.9Q289.4 131.1 288.6 131.1ZM286.9 126.8L286.9 126.8L290.0 126.8Q289.9 126.4 289.8 126.1L289.8 126.1Q289.6 125.7 289.3 125.5Q289.0 125.2 288.5 125.2L288.5 125.2Q288.0 125.2 287.6 125.5Q287.3 125.7 287.1 126.1L287.1 126.1Q287.0 126.4 286.9 126.8ZM295.0 131L293.1 131L293.1 123.9L294.9 123.9L294.9 125.3Q295.1 124.9 295.3 124.6L295.3 124.6Q295.6 124.2 296.1 124.0Q296.5 123.8 297.0 123.8L297.0 123.8Q297.7 123.8 298.2 124.3L298.2 124.3Q298.6 124.7 298.8 125.4L298.8 125.4Q298.9 125.0 299.2 124.7L299.2 124.7Q299.5 124.2 300.0 124.0Q300.5 123.8 301.1 123.8L301.1 123.8Q301.7 123.8 302.2 124.1Q302.7 124.4 303.0 124.9Q303.3 125.4 303.3 126.2L303.3 126.2L303.3 131L301.4 131L301.4 126.6Q301.4 126.0 301.1 125.7Q300.8 125.4 300.3 125.4L300.3 125.4Q299.9 125.4 299.7 125.5Q299.4 125.7 299.3 126.0Q299.1 126.3 299.1 126.6L299.1 126.6L299.1 131L297.3 131L297.3 126.5Q297.3 126.0 297.0 125.7Q296.7 125.4 296.2 125.4L296.2 125.4Q295.8 125.4 295.6 125.5Q295.3 125.7 295.2 126.0Q295.0 126.3 295.0 126.7L295.0 126.7L295.0 131ZM308.1 131.1L308.1 131.1Q307.1 131.1 306.3 130.7Q305.5 130.2 305.1 129.4Q304.7 128.6 304.7 127.5L304.7 127.5Q304.7 126.4 305.1 125.6Q305.5 124.7 306.3 124.3Q307.1 123.8 308.1 123.8L308.1 123.8Q309.2 123.8 310.0 124.3Q310.8 124.7 311.2 125.6Q311.6 126.4 311.6 127.5L311.6 127.5Q311.6 128.6 311.2 129.4Q310.8 130.2 310.0 130.7Q309.2 131.1 308.1 131.1ZM308.1 129.6L308.1 129.6Q308.6 129.6 309.0 129.4Q309.3 129.1 309.5 128.6Q309.7 128.1 309.7 127.5L309.7 127.5Q309.7 126.8 309.5 126.4Q309.3 125.9 309.0 125.6Q308.6 125.3 308.1 125.3L308.1 125.3Q307.6 125.3 307.3 125.6Q306.9 125.9 306.8 126.4Q306.6 126.8 306.6 127.5L306.6 127.5Q306.6 128.1 306.8 128.6Q306.9 129.1 307.3 129.4Q307.6 129.6 308.1 129.6ZM315.1 123.9L316.5 123.9L316.5 125.4L315.1 125.4L315.1 128.9Q315.1 129.3 315.3 129.4Q315.4 129.6 315.8 129.6L315.8 129.6Q315.9 129.6 316.1 129.6Q316.3 129.5 316.4 129.5L316.4 129.5L316.7 130.9Q316.3 131.0 316.0 131.1Q315.7 131.1 315.4 131.1L315.4 131.1Q314.4 131.1 313.8 130.6Q313.2 130.1 313.2 129.1L313.2 129.1L313.2 125.4L312.2 125.4L312.2 123.9L313.2 123.9L313.2 122.2L315.1 122.2L315.1 123.9ZM320.9 131.1L320.9 131.1Q319.8 131.1 319.0 130.7Q318.2 130.3 317.8 129.4Q317.4 128.6 317.4 127.5L317.4 127.5Q317.4 126.4 317.8 125.6Q318.2 124.7 319.0 124.3Q319.8 123.8 320.8 123.8L320.8 123.8Q321.5 123.8 322.1 124.0Q322.7 124.3 323.2 124.7Q323.6 125.2 323.9 125.8Q324.1 126.5 324.1 127.4L324.1 127.4L324.1 127.9L319.3 127.9Q319.3 128.5 319.5 128.9L319.5 128.9Q319.7 129.3 320.1 129.5Q320.4 129.7 320.9 129.7L320.9 129.7Q321.3 129.7 321.5 129.6Q321.8 129.5 322.0 129.3Q322.2 129.1 322.3 128.9L322.3 128.9L324.0 129.2Q323.9 129.8 323.4 130.2Q323.0 130.7 322.4 130.9Q321.7 131.1 320.9 131.1ZM319.3 126.8L319.3 126.8L322.3 126.8Q322.3 126.4 322.1 126.1L322.1 126.1Q322.0 125.7 321.6 125.5Q321.3 125.2 320.8 125.2L320.8 125.2Q320.3 125.2 320.0 125.5Q319.6 125.7 319.5 126.1L319.5 126.1Q319.3 126.4 319.3 126.8Z M330.2 131L328.0 131L331.2 121.5L333.8 121.5L337.1 131L334.9 131L334.2 128.8L330.9 128.8L330.2 131ZM331.3 127.3L333.7 127.3L333.4 126.4Q333.2 125.6 332.9 124.5L332.9 124.5Q332.7 123.8 332.5 123.1L332.5 123.1Q332.3 123.8 332.1 124.5L332.1 124.5Q331.9 125.6 331.6 126.4L331.6 126.4L331.3 127.3ZM341.4 131.1L341.4 131.1Q340.3 131.1 339.5 130.7Q338.8 130.2 338.3 129.4Q337.9 128.6 337.9 127.5L337.9 127.5Q337.9 126.4 338.3 125.6Q338.8 124.7 339.5 124.3Q340.3 123.8 341.4 123.8L341.4 123.8Q342.0 123.8 342.6 124.0Q343.1 124.1 343.5 124.4Q343.9 124.8 344.2 125.2Q344.4 125.6 344.5 126.2L344.5 126.2L342.8 126.5Q342.7 126.2 342.6 126.0Q342.5 125.8 342.3 125.6Q342.1 125.5 341.9 125.4Q341.7 125.3 341.4 125.3L341.4 125.3Q340.9 125.3 340.6 125.6Q340.2 125.9 340.0 126.3Q339.9 126.8 339.9 127.5L339.9 127.5Q339.9 128.1 340.0 128.6Q340.2 129.1 340.6 129.4Q340.9 129.6 341.4 129.6L341.4 129.6Q341.7 129.6 341.9 129.6Q342.1 129.5 342.3 129.3Q342.5 129.1 342.6 128.9Q342.7 128.7 342.8 128.4L342.8 128.4L344.6 128.7Q344.5 129.3 344.2 129.7Q343.9 130.2 343.5 130.5Q343.1 130.8 342.6 131.0Q342.0 131.1 341.4 131.1ZM349.0 131.1L349.0 131.1Q348.0 131.1 347.2 130.7Q346.4 130.2 346.0 129.4Q345.6 128.6 345.6 127.5L345.6 127.5Q345.6 126.4 346.0 125.6Q346.4 124.7 347.2 124.3Q348.0 123.8 349.0 123.8L349.0 123.8Q349.7 123.8 350.2 124.0Q350.7 124.1 351.1 124.4Q351.6 124.8 351.8 125.2Q352.1 125.6 352.2 126.2L352.2 126.2L350.4 126.5Q350.4 126.2 350.2 126.0Q350.1 125.8 350.0 125.6Q349.8 125.5 349.6 125.4Q349.3 125.3 349.1 125.3L349.1 125.3Q348.6 125.3 348.2 125.6Q347.9 125.9 347.7 126.3Q347.5 126.8 347.5 127.5L347.5 127.5Q347.5 128.1 347.7 128.6Q347.9 129.1 348.2 129.4Q348.6 129.6 349.1 129.6L349.1 129.6Q349.3 129.6 349.6 129.6Q349.8 129.5 350.0 129.3Q350.1 129.1 350.3 128.9Q350.4 128.7 350.4 128.4L350.4 128.4L352.2 128.7Q352.1 129.3 351.8 129.7Q351.6 130.2 351.2 130.5Q350.8 130.8 350.2 131.0Q349.7 131.1 349.0 131.1ZM356.7 131.1L356.7 131.1Q355.6 131.1 354.9 130.7Q354.1 130.3 353.6 129.4Q353.2 128.6 353.2 127.5L353.2 127.5Q353.2 126.4 353.6 125.6Q354.1 124.7 354.8 124.3Q355.6 123.8 356.6 123.8L356.6 123.8Q357.3 123.8 357.9 124.0Q358.5 124.3 359.0 124.7Q359.4 125.2 359.7 125.8Q360.0 126.5 360.0 127.4L360.0 127.4L360.0 127.9L355.1 127.9Q355.1 128.5 355.3 128.9L355.3 128.9Q355.5 129.3 355.9 129.5Q356.3 129.7 356.8 129.7L356.8 129.7Q357.1 129.7 357.4 129.6Q357.6 129.5 357.8 129.3Q358.0 129.1 358.1 128.9L358.1 128.9L359.9 129.2Q359.7 129.8 359.3 130.2Q358.8 130.7 358.2 130.9Q357.6 131.1 356.7 131.1ZM355.1 126.8L355.1 126.8L358.1 126.8Q358.1 126.4 358.0 126.1L358.0 126.1Q357.8 125.7 357.5 125.5Q357.1 125.2 356.6 125.2L356.6 125.2Q356.2 125.2 355.8 125.5Q355.5 125.7 355.3 126.1L355.3 126.1Q355.1 126.4 355.1 126.8ZM364.1 131.1L364.1 131.1Q363.2 131.1 362.6 130.9Q361.9 130.7 361.5 130.2Q361.1 129.7 360.9 129.1L360.9 129.1L362.7 128.8Q362.9 129.2 363.2 129.5Q363.6 129.7 364.1 129.7L364.1 129.7Q364.7 129.7 365.0 129.5Q365.3 129.3 365.3 129.0L365.3 129.0Q365.3 128.7 365.1 128.6Q364.9 128.4 364.4 128.3L364.4 128.3L363.2 128.0Q362.1 127.8 361.6 127.3Q361.1 126.8 361.1 126.0L361.1 126.0Q361.1 125.3 361.5 124.8Q361.9 124.3 362.5 124.1Q363.2 123.8 364.1 123.8L364.1 123.8Q364.9 123.8 365.6 124.0Q366.2 124.3 366.6 124.7Q366.9 125.1 367.1 125.7L367.1 125.7L365.4 126.0Q365.3 125.6 365.0 125.4Q364.7 125.2 364.1 125.2L364.1 125.2Q363.7 125.2 363.4 125.4Q363.0 125.6 363.0 125.9L363.0 125.9Q363.0 126.2 363.2 126.4Q363.4 126.5 363.9 126.6L363.9 126.6L365.2 126.9Q366.3 127.1 366.8 127.6Q367.3 128.0 367.3 128.8L367.3 128.8Q367.3 129.5 366.8 130.0Q366.4 130.6 365.7 130.8Q365.0 131.1 364.1 131.1ZM371.4 131.1L371.4 131.1Q370.5 131.1 369.8 130.9Q369.2 130.7 368.8 130.2Q368.3 129.7 368.2 129.1L368.2 129.1L370.0 128.8Q370.1 129.2 370.5 129.5Q370.8 129.7 371.4 129.7L371.4 129.7Q372.0 129.7 372.3 129.5Q372.6 129.3 372.6 129.0L372.6 129.0Q372.6 128.7 372.4 128.6Q372.1 128.4 371.7 128.3L371.7 128.3L370.5 128.0Q369.4 127.8 368.9 127.3Q368.4 126.8 368.4 126.0L368.4 126.0Q368.4 125.3 368.8 124.8Q369.2 124.3 369.8 124.1Q370.5 123.8 371.4 123.8L371.4 123.8Q372.2 123.8 372.8 124.0Q373.5 124.3 373.8 124.7Q374.2 125.1 374.4 125.7L374.4 125.7L372.7 126.0Q372.6 125.6 372.2 125.4Q371.9 125.2 371.4 125.2L371.4 125.2Q370.9 125.2 370.6 125.4Q370.3 125.6 370.3 125.9L370.3 125.9Q370.3 126.2 370.5 126.4Q370.7 126.5 371.2 126.6L371.2 126.6L372.5 126.9Q373.5 127.1 374.0 127.6Q374.5 128.0 374.5 128.8L374.5 128.8Q374.5 129.5 374.1 130.0Q373.7 130.6 373.0 130.8Q372.3 131.1 371.4 131.1Z M381.5 123.1L378.6 123.1L378.6 121.5L386.3 121.5L386.3 123.1L383.4 123.1L383.4 131L381.5 131L381.5 123.1ZM390.8 131.1L390.8 131.1Q389.7 131.1 388.9 130.7Q388.1 130.2 387.7 129.4Q387.3 128.6 387.3 127.5L387.3 127.5Q387.3 126.4 387.7 125.6Q388.1 124.7 388.9 124.3Q389.7 123.8 390.8 123.8L390.8 123.8Q391.8 123.8 392.6 124.3Q393.4 124.7 393.8 125.6Q394.2 126.4 394.2 127.5L394.2 127.5Q394.2 128.6 393.8 129.4Q393.4 130.2 392.6 130.7Q391.8 131.1 390.8 131.1ZM390.8 129.6L390.8 129.6Q391.3 129.6 391.6 129.4Q391.9 129.1 392.1 128.6Q392.3 128.1 392.3 127.5L392.3 127.5Q392.3 126.8 392.1 126.4Q391.9 125.9 391.6 125.6Q391.3 125.3 390.8 125.3L390.8 125.3Q390.2 125.3 389.9 125.6Q389.6 125.9 389.4 126.4Q389.2 126.8 389.2 127.5L389.2 127.5Q389.2 128.1 389.4 128.6Q389.6 129.1 389.9 129.4Q390.2 129.6 390.8 129.6ZM398.7 131.1L398.7 131.1Q397.7 131.1 396.9 130.7Q396.1 130.2 395.7 129.4Q395.3 128.6 395.3 127.5L395.3 127.5Q395.3 126.4 395.7 125.6Q396.1 124.7 396.9 124.3Q397.7 123.8 398.7 123.8L398.7 123.8Q399.8 123.8 400.6 124.3Q401.4 124.7 401.8 125.6Q402.2 126.4 402.2 127.5L402.2 127.5Q402.2 128.6 401.8 129.4Q401.4 130.2 400.6 130.7Q399.8 131.1 398.7 131.1ZM398.7 129.6L398.7 129.6Q399.2 129.6 399.6 129.4Q399.9 129.1 400.1 128.6Q400.3 128.1 400.3 127.5L400.3 127.5Q400.3 126.8 400.1 126.4Q399.9 125.9 399.6 125.6Q399.2 125.3 398.7 125.3L398.7 125.3Q398.2 125.3 397.9 125.6Q397.5 125.9 397.4 126.4Q397.2 126.8 397.2 127.5L397.2 127.5Q397.2 128.1 397.4 128.6Q397.5 129.1 397.9 129.4Q398.2 129.6 398.7 129.6ZM403.5 121.5L405.4 121.5L405.4 131L403.5 131L403.5 121.5ZM409.9 131.1L409.9 131.1Q409.0 131.1 408.3 130.9Q407.7 130.7 407.3 130.2Q406.9 129.7 406.7 129.1L406.7 129.1L408.5 128.8Q408.6 129.2 409.0 129.5Q409.3 129.7 409.9 129.7L409.9 129.7Q410.5 129.7 410.8 129.5Q411.1 129.3 411.1 129.0L411.1 129.0Q411.1 128.7 410.9 128.6Q410.6 128.4 410.2 128.3L410.2 128.3L409.0 128.0Q407.9 127.8 407.4 127.3Q406.9 126.8 406.9 126.0L406.9 126.0Q406.9 125.3 407.3 124.8Q407.7 124.3 408.3 124.1Q409.0 123.8 409.9 123.8L409.9 123.8Q410.7 123.8 411.4 124.0Q412.0 124.3 412.3 124.7Q412.7 125.1 412.9 125.7L412.9 125.7L411.2 126.0Q411.1 125.6 410.8 125.4Q410.4 125.2 409.9 125.2L409.9 125.2Q409.5 125.2 409.1 125.4Q408.8 125.6 408.8 125.9L408.8 125.9Q408.8 126.2 409.0 126.4Q409.2 126.5 409.7 126.6L409.7 126.6L411.0 126.9Q412.0 127.1 412.5 127.6Q413.0 128.0 413.0 128.8L413.0 128.8Q413.0 129.5 412.6 130.0Q412.2 130.6 411.5 130.8Q410.8 131.1 409.9 131.1Z "/></g><mask id="satori_om-id-2-1-2"><rect x="279" y="142" width="133" height="12" fill="#fff" mask="url(#satori_om-id)"/></mask><g mask="url(#satori_om-id)" clip-path="url(#satori_cp-id)"><path fill="rgba(255,255,255,0.35)" d="M280.8 152L279.9 152L279.9 144.7L282.4 144.7Q283.2 144.7 283.8 145.0Q284.3 145.3 284.6 145.9Q284.8 146.4 284.8 147.0Q284.8 147.7 284.6 148.2Q284.3 148.7 283.8 149.1Q283.2 149.4 282.4 149.4L282.4 149.4L280.8 149.4L280.8 152ZM280.8 145.5L280.8 148.6L282.3 148.6Q282.9 148.6 283.3 148.4Q283.6 148.2 283.8 147.8Q283.9 147.5 283.9 147.0Q283.9 146.6 283.8 146.3Q283.6 145.9 283.3 145.7Q282.9 145.5 282.3 145.5L282.3 145.5L280.8 145.5ZM287.5 152L286.7 152L286.7 146.5L287.5 146.5L287.5 147.4L287.6 147.4Q287.7 147.0 288.1 146.7Q288.5 146.5 289.0 146.5L289.0 146.5Q289.1 146.5 289.2 146.5Q289.3 146.5 289.4 146.5L289.4 146.5L289.4 147.4Q289.4 147.4 289.2 147.3Q289.1 147.3 288.9 147.3L288.9 147.3Q288.5 147.3 288.2 147.5Q287.9 147.6 287.7 147.9Q287.5 148.2 287.5 148.6L287.5 148.6L287.5 152ZM291.8 152L290.9 152L290.9 146.5L291.8 146.5L291.8 152ZM291.4 145.6L291.4 145.6Q291.1 145.6 290.9 145.5Q290.8 145.3 290.8 145.1L290.8 145.1Q290.8 144.8 290.9 144.7Q291.1 144.5 291.4 144.5L291.4 144.5Q291.6 144.5 291.8 144.7Q292.0 144.8 292.0 145.1L292.0 145.1Q292.0 145.3 291.8 145.5Q291.6 145.6 291.4 145.6ZM296.3 152L295.4 152L293.3 146.5L294.3 146.5L295.5 149.8Q295.6 150.3 295.8 150.8L295.8 150.8Q295.8 151.0 295.9 151.2L295.9 151.2Q295.9 151.0 296.0 150.8L296.0 150.8Q296.1 150.3 296.3 149.8L296.3 149.8L297.5 146.5L298.4 146.5L296.3 152ZM301.5 152.1L301.5 152.1Q301.0 152.1 300.6 151.9Q300.1 151.7 299.9 151.4Q299.6 151.0 299.6 150.4L299.6 150.4Q299.6 150.0 299.8 149.7Q300.0 149.4 300.3 149.2Q300.6 149.1 301 149.0Q301.4 148.9 301.8 148.8L301.8 148.8Q302.2 148.8 302.6 148.7Q302.9 148.7 303.0 148.6Q303.2 148.5 303.2 148.3L303.2 148.3L303.2 148.3Q303.2 148.0 303.0 147.7Q302.9 147.5 302.7 147.4Q302.4 147.2 302.0 147.2L302.0 147.2Q301.6 147.2 301.3 147.4Q301.1 147.5 300.9 147.7Q300.7 147.9 300.6 148.0L300.6 148.0L299.8 147.8Q300.0 147.3 300.4 147.0Q300.7 146.7 301.1 146.6Q301.6 146.5 302.0 146.5L302.0 146.5Q302.3 146.5 302.6 146.5Q303.0 146.6 303.3 146.8Q303.6 147.0 303.8 147.4Q304.0 147.8 304.0 148.4L304.0 148.4L304.0 152L303.2 152L303.2 151.3L303.1 151.3Q303.0 151.4 302.8 151.7Q302.6 151.9 302.3 152.0Q302.0 152.1 301.5 152.1ZM301.6 151.4L301.6 151.4Q302.1 151.4 302.5 151.2Q302.8 151.0 303.0 150.7Q303.2 150.4 303.2 150.0L303.2 150.0L303.2 149.3Q303.1 149.3 302.9 149.4Q302.7 149.4 302.5 149.5Q302.3 149.5 302.1 149.5Q301.8 149.6 301.7 149.6L301.7 149.6Q301.4 149.6 301.1 149.7Q300.8 149.8 300.7 150.0Q300.5 150.2 300.5 150.5L300.5 150.5Q300.5 150.8 300.7 151.0Q300.8 151.2 301.1 151.3Q301.3 151.4 301.6 151.4ZM307.1 146.5L308.2 146.5L308.2 147.3L307.1 147.3L307.1 150.6Q307.1 151.0 307.3 151.1Q307.4 151.3 307.8 151.3L307.8 151.3Q307.8 151.3 308.0 151.3Q308.1 151.2 308.2 151.2L308.2 151.2L308.4 152.0Q308.2 152.0 308.1 152.0Q307.9 152.1 307.7 152.1L307.7 152.1Q307.0 152.1 306.6 151.7Q306.2 151.3 306.2 150.7L306.2 150.7L306.2 147.3L305.4 147.3L305.4 146.5L306.2 146.5L306.2 145.2L307.1 145.2L307.1 146.5ZM312.1 152.1L312.1 152.1Q311.4 152.1 310.8 151.8Q310.2 151.4 309.9 150.8Q309.6 150.2 309.6 149.3Q309.6 148.5 309.9 147.8Q310.2 147.2 310.7 146.8Q311.3 146.5 312.0 146.5L312.0 146.5Q312.5 146.5 312.9 146.6Q313.3 146.8 313.7 147.1Q314.0 147.4 314.2 147.9Q314.4 148.4 314.4 149.2L314.4 149.2L314.4 149.6L310.5 149.6Q310.5 150.1 310.7 150.5L310.7 150.5Q310.9 150.9 311.3 151.1Q311.7 151.3 312.2 151.3L312.2 151.3Q312.5 151.3 312.7 151.2Q313.0 151.2 313.2 151.0Q313.4 150.8 313.5 150.5L313.5 150.5L314.3 150.7Q314.2 151.1 313.9 151.5Q313.6 151.8 313.2 151.9Q312.7 152.1 312.1 152.1ZM310.5 148.8L310.5 148.8L313.5 148.8Q313.5 148.5 313.4 148.1L313.4 148.1Q313.2 147.7 312.9 147.5Q312.5 147.3 312.0 147.3Q311.6 147.3 311.2 147.5Q310.8 147.7 310.7 148.1L310.7 148.1Q310.5 148.5 310.5 148.8Z M320.2 149.2L320.2 149.2Q319.9 149.2 319.7 149.0Q319.5 148.8 319.5 148.5L319.5 148.5Q319.5 148.3 319.7 148.1Q319.9 147.9 320.2 147.9L320.2 147.9Q320.4 147.9 320.6 148.1Q320.8 148.3 320.8 148.5L320.8 148.5Q320.8 148.8 320.6 149.0Q320.4 149.2 320.2 149.2Z M326.3 144.7L327.2 144.7L327.2 152L326.3 152L326.3 144.7ZM330.3 148.7L330.3 148.7L330.3 152L329.4 152L329.4 146.5L330.2 146.5L330.2 147.6Q330.5 147.0 330.8 146.8L330.8 146.8Q331.3 146.5 331.9 146.5L331.9 146.5Q332.4 146.5 332.9 146.7Q333.3 146.9 333.5 147.4Q333.7 147.8 333.7 148.5L333.7 148.5L333.7 152L332.9 152L332.9 148.6Q332.9 148.0 332.5 147.6Q332.2 147.3 331.6 147.3L331.6 147.3Q331.2 147.3 330.9 147.4Q330.6 147.6 330.4 147.9Q330.3 148.3 330.3 148.7ZM336.8 146.5L337.9 146.5L337.9 147.3L336.8 147.3L336.8 150.6Q336.8 151.0 337.0 151.1Q337.1 151.3 337.5 151.3L337.5 151.3Q337.5 151.3 337.7 151.3Q337.8 151.2 337.9 151.2L337.9 151.2L338.1 152.0Q337.9 152.0 337.8 152.0Q337.6 152.1 337.4 152.1L337.4 152.1Q336.7 152.1 336.3 151.7Q335.9 151.3 335.9 150.7L335.9 150.7L335.9 147.3L335.1 147.3L335.1 146.5L335.9 146.5L335.9 145.2L336.8 145.2L336.8 146.5ZM341.8 152.1L341.8 152.1Q341.1 152.1 340.5 151.8Q339.9 151.4 339.6 150.8Q339.3 150.2 339.3 149.3Q339.3 148.5 339.6 147.8Q339.9 147.2 340.4 146.8Q341.0 146.5 341.7 146.5L341.7 146.5Q342.2 146.5 342.6 146.6Q343.0 146.8 343.4 147.1Q343.7 147.4 343.9 147.9Q344.1 148.4 344.1 149.2L344.1 149.2L344.1 149.6L340.2 149.6Q340.2 150.1 340.4 150.5L340.4 150.5Q340.6 150.9 341.0 151.1Q341.4 151.3 341.9 151.3L341.9 151.3Q342.2 151.3 342.4 151.2Q342.7 151.2 342.9 151.0Q343.1 150.8 343.2 150.5L343.2 150.5L344.0 150.7Q343.9 151.1 343.6 151.5Q343.3 151.8 342.9 151.9Q342.4 152.1 341.8 152.1ZM340.2 148.8L340.2 148.8L343.2 148.8Q343.2 148.5 343.1 148.1L343.1 148.1Q342.9 147.7 342.6 147.5Q342.2 147.3 341.7 147.3Q341.3 147.3 340.9 147.5Q340.5 147.7 340.4 148.1L340.4 148.1Q340.2 148.5 340.2 148.8ZM346.8 152L345.9 152L345.9 146.5L346.7 146.5L346.7 147.4L346.8 147.4Q346.9 147.0 347.3 146.7Q347.7 146.5 348.2 146.5L348.2 146.5Q348.3 146.5 348.4 146.5Q348.6 146.5 348.7 146.5L348.7 146.5L348.7 147.4Q348.6 147.4 348.5 147.3Q348.3 147.3 348.1 147.3L348.1 147.3Q347.7 147.3 347.4 147.5Q347.1 147.6 346.9 147.9Q346.8 148.2 346.8 148.6L346.8 148.6L346.8 152ZM351.0 148.7L351.0 148.7L351.0 152L350.1 152L350.1 146.5L351.0 146.5L351.0 147.6Q351.2 147.0 351.6 146.8L351.6 146.8Q352.0 146.5 352.7 146.5L352.7 146.5Q353.2 146.5 353.6 146.7Q354.0 146.9 354.3 147.4Q354.5 147.8 354.5 148.5L354.5 148.5L354.5 152L353.6 152L353.6 148.6Q353.6 148.0 353.3 147.6Q353.0 147.3 352.4 147.3L352.4 147.3Q352.0 147.3 351.7 147.4Q351.4 147.6 351.2 147.9Q351.0 148.3 351.0 148.7ZM358.1 152.1L358.1 152.1Q357.6 152.1 357.1 151.9Q356.7 151.7 356.5 151.4Q356.2 151.0 356.2 150.4L356.2 150.4Q356.2 150.0 356.4 149.7Q356.6 149.4 356.9 149.2Q357.2 149.1 357.6 149.0Q358.0 148.9 358.3 148.8L358.3 148.8Q358.8 148.8 359.1 148.7Q359.5 148.7 359.6 148.6Q359.7 148.5 359.7 148.3L359.7 148.3L359.7 148.3Q359.7 148.0 359.6 147.7Q359.5 147.5 359.2 147.4Q359.0 147.2 358.6 147.2L358.6 147.2Q358.2 147.2 357.9 147.4Q357.7 147.5 357.5 147.7Q357.3 147.9 357.2 148.0L357.2 148.0L356.4 147.8Q356.6 147.3 356.9 147.0Q357.3 146.7 357.7 146.6Q358.2 146.5 358.6 146.5L358.6 146.5Q358.9 146.5 359.2 146.5Q359.6 146.6 359.9 146.8Q360.2 147.0 360.4 147.4Q360.6 147.8 360.6 148.4L360.6 148.4L360.6 152L359.8 152L359.8 151.3L359.7 151.3Q359.6 151.4 359.4 151.7Q359.2 151.9 358.9 152.0Q358.5 152.1 358.1 152.1ZM358.2 151.4L358.2 151.4Q358.7 151.4 359.1 151.2Q359.4 151.0 359.6 150.7Q359.7 150.4 359.7 150.0L359.7 150.0L359.7 149.3Q359.7 149.3 359.5 149.4Q359.3 149.4 359.1 149.5Q358.9 149.5 358.7 149.5Q358.4 149.6 358.3 149.6L358.3 149.6Q358.0 149.6 357.7 149.7Q357.4 149.8 357.3 150.0Q357.1 150.2 357.1 150.5L357.1 150.5Q357.1 150.8 357.3 151.0Q357.4 151.2 357.7 151.3Q357.9 151.4 358.2 151.4ZM362.7 144.7L363.5 144.7L363.5 152L362.7 152L362.7 144.7Z M370.8 152.1L370.8 152.1Q370.2 152.1 369.8 151.8Q369.4 151.6 369.1 151.2Q368.9 150.7 368.9 150.0L368.9 150.0L368.9 146.5L369.8 146.5L369.8 149.9Q369.8 150.6 370.1 150.9Q370.4 151.3 371.0 151.3L371.0 151.3Q371.4 151.3 371.7 151.1Q372.0 150.9 372.2 150.6Q372.4 150.3 372.4 149.8L372.4 149.8L372.4 146.5L373.3 146.5L373.3 152L372.4 152L372.4 151.0Q372.2 151.5 371.8 151.8L371.8 151.8Q371.4 152.1 370.8 152.1ZM377.2 152.1L377.2 152.1Q376.6 152.1 376.2 152.0Q375.7 151.8 375.5 151.5Q375.2 151.1 375.1 150.7L375.1 150.7L375.9 150.5Q376.0 150.9 376.4 151.1Q376.7 151.3 377.2 151.3L377.2 151.3Q377.7 151.3 378.1 151.1Q378.4 150.9 378.4 150.5L378.4 150.5Q378.4 150.2 378.2 150.0Q378.0 149.9 377.6 149.8L377.6 149.8L376.7 149.6Q376.0 149.4 375.6 149.0Q375.2 148.6 375.2 148.1L375.2 148.1Q375.2 147.6 375.5 147.2Q375.8 146.9 376.2 146.7Q376.7 146.5 377.3 146.5L377.3 146.5Q377.8 146.5 378.2 146.6Q378.6 146.8 378.9 147.1Q379.1 147.4 379.2 147.8L379.2 147.8L378.4 148.0Q378.3 147.7 378.1 147.5Q377.8 147.2 377.3 147.2L377.3 147.2Q376.8 147.2 376.5 147.4Q376.1 147.7 376.1 148.0L376.1 148.0Q376.1 148.3 376.3 148.5Q376.6 148.7 377.0 148.8L377.0 148.8L377.9 149.0Q378.6 149.2 379.0 149.5Q379.3 149.9 379.3 150.5L379.3 150.5Q379.3 150.9 379.1 151.3Q378.8 151.7 378.3 151.9Q377.8 152.1 377.2 152.1ZM383.4 152.1L383.4 152.1Q382.6 152.1 382.0 151.8Q381.5 151.4 381.1 150.8Q380.8 150.2 380.8 149.3Q380.8 148.5 381.1 147.8Q381.4 147.2 382.0 146.8Q382.5 146.5 383.3 146.5L383.3 146.5Q383.7 146.5 384.1 146.6Q384.6 146.8 384.9 147.1Q385.3 147.4 385.5 147.9Q385.7 148.4 385.7 149.2L385.7 149.2L385.7 149.6L381.7 149.6Q381.7 150.1 381.9 150.5L381.9 150.5Q382.1 150.9 382.5 151.1Q382.9 151.3 383.4 151.3L383.4 151.3Q383.7 151.3 384.0 151.2Q384.2 151.2 384.4 151.0Q384.6 150.8 384.7 150.5L384.7 150.5L385.6 150.7Q385.5 151.1 385.1 151.5Q384.8 151.8 384.4 151.9Q384.0 152.1 383.4 152.1ZM381.7 148.8L381.7 148.8L384.8 148.8Q384.7 148.5 384.6 148.1L384.6 148.1Q384.4 147.7 384.1 147.5Q383.8 147.3 383.3 147.3Q382.8 147.3 382.4 147.5Q382.1 147.7 381.9 148.1L381.9 148.1Q381.8 148.5 381.7 148.8Z M393.0 152.1L393.0 152.1Q392.2 152.1 391.7 151.8Q391.1 151.4 390.8 150.8Q390.5 150.1 390.5 149.3L390.5 149.3Q390.5 148.5 390.8 147.8Q391.1 147.2 391.7 146.8Q392.2 146.5 393.0 146.5L393.0 146.5Q393.7 146.5 394.3 146.8Q394.8 147.2 395.1 147.8Q395.5 148.5 395.5 149.3L395.5 149.3Q395.5 150.1 395.1 150.8Q394.8 151.4 394.3 151.8Q393.7 152.1 393.0 152.1ZM393.0 151.3L393.0 151.3Q393.5 151.3 393.9 151.0Q394.2 150.8 394.4 150.3Q394.6 149.8 394.6 149.3L394.6 149.3Q394.6 148.8 394.4 148.3Q394.2 147.8 393.9 147.5Q393.5 147.3 393.0 147.3L393.0 147.3Q392.4 147.3 392.1 147.5Q391.7 147.8 391.5 148.3Q391.4 148.8 391.4 149.3L391.4 149.3Q391.4 149.8 391.5 150.3Q391.7 150.8 392.1 151.0Q392.4 151.3 393.0 151.3ZM398.1 148.7L398.1 148.7L398.1 152L397.2 152L397.2 146.5L398.1 146.5L398.1 147.6Q398.3 147.0 398.7 146.8L398.7 146.8Q399.1 146.5 399.8 146.5L399.8 146.5Q400.3 146.5 400.7 146.7Q401.1 146.9 401.4 147.4Q401.6 147.8 401.6 148.5L401.6 148.5L401.6 152L400.7 152L400.7 148.6Q400.7 148.0 400.4 147.6Q400.1 147.3 399.5 147.3L399.5 147.3Q399.1 147.3 398.8 147.4Q398.5 147.6 398.3 147.9Q398.1 148.3 398.1 148.7ZM403.6 144.7L404.5 144.7L404.5 152L403.6 152L403.6 144.7ZM406.5 154.0L406.5 154.0L406.7 153.2L406.8 153.2Q407.1 153.3 407.3 153.3Q407.5 153.2 407.7 153.1Q407.9 152.9 408.0 152.5L408.0 152.5L408.1 152.0L406.1 146.5L407.0 146.5L408.2 149.8Q408.4 150.3 408.5 150.8L408.5 150.8Q408.5 151.0 408.6 151.2L408.6 151.2Q408.7 151.0 408.7 150.8L408.7 150.8Q408.8 150.3 409.0 149.8L409.0 149.8L410.2 146.5L411.2 146.5L408.8 152.8Q408.6 153.3 408.4 153.5Q408.1 153.8 407.8 153.9Q407.5 154.1 407.1 154.1L407.1 154.1Q406.9 154.1 406.7 154.0Q406.5 154.0 406.5 154.0Z "/></g><defs><clipPath id="satori_bc-id-2-2" clip-path="url(#satori_cp-id)"><path x="459" y="63" width="204" height="110" d="M473,63 h176 a14,14 0 0 1 14,14 v82 a14,14 0 0 1 -14,14 h-176 a14,14 0 0 1 -14,-14 v-82 a14,14 0 0 1 14,-14"/></clipPath></defs><mask id="satori_om-id-2-2"><rect x="460" y="64" width="202" height="108" fill="#fff" mask="url(#satori_om-id)"/><path width="204" height="110" fill="none" stroke="#000" stroke-width="2" d="M463.101,67.101 A14,14 0 0 1 473,63 h176 a14,14 0 0 1 14,14 v82 a14,14 0 0 1 -14,14 h-176 a14,14 0 0 1 -14,-14 v-82 A14,14 0 0 1 463.101,67.101"/></mask><path x="459" y="63" width="204" height="110" fill="rgba(255,255,255,0.025)" d="M473,63 h176 a14,14 0 0 1 14,14 v82 a14,14 0 0 1 -14,14 h-176 a14,14 0 0 1 -14,-14 v-82 a14,14 0 0 1 14,-14" clip-path="url(#satori_cp-id)" mask="url(#satori_om-id)"/><path width="204" height="110" clip-path="url(#satori_bc-id-2-2)" fill="none" stroke="rgba(212,175,55,0.12)" stroke-width="2" d="M463.101,67.101 A14,14 0 0 1 473,63 h176 a14,14 0 0 1 14,14 v82 a14,14 0 0 1 -14,14 h-176 a14,14 0 0 1 -14,-14 v-82 A14,14 0 0 1 463.101,67.101"/><clipPath id="satori_cp-id-2-2-0" clip-path="url(#satori_cp-id)"><rect x="547" y="82" width="28" height="28"/></clipPath><mask id="satori_om-id-2-2-0"><rect x="547" y="82" width="28" height="28" fill="#fff" mask="url(#satori_om-id)"/></mask><svg x="547" y="82" width="28" height="28" preserveAspectRatio="none" clip-path="url(#satori_cp-id-2-2-0)" mask="url(#satori_om-id-2-2-0)"><circle cx="12" cy="12" r="10" stroke="rgba(163,230,53,0.85)" stroke-width="1.5"></circle><ellipse cx="12" cy="12" rx="4" ry="10" stroke="rgba(163,230,53,0.85)" stroke-width="1.2"></ellipse><line x1="2" y1="12" x2="22" y2="12" stroke="rgba(163,230,53,0.85)" stroke-width="1.2"></line><line x1="4" y1="7" x2="20" y2="7" stroke="rgba(163,230,53,0.85)" stroke-width="1"></line><line x1="4" y1="17" x2="20" y2="17" stroke="rgba(163,230,53,0.85)" stroke-width="1"></line></svg><mask id="satori_om-id-2-2-0-0"><rect x="547" y="82" width="0" height="28" fill="#fff" mask="url(#satori_om-id)"/></mask><mask id="satori_om-id-2-2-0-1"><rect x="547" y="82" width="0" height="28" fill="#fff" mask="url(#satori_om-id)"/></mask><mask id="satori_om-id-2-2-0-2"><rect x="547" y="82" width="0" height="28" fill="#fff" mask="url(#satori_om-id)"/></mask><mask id="satori_om-id-2-2-0-3"><rect x="547" y="82" width="0" height="28" fill="#fff" mask="url(#satori_om-id)"/></mask><mask id="satori_om-id-2-2-0-4"><rect x="547" y="82" width="0" height="28" fill="#fff" mask="url(#satori_om-id)"/></mask><mask id="satori_om-id-2-2-1"><rect x="535" y="118" width="53" height="16" fill="#fff" mask="url(#satori_om-id)"/></mask><g mask="url(#satori_om-id)" clip-path="url(#satori_cp-id)"><path fill="rgba(163,230,53,0.85)" d="M540.1 131L537.9 131L535.3 121.5L537.4 121.5L538.5 126.2Q538.7 126.8 538.8 127.4Q538.9 128.1 539.0 128.8L539.0 128.8Q539.0 128.9 539.0 129.1L539.0 129.1Q539.1 128.9 539.1 128.8L539.1 128.8Q539.2 128.1 539.3 127.4Q539.4 126.8 539.6 126.2L539.6 126.2L540.7 121.5L542.8 121.5L543.9 126.2Q544.0 126.8 544.2 127.4Q544.3 128.1 544.4 128.8L544.4 128.8Q544.4 128.9 544.5 129.0L544.5 129.0Q544.5 128.9 544.5 128.8L544.5 128.8Q544.6 128.1 544.7 127.4Q544.8 126.8 545.0 126.2L545.0 126.2L546.1 121.5L548.2 121.5L545.6 131L543.4 131L542.2 126.2Q542.0 125.4 541.8 124.4L541.8 124.4Q541.8 124.1 541.7 123.9L541.7 123.9Q541.7 124.1 541.7 124.4L541.7 124.4Q541.5 125.3 541.3 126.2L541.3 126.2L540.1 131ZM552.5 131.1L552.5 131.1Q551.4 131.1 550.6 130.7Q549.8 130.3 549.4 129.4Q549.0 128.6 549.0 127.5L549.0 127.5Q549.0 126.4 549.4 125.6Q549.8 124.7 550.6 124.3Q551.4 123.8 552.4 123.8L552.4 123.8Q553.1 123.8 553.7 124.0Q554.3 124.3 554.8 124.7Q555.2 125.2 555.5 125.8Q555.7 126.5 555.7 127.4L555.7 127.4L555.7 127.9L550.9 127.9Q550.9 128.5 551.1 128.9L551.1 128.9Q551.3 129.3 551.7 129.5Q552.0 129.7 552.5 129.7L552.5 129.7Q552.9 129.7 553.1 129.6Q553.4 129.5 553.6 129.3Q553.8 129.1 553.9 128.9L553.9 128.9L555.6 129.2Q555.5 129.8 555.0 130.2Q554.6 130.7 554.0 130.9Q553.3 131.1 552.5 131.1ZM550.9 126.8L550.9 126.8L553.9 126.8Q553.9 126.4 553.8 126.1L553.8 126.1Q553.6 125.7 553.3 125.5Q552.9 125.2 552.4 125.2L552.4 125.2Q551.9 125.2 551.6 125.5Q551.2 125.7 551.1 126.1L551.1 126.1Q550.9 126.4 550.9 126.8ZM561.0 131.1L561.0 131.1Q560.4 131.1 560.0 130.9Q559.6 130.7 559.4 130.4Q559.1 130.1 559.0 129.9L559.0 129.9L558.9 129.9L558.9 131L557.0 131L557.0 121.5L558.9 121.5L558.9 125.1L559.0 125.1Q559.1 124.8 559.4 124.5Q559.6 124.2 560.0 124.0Q560.4 123.8 561.0 123.8L561.0 123.8Q561.8 123.8 562.5 124.2Q563.1 124.6 563.5 125.4Q563.9 126.3 563.9 127.5L563.9 127.5Q563.9 128.6 563.5 129.5Q563.1 130.3 562.5 130.7Q561.8 131.1 561.0 131.1ZM560.4 129.6L560.4 129.6Q560.9 129.6 561.3 129.3Q561.6 129.0 561.8 128.6Q562.0 128.1 562.0 127.5L562.0 127.5Q562.0 126.8 561.8 126.4Q561.6 125.9 561.3 125.6Q560.9 125.3 560.4 125.3L560.4 125.3Q559.9 125.3 559.6 125.6Q559.3 125.9 559.1 126.3Q558.9 126.8 558.9 127.5L558.9 127.5Q558.9 128.1 559.1 128.6Q559.3 129.1 559.6 129.3Q560.0 129.6 560.4 129.6ZM568.1 131.1L568.1 131.1Q567.2 131.1 566.5 130.9Q565.9 130.7 565.5 130.2Q565.0 129.7 564.9 129.1L564.9 129.1L566.7 128.8Q566.8 129.2 567.2 129.5Q567.5 129.7 568.1 129.7L568.1 129.7Q568.7 129.7 569.0 129.5Q569.3 129.3 569.3 129.0L569.3 129.0Q569.3 128.7 569.1 128.6Q568.8 128.4 568.4 128.3L568.4 128.3L567.2 128.0Q566.1 127.8 565.6 127.3Q565.1 126.8 565.1 126.0L565.1 126.0Q565.1 125.3 565.5 124.8Q565.9 124.3 566.5 124.1Q567.2 123.8 568.1 123.8L568.1 123.8Q568.9 123.8 569.5 124.0Q570.2 124.3 570.5 124.7Q570.9 125.1 571.0 125.7L571.0 125.7L569.4 126.0Q569.3 125.6 568.9 125.4Q568.6 125.2 568.1 125.2L568.1 125.2Q567.6 125.2 567.3 125.4Q567.0 125.6 567.0 125.9L567.0 125.9Q567.0 126.2 567.2 126.4Q567.4 126.5 567.9 126.6L567.9 126.6L569.2 126.9Q570.2 127.1 570.7 127.6Q571.2 128.0 571.2 128.8L571.2 128.8Q571.2 129.5 570.8 130.0Q570.4 130.6 569.7 130.8Q569.0 131.1 568.1 131.1ZM574.4 131L572.5 131L572.5 123.9L574.4 123.9L574.4 131ZM573.5 123.0L573.5 123.0Q573.0 123.0 572.7 122.7Q572.4 122.4 572.4 122.0L572.4 122.0Q572.4 121.6 572.7 121.3Q573.0 121.0 573.5 121.0L573.5 121.0Q573.9 121.0 574.2 121.3Q574.5 121.6 574.5 122.0L574.5 122.0Q574.5 122.4 574.2 122.7Q573.9 123.0 573.5 123.0ZM578.2 123.9L579.6 123.9L579.6 125.4L578.2 125.4L578.2 128.9Q578.2 129.3 578.4 129.4Q578.5 129.6 578.9 129.6L578.9 129.6Q579.0 129.6 579.2 129.6Q579.4 129.5 579.5 129.5L579.5 129.5L579.8 130.9Q579.4 131.0 579.1 131.1Q578.8 131.1 578.5 131.1L578.5 131.1Q577.5 131.1 576.9 130.6Q576.3 130.1 576.3 129.1L576.3 129.1L576.3 125.4L575.4 125.4L575.4 123.9L576.3 123.9L576.3 122.2L578.2 122.2L578.2 123.9ZM584.0 131.1L584.0 131.1Q582.9 131.1 582.1 130.7Q581.4 130.3 580.9 129.4Q580.5 128.6 580.5 127.5L580.5 127.5Q580.5 126.4 580.9 125.6Q581.3 124.7 582.1 124.3Q582.9 123.8 583.9 123.8L583.9 123.8Q584.6 123.8 585.2 124.0Q585.8 124.3 586.3 124.7Q586.7 125.2 587.0 125.8Q587.2 126.5 587.2 127.4L587.2 127.4L587.2 127.9L582.4 127.9Q582.4 128.5 582.6 128.9L582.6 128.9Q582.8 129.3 583.2 129.5Q583.5 129.7 584.0 129.7L584.0 129.7Q584.4 129.7 584.7 129.6Q584.9 129.5 585.1 129.3Q585.3 129.1 585.4 128.9L585.4 128.9L587.1 129.2Q587.0 129.8 586.5 130.2Q586.1 130.7 585.5 130.9Q584.8 131.1 584.0 131.1ZM582.4 126.8L582.4 126.8L585.4 126.8Q585.4 126.4 585.3 126.1L585.3 126.1Q585.1 125.7 584.8 125.5Q584.4 125.2 583.9 125.2L583.9 125.2Q583.4 125.2 583.1 125.5Q582.7 125.7 582.6 126.1L582.6 126.1Q582.4 126.4 582.4 126.8Z "/></g><mask id="satori_om-id-2-2-2"><rect x="488" y="142" width="146" height="12" fill="#fff" mask="url(#satori_om-id)"/></mask><g mask="url(#satori_om-id)" clip-path="url(#satori_cp-id)"><path fill="rgba(255,255,255,0.35)" d="M491.3 152L490.2 152L488.3 144.7L489.2 144.7L490.4 149.2Q490.4 149.5 490.5 149.9Q490.6 150.3 490.7 150.7L490.7 150.7Q490.7 150.9 490.8 151.1L490.8 151.1Q490.8 150.9 490.9 150.7L490.9 150.7Q491.0 150.3 491.0 149.9Q491.1 149.5 491.2 149.2L491.2 149.2L492.4 144.7L493.5 144.7L494.6 149.2Q494.7 149.5 494.8 149.9Q494.9 150.3 495.0 150.7L495.0 150.7Q495.0 150.9 495.1 151.1L495.1 151.1Q495.1 150.9 495.2 150.7L495.2 150.7Q495.2 150.3 495.3 149.9Q495.4 149.5 495.5 149.2L495.5 149.2L496.6 144.7L497.6 144.7L495.6 152L494.5 152L493.3 147.4Q493.2 146.9 493.0 146.4L493.0 146.4Q493.0 146.1 492.9 145.8L492.9 145.8Q492.9 146.1 492.8 146.4L492.8 146.4Q492.7 146.9 492.6 147.4L492.6 147.4L491.3 152ZM501.4 152.1L501.4 152.1Q500.6 152.1 500.1 151.8Q499.5 151.4 499.2 150.8Q498.9 150.2 498.9 149.3Q498.9 148.5 499.2 147.8Q499.5 147.2 500.0 146.8Q500.6 146.5 501.3 146.5L501.3 146.5Q501.8 146.5 502.2 146.6Q502.6 146.8 502.9 147.1Q503.3 147.4 503.5 147.9Q503.7 148.4 503.7 149.2L503.7 149.2L503.7 149.6L499.8 149.6Q499.8 150.1 500.0 150.5L500.0 150.5Q500.2 150.9 500.5 151.1Q500.9 151.3 501.4 151.3L501.4 151.3Q501.7 151.3 502.0 151.2Q502.3 151.2 502.5 151.0Q502.7 150.8 502.8 150.5L502.8 150.5L503.6 150.7Q503.5 151.1 503.2 151.5Q502.9 151.8 502.4 151.9Q502.0 152.1 501.4 152.1ZM499.8 148.8L499.8 148.8L502.8 148.8Q502.8 148.5 502.6 148.1L502.6 148.1Q502.5 147.7 502.1 147.5Q501.8 147.3 501.3 147.3Q500.8 147.3 500.5 147.5Q500.1 147.7 499.9 148.1L499.9 148.1Q499.8 148.5 499.8 148.8ZM508.0 152.1L508.0 152.1Q507.5 152.1 507.2 151.9Q506.8 151.8 506.7 151.5Q506.5 151.3 506.4 151.2L506.4 151.2L506.3 151.2L506.3 152L505.5 152L505.5 144.7L506.3 144.7L506.3 147.4L506.4 147.4Q506.5 147.3 506.7 147.0Q506.8 146.8 507.1 146.6Q507.5 146.5 508.0 146.5L508.0 146.5Q508.7 146.5 509.2 146.8Q509.7 147.2 510.0 147.8Q510.3 148.4 510.3 149.3L510.3 149.3Q510.3 150.2 510.0 150.8Q509.7 151.4 509.2 151.8Q508.7 152.1 508.0 152.1ZM507.9 151.3L507.9 151.3Q508.4 151.3 508.7 151.1Q509.1 150.8 509.2 150.3Q509.4 149.8 509.4 149.3L509.4 149.3Q509.4 148.7 509.2 148.3Q509.1 147.8 508.7 147.5Q508.4 147.3 507.9 147.3L507.9 147.3Q507.4 147.3 507.0 147.5Q506.7 147.8 506.5 148.2Q506.3 148.7 506.3 149.3L506.3 149.3Q506.3 149.9 506.5 150.3Q506.7 150.8 507.0 151.1Q507.4 151.3 507.9 151.3Z M517.4 152.1L517.4 152.1Q516.8 152.1 516.2 151.8Q515.7 151.4 515.4 150.8Q515.1 150.2 515.1 149.3L515.1 149.3Q515.1 148.4 515.4 147.8Q515.7 147.2 516.2 146.8Q516.8 146.5 517.4 146.5L517.4 146.5Q518.0 146.5 518.3 146.6Q518.6 146.8 518.8 147.0Q518.9 147.3 519.0 147.4L519.0 147.4L519.1 147.4L519.1 144.7L520.0 144.7L520.0 152L519.1 152L519.1 151.2L519.0 151.2Q518.9 151.3 518.8 151.5Q518.6 151.8 518.3 151.9Q518.0 152.1 517.4 152.1ZM517.6 151.3L517.6 151.3Q518.1 151.3 518.4 151.1Q518.8 150.8 518.9 150.3Q519.1 149.9 519.1 149.3L519.1 149.3Q519.1 148.7 518.9 148.2Q518.8 147.8 518.4 147.5Q518.1 147.3 517.6 147.3L517.6 147.3Q517.1 147.3 516.7 147.5Q516.4 147.8 516.2 148.3Q516.0 148.7 516.0 149.3L516.0 149.3Q516.0 149.8 516.2 150.3Q516.4 150.8 516.7 151.1Q517.1 151.3 517.6 151.3ZM524.3 152.1L524.3 152.1Q523.5 152.1 522.9 151.8Q522.4 151.4 522.1 150.8Q521.8 150.2 521.8 149.3Q521.8 148.5 522.1 147.8Q522.4 147.2 522.9 146.8Q523.5 146.5 524.2 146.5L524.2 146.5Q524.6 146.5 525.1 146.6Q525.5 146.8 525.8 147.1Q526.2 147.4 526.4 147.9Q526.6 148.4 526.6 149.2L526.6 149.2L526.6 149.6L522.6 149.6Q522.7 150.1 522.8 150.5L522.8 150.5Q523.1 150.9 523.4 151.1Q523.8 151.3 524.3 151.3L524.3 151.3Q524.6 151.3 524.9 151.2Q525.2 151.2 525.4 151.0Q525.5 150.8 525.6 150.5L525.6 150.5L526.5 150.7Q526.4 151.1 526.1 151.5Q525.8 151.8 525.3 151.9Q524.9 152.1 524.3 152.1ZM522.6 148.8L522.6 148.8L525.7 148.8Q525.7 148.5 525.5 148.1L525.5 148.1Q525.4 147.7 525.0 147.5Q524.7 147.3 524.2 147.3Q523.7 147.3 523.4 147.5Q523.0 147.7 522.8 148.1L522.8 148.1Q522.7 148.5 522.6 148.8ZM530.8 152L529.9 152L527.8 146.5L528.8 146.5L530.0 149.8Q530.1 150.3 530.3 150.8L530.3 150.8Q530.3 151.0 530.4 151.2L530.4 151.2Q530.4 151.0 530.5 150.8L530.5 150.8Q530.6 150.3 530.8 149.8L530.8 149.8L532.0 146.5L532.9 146.5L530.8 152ZM536.8 152.1L536.8 152.1Q536.0 152.1 535.4 151.8Q534.8 151.4 534.5 150.8Q534.2 150.2 534.2 149.3Q534.2 148.5 534.5 147.8Q534.8 147.2 535.4 146.8Q535.9 146.5 536.7 146.5L536.7 146.5Q537.1 146.5 537.5 146.6Q537.9 146.8 538.3 147.1Q538.6 147.4 538.8 147.9Q539.0 148.4 539.0 149.2L539.0 149.2L539.0 149.6L535.1 149.6Q535.1 150.1 535.3 150.5L535.3 150.5Q535.5 150.9 535.9 151.1Q536.3 151.3 536.8 151.3L536.8 151.3Q537.1 151.3 537.3 151.2Q537.6 151.2 537.8 151.0Q538.0 150.8 538.1 150.5L538.1 150.5L538.9 150.7Q538.8 151.1 538.5 151.5Q538.2 151.8 537.8 151.9Q537.3 152.1 536.8 152.1ZM535.1 148.8L535.1 148.8L538.1 148.8Q538.1 148.5 538.0 148.1L538.0 148.1Q537.8 147.7 537.5 147.5Q537.1 147.3 536.7 147.3Q536.2 147.3 535.8 147.5Q535.5 147.7 535.3 148.1L535.3 148.1Q535.1 148.5 535.1 148.8ZM540.8 144.7L541.7 144.7L541.7 152L540.8 152L540.8 144.7ZM545.9 152.1L545.9 152.1Q545.2 152.1 544.6 151.8Q544.1 151.4 543.8 150.8Q543.5 150.1 543.5 149.3L543.5 149.3Q543.5 148.5 543.8 147.8Q544.1 147.2 544.6 146.8Q545.2 146.5 545.9 146.5L545.9 146.5Q546.7 146.5 547.2 146.8Q547.8 147.2 548.1 147.8Q548.4 148.5 548.4 149.3L548.4 149.3Q548.4 150.1 548.1 150.8Q547.8 151.4 547.2 151.8Q546.7 152.1 545.9 152.1ZM545.9 151.3L545.9 151.3Q546.5 151.3 546.8 151.0Q547.2 150.8 547.4 150.3Q547.5 149.8 547.5 149.3L547.5 149.3Q547.5 148.8 547.4 148.3Q547.2 147.8 546.8 147.5Q546.5 147.3 545.9 147.3L545.9 147.3Q545.4 147.3 545.0 147.5Q544.7 147.8 544.5 148.3Q544.3 148.8 544.3 149.3L544.3 149.3Q544.3 149.8 544.5 150.3Q544.7 150.8 545.0 151.0Q545.4 151.3 545.9 151.3ZM551.1 154.0L550.2 154.0L550.2 146.5L551.1 146.5L551.1 147.4L551.2 147.4Q551.3 147.3 551.4 147.0Q551.6 146.8 551.9 146.6Q552.2 146.5 552.7 146.5L552.7 146.5Q553.4 146.5 553.9 146.8Q554.5 147.2 554.8 147.8Q555.1 148.4 555.1 149.3L555.1 149.3Q555.1 150.2 554.8 150.8Q554.5 151.4 553.9 151.8Q553.4 152.1 552.7 152.1L552.7 152.1Q552.2 152.1 551.9 151.9Q551.6 151.8 551.4 151.5Q551.3 151.3 551.2 151.2L551.2 151.2L551.1 151.2L551.1 154.0ZM552.6 151.3L552.6 151.3Q553.1 151.3 553.5 151.1Q553.8 150.8 554.0 150.3Q554.2 149.8 554.2 149.3L554.2 149.3Q554.2 148.7 554.0 148.3Q553.8 147.8 553.5 147.5Q553.1 147.3 552.6 147.3L552.6 147.3Q552.1 147.3 551.8 147.5Q551.4 147.8 551.3 148.2Q551.1 148.7 551.1 149.3L551.1 149.3Q551.1 149.9 551.3 150.3Q551.4 150.8 551.8 151.1Q552.1 151.3 552.6 151.3ZM557.7 152L556.8 152L556.8 146.5L557.7 146.5L557.7 147.5Q557.8 147.2 558.0 147.0L558.0 147.0Q558.2 146.7 558.5 146.6Q558.9 146.4 559.2 146.4L559.2 146.4Q559.8 146.4 560.2 146.8L560.2 146.8Q560.5 147.1 560.6 147.6L560.6 147.6Q560.7 147.3 560.9 147.1L560.9 147.1Q561.2 146.8 561.5 146.6Q561.9 146.4 562.3 146.4L562.3 146.4Q562.8 146.4 563.2 146.6Q563.6 146.9 563.8 147.3Q564.1 147.7 564.1 148.3L564.1 148.3L564.1 152L563.2 152L563.2 148.3Q563.2 147.8 562.8 147.5Q562.5 147.2 562.1 147.2L562.1 147.2Q561.7 147.2 561.4 147.4Q561.2 147.6 561.0 147.8Q560.9 148.1 560.9 148.4L560.9 148.4L560.9 152L560.0 152L560.0 148.3Q560.0 147.8 559.7 147.5Q559.4 147.2 558.9 147.2L558.9 147.2Q558.6 147.2 558.3 147.4Q558.1 147.5 557.9 147.8Q557.7 148.1 557.7 148.6L557.7 148.6L557.7 152ZM568.4 152.1L568.4 152.1Q567.6 152.1 567.0 151.8Q566.5 151.4 566.1 150.8Q565.8 150.2 565.8 149.3Q565.8 148.5 566.1 147.8Q566.4 147.2 567.0 146.8Q567.5 146.5 568.3 146.5L568.3 146.5Q568.7 146.5 569.1 146.6Q569.6 146.8 569.9 147.1Q570.3 147.4 570.5 147.9Q570.7 148.4 570.7 149.2L570.7 149.2L570.7 149.6L566.7 149.6Q566.7 150.1 566.9 150.5L566.9 150.5Q567.1 150.9 567.5 151.1Q567.9 151.3 568.4 151.3L568.4 151.3Q568.7 151.3 569.0 151.2Q569.2 151.2 569.4 151.0Q569.6 150.8 569.7 150.5L569.7 150.5L570.6 150.7Q570.5 151.1 570.1 151.5Q569.8 151.8 569.4 151.9Q569.0 152.1 568.4 152.1ZM566.7 148.8L566.7 148.8L569.8 148.8Q569.7 148.5 569.6 148.1L569.6 148.1Q569.4 147.7 569.1 147.5Q568.8 147.3 568.3 147.3Q567.8 147.3 567.4 147.5Q567.1 147.7 566.9 148.1L566.9 148.1Q566.7 148.5 566.7 148.8ZM573.3 148.7L573.3 148.7L573.3 152L572.4 152L572.4 146.5L573.3 146.5L573.3 147.6Q573.5 147.0 573.9 146.8L573.9 146.8Q574.3 146.5 574.9 146.5L574.9 146.5Q575.5 146.5 575.9 146.7Q576.3 146.9 576.6 147.4Q576.8 147.8 576.8 148.5L576.8 148.5L576.8 152L575.9 152L575.9 148.6Q575.9 148.0 575.6 147.6Q575.3 147.3 574.7 147.3L574.7 147.3Q574.3 147.3 574.0 147.4Q573.7 147.6 573.5 147.9Q573.3 148.3 573.3 148.7ZM579.9 146.5L581.0 146.5L581.0 147.3L579.9 147.3L579.9 150.6Q579.9 151.0 580.0 151.1Q580.2 151.3 580.5 151.3L580.5 151.3Q580.6 151.3 580.7 151.3Q580.8 151.2 581.0 151.2L581.0 151.2L581.1 152.0Q581.0 152.0 580.8 152.0Q580.6 152.1 580.5 152.1L580.5 152.1Q579.8 152.1 579.4 151.7Q579.0 151.3 579.0 150.7L579.0 150.7L579.0 147.3L578.2 147.3L578.2 146.5L579.0 146.5L579.0 145.2L579.9 145.2L579.9 146.5Z M588.0 152.1L588.0 152.1Q587.3 152.1 586.7 151.8Q586.2 151.6 585.9 151.1Q585.7 150.7 585.7 150.1L585.7 150.1Q585.7 149.6 585.8 149.3Q586.0 148.9 586.4 148.6L586.4 148.6Q586.7 148.4 587.1 148.1L587.1 148.1Q587.0 147.9 586.9 147.8L586.9 147.8Q586.6 147.5 586.4 147.1Q586.2 146.7 586.2 146.3L586.2 146.3Q586.2 145.8 586.5 145.4Q586.7 145.1 587.1 144.9Q587.5 144.7 588.0 144.7L588.0 144.7Q588.6 144.7 589.0 144.9Q589.4 145.1 589.6 145.4Q589.8 145.8 589.8 146.2L589.8 146.2Q589.8 146.6 589.7 146.8Q589.5 147.1 589.3 147.4Q589.1 147.6 588.8 147.8L588.8 147.8L588.3 148.2L589.9 150.1Q589.9 150.0 590.0 149.8L590.0 149.8Q590.2 149.4 590.2 148.8L590.2 148.8L591 148.8Q591 149.5 590.8 150.0Q590.7 150.4 590.5 150.7L590.5 150.7Q590.4 150.7 590.4 150.8L590.4 150.8L591.4 152L590.4 152L589.9 151.4Q589.5 151.7 589.0 151.9L589.0 151.9Q588.5 152.1 588.0 152.1ZM589.3 150.8L587.6 148.7L587.4 148.9Q586.9 149.2 586.7 149.5Q586.6 149.8 586.6 150.1L586.6 150.1Q586.6 150.5 586.7 150.8Q586.9 151.0 587.2 151.2Q587.5 151.3 587.9 151.3L587.9 151.3Q588.3 151.3 588.7 151.2L588.7 151.2Q589.1 151.0 589.3 150.8L589.3 150.8ZM587.8 147.6L587.8 147.6L588.2 147.2Q588.4 147.1 588.5 147.0Q588.7 146.8 588.8 146.7Q588.9 146.5 588.9 146.2L588.9 146.2Q588.9 145.9 588.7 145.6Q588.4 145.4 588.1 145.4L588.1 145.4Q587.8 145.4 587.6 145.5Q587.4 145.6 587.2 145.8Q587.1 146.0 587.1 146.3L587.1 146.3Q587.1 146.6 587.3 146.8Q587.4 147.1 587.6 147.3L587.6 147.3Q587.7 147.4 587.8 147.6Z M597.0 148.7L597.0 148.7L597.0 152L596.2 152L596.2 144.7L597.0 144.7L597.0 147.5Q597.3 147.0 597.6 146.8L597.6 146.8Q598.1 146.5 598.7 146.5L598.7 146.5Q599.2 146.5 599.7 146.7Q600.1 146.9 600.3 147.4Q600.5 147.8 600.5 148.5L600.5 148.5L600.5 152L599.7 152L599.7 148.6Q599.7 148.0 599.3 147.6Q599.0 147.3 598.4 147.3L598.4 147.3Q598.0 147.3 597.7 147.4Q597.4 147.6 597.2 147.9Q597.0 148.3 597.0 148.7ZM604.8 152.1L604.8 152.1Q604.1 152.1 603.5 151.8Q602.9 151.4 602.6 150.8Q602.3 150.1 602.3 149.3L602.3 149.3Q602.3 148.5 602.6 147.8Q602.9 147.2 603.5 146.8Q604.1 146.5 604.8 146.5L604.8 146.5Q605.6 146.5 606.1 146.8Q606.7 147.2 607.0 147.8Q607.3 148.5 607.3 149.3L607.3 149.3Q607.3 150.1 607.0 150.8Q606.7 151.4 606.1 151.8Q605.6 152.1 604.8 152.1ZM604.8 151.3L604.8 151.3Q605.4 151.3 605.7 151.0Q606.1 150.8 606.2 150.3Q606.4 149.8 606.4 149.3L606.4 149.3Q606.4 148.8 606.2 148.3Q606.1 147.8 605.7 147.5Q605.4 147.3 604.8 147.3L604.8 147.3Q604.3 147.3 603.9 147.5Q603.6 147.8 603.4 148.3Q603.2 148.8 603.2 149.3L603.2 149.3Q603.2 149.8 603.4 150.3Q603.6 150.8 603.9 151.0Q604.3 151.3 604.8 151.3ZM610.9 152.1L610.9 152.1Q610.4 152.1 609.9 152.0Q609.5 151.8 609.2 151.5Q608.9 151.1 608.8 150.7L608.8 150.7L609.7 150.5Q609.8 150.9 610.1 151.1Q610.4 151.3 610.9 151.3L610.9 151.3Q611.5 151.3 611.8 151.1Q612.2 150.9 612.2 150.5L612.2 150.5Q612.2 150.2 612.0 150.0Q611.8 149.9 611.4 149.8L611.4 149.8L610.5 149.6Q609.7 149.4 609.4 149.0Q609.0 148.6 609.0 148.1L609.0 148.1Q609.0 147.6 609.3 147.2Q609.5 146.9 610.0 146.7Q610.4 146.5 611.0 146.5L611.0 146.5Q611.6 146.5 612.0 146.6Q612.4 146.8 612.6 147.1Q612.9 147.4 613.0 147.8L613.0 147.8L612.2 148.0Q612.1 147.7 611.8 147.5Q611.6 147.2 611.0 147.2L611.0 147.2Q610.5 147.2 610.2 147.4Q609.9 147.7 609.9 148.0L609.9 148.0Q609.9 148.3 610.1 148.5Q610.3 148.7 610.8 148.8L610.8 148.8L611.6 149.0Q612.4 149.2 612.7 149.5Q613.1 149.9 613.1 150.5L613.1 150.5Q613.1 150.9 612.8 151.3Q612.5 151.7 612.1 151.9Q611.6 152.1 610.9 152.1ZM615.9 146.5L617.0 146.5L617.0 147.3L615.9 147.3L615.9 150.6Q615.9 151.0 616.0 151.1Q616.2 151.3 616.5 151.3L616.5 151.3Q616.6 151.3 616.7 151.3Q616.9 151.2 617.0 151.2L617.0 151.2L617.2 152.0Q617.0 152.0 616.8 152.0Q616.7 152.1 616.5 152.1L616.5 152.1Q615.8 152.1 615.4 151.7Q615.0 151.3 615.0 150.7L615.0 150.7L615.0 147.3L614.2 147.3L614.2 146.5L615.0 146.5L615.0 145.2L615.9 145.2L615.9 146.5ZM619.5 152L618.6 152L618.6 146.5L619.5 146.5L619.5 152ZM619.1 145.6L619.1 145.6Q618.8 145.6 618.6 145.5Q618.5 145.3 618.5 145.1L618.5 145.1Q618.5 144.8 618.6 144.7Q618.8 144.5 619.1 144.5L619.1 144.5Q619.3 144.5 619.5 144.7Q619.7 144.8 619.7 145.1L619.7 145.1Q619.7 145.3 619.5 145.5Q619.3 145.6 619.1 145.6ZM622.4 148.7L622.4 148.7L622.4 152L621.6 152L621.6 146.5L622.4 146.5L622.4 147.6Q622.6 147.0 623.0 146.8L623.0 146.8Q623.5 146.5 624.1 146.5L624.1 146.5Q624.6 146.5 625.0 146.7Q625.5 146.9 625.7 147.4Q625.9 147.8 625.9 148.5L625.9 148.5L625.9 152L625.0 152L625.0 148.6Q625.0 148.0 624.7 147.6Q624.4 147.3 623.8 147.3L623.8 147.3Q623.4 147.3 623.1 147.4Q622.8 147.6 622.6 147.9Q622.4 148.3 622.4 148.7ZM630.2 154.2L630.2 154.2Q629.6 154.2 629.1 154.0Q628.7 153.9 628.4 153.6Q628.1 153.3 627.9 153.0L627.9 153.0L628.6 152.6Q628.8 152.7 628.9 152.9Q629.1 153.1 629.4 153.3Q629.7 153.4 630.2 153.4L630.2 153.4Q630.8 153.4 631.2 153.1Q631.7 152.8 631.7 152.1L631.7 152.1L631.7 151.0L631.6 151.0Q631.5 151.2 631.3 151.4Q631.2 151.6 630.8 151.7Q630.5 151.9 630 151.9L630 151.9Q629.3 151.9 628.8 151.6Q628.3 151.3 628.0 150.7Q627.7 150.1 627.7 149.2L627.7 149.2Q627.7 148.4 628.0 147.8Q628.3 147.2 628.8 146.8Q629.3 146.5 630.0 146.5L630.0 146.5Q630.5 146.5 630.9 146.6Q631.2 146.8 631.3 147.0Q631.5 147.3 631.6 147.4L631.6 147.4L631.7 147.4L631.7 146.5L632.5 146.5L632.5 152.1Q632.5 152.8 632.2 153.3Q631.9 153.7 631.4 153.9Q630.8 154.2 630.2 154.2ZM630.1 151.1L630.1 151.1Q630.6 151.1 631.0 150.9Q631.3 150.7 631.5 150.2Q631.7 149.8 631.7 149.2L631.7 149.2Q631.7 148.6 631.5 148.2Q631.3 147.8 631.0 147.5Q630.6 147.3 630.1 147.3L630.1 147.3Q629.6 147.3 629.3 147.5Q628.9 147.8 628.8 148.2Q628.6 148.7 628.6 149.2L628.6 149.2Q628.6 149.8 628.8 150.2Q628.9 150.6 629.3 150.9Q629.6 151.1 630.1 151.1Z "/></g><defs><clipPath id="satori_bc-id-2-3" clip-path="url(#satori_cp-id)"><path x="679" y="63" width="170" height="110" d="M693,63 h142 a14,14 0 0 1 14,14 v82 a14,14 0 0 1 -14,14 h-142 a14,14 0 0 1 -14,-14 v-82 a14,14 0 0 1 14,-14"/></clipPath></defs><mask id="satori_om-id-2-3"><rect x="680" y="64" width="168" height="108" fill="#fff" mask="url(#satori_om-id)"/><path width="170" height="110" fill="none" stroke="#000" stroke-width="2" d="M683.101,67.101 A14,14 0 0 1 693,63 h142 a14,14 0 0 1 14,14 v82 a14,14 0 0 1 -14,14 h-142 a14,14 0 0 1 -14,-14 v-82 A14,14 0 0 1 683.101,67.101"/></mask><path x="679" y="63" width="170" height="110" fill="rgba(255,255,255,0.025)" d="M693,63 h142 a14,14 0 0 1 14,14 v82 a14,14 0 0 1 -14,14 h-142 a14,14 0 0 1 -14,-14 v-82 a14,14 0 0 1 14,-14" clip-path="url(#satori_cp-id)" mask="url(#satori_om-id)"/><path width="170" height="110" clip-path="url(#satori_bc-id-2-3)" fill="none" stroke="rgba(212,175,55,0.12)" stroke-width="2" d="M683.101,67.101 A14,14 0 0 1 693,63 h142 a14,14 0 0 1 14,14 v82 a14,14 0 0 1 -14,14 h-142 a14,14 0 0 1 -14,-14 v-82 A14,14 0 0 1 683.101,67.101"/><clipPath id="satori_cp-id-2-3-0" clip-path="url(#satori_cp-id)"><rect x="750" y="82" width="28" height="28"/></clipPath><mask id="satori_om-id-2-3-0"><rect x="750" y="82" width="28" height="28" fill="#fff" mask="url(#satori_om-id)"/></mask><svg x="750" y="82" width="28" height="28" preserveAspectRatio="none" clip-path="url(#satori_cp-id-2-3-0)" mask="url(#satori_om-id-2-3-0)"><rect x="2" y="6" width="20" height="14" rx="2" stroke="rgba(195,155,255,0.85)" stroke-width="1.5"></rect><circle cx="12" cy="13" r="3" stroke="rgba(195,155,255,0.85)" stroke-width="1.3"></circle><line x1="5" y1="10" x2="7" y2="10" stroke="rgba(195,155,255,0.85)" stroke-width="1.5" stroke-linecap="round"></line><line x1="17" y1="10" x2="19" y2="10" stroke="rgba(195,155,255,0.85)" stroke-width="1.5" stroke-linecap="round"></line><rect x="9" y="3" width="6" height="3" rx="1" stroke="rgba(195,155,255,0.85)" stroke-width="1.2"></rect></svg><mask id="satori_om-id-2-3-0-0"><rect x="750" y="82" width="0" height="28" fill="#fff" mask="url(#satori_om-id)"/></mask><mask id="satori_om-id-2-3-0-1"><rect x="750" y="82" width="0" height="28" fill="#fff" mask="url(#satori_om-id)"/></mask><mask id="satori_om-id-2-3-0-2"><rect x="750" y="82" width="0" height="28" fill="#fff" mask="url(#satori_om-id)"/></mask><mask id="satori_om-id-2-3-0-3"><rect x="750" y="82" width="0" height="28" fill="#fff" mask="url(#satori_om-id)"/></mask><mask id="satori_om-id-2-3-0-4"><rect x="750" y="82" width="0" height="28" fill="#fff" mask="url(#satori_om-id)"/></mask><mask id="satori_om-id-2-3-1"><rect x="746" y="118" width="37" height="16" fill="#fff" mask="url(#satori_om-id)"/></mask><g mask="url(#satori_om-id)" clip-path="url(#satori_cp-id)"><path fill="rgba(195,155,255,0.85)" d="M751.0 131.1L751.0 131.1Q749.7 131.1 748.7 130.5Q747.7 130.0 747.2 128.9Q746.6 127.8 746.6 126.3L746.6 126.3Q746.6 124.7 747.2 123.7Q747.8 122.6 748.8 122.0Q749.8 121.4 751.0 121.4L751.0 121.4Q751.8 121.4 752.5 121.6Q753.2 121.9 753.7 122.3Q754.3 122.7 754.6 123.3Q754.9 123.9 755.0 124.6L755.0 124.6L753.1 124.6Q753.0 124.3 752.8 124.0Q752.6 123.7 752.3 123.5Q752.1 123.3 751.8 123.2Q751.4 123.1 751.0 123.1L751.0 123.1Q750.3 123.1 749.7 123.5Q749.2 123.9 748.9 124.6Q748.6 125.3 748.6 126.3Q748.6 127.3 748.9 128.0Q749.2 128.7 749.7 129.0Q750.3 129.4 751.1 129.4L751.1 129.4Q751.7 129.4 752.2 129.2Q752.7 128.9 753.0 128.4L753.0 128.4Q753.2 128.0 753.2 127.4L753.2 127.4L751.2 127.4L751.2 126.0L755.1 126.0L755.1 127.1Q755.1 128.4 754.6 129.3Q754.1 130.2 753.2 130.6Q752.2 131.1 751.0 131.1ZM758.5 131.1L758.5 131.1Q757.9 131.1 757.3 130.9Q756.8 130.7 756.5 130.2Q756.2 129.7 756.2 129.0L756.2 129.0Q756.2 128.4 756.4 128.0Q756.6 127.6 757.0 127.4Q757.4 127.1 757.9 127.0Q758.3 126.9 758.9 126.8L758.9 126.8Q759.5 126.8 759.9 126.7Q760.2 126.7 760.4 126.5Q760.6 126.4 760.6 126.2L760.6 126.2L760.6 126.2Q760.6 125.9 760.5 125.7Q760.3 125.4 760.1 125.3Q759.8 125.2 759.5 125.2L759.5 125.2Q759.1 125.2 758.8 125.3Q758.6 125.4 758.4 125.6Q758.2 125.8 758.1 126.0L758.1 126.0L756.4 125.8Q756.6 125.1 757.0 124.7Q757.4 124.3 758.1 124.0Q758.7 123.8 759.5 123.8L759.5 123.8Q760.1 123.8 760.6 124.0Q761.1 124.1 761.6 124.4Q762.0 124.7 762.2 125.1Q762.5 125.6 762.5 126.2L762.5 126.2L762.5 131L760.7 131L760.7 130.0L760.6 130.0Q760.5 130.3 760.2 130.6Q759.9 130.8 759.5 131.0Q759.1 131.1 758.5 131.1ZM759.1 129.8L759.1 129.8Q759.5 129.8 759.9 129.6Q760.2 129.4 760.4 129.1Q760.6 128.8 760.6 128.5L760.6 128.5L760.6 127.7Q760.5 127.8 760.3 127.8Q760.2 127.9 760.0 127.9Q759.8 127.9 759.6 128.0Q759.3 128.0 759.2 128.0L759.2 128.0Q758.8 128.1 758.6 128.2Q758.3 128.3 758.2 128.5Q758.0 128.7 758.0 129.0L758.0 129.0Q758.0 129.2 758.2 129.4Q758.3 129.6 758.5 129.7Q758.8 129.8 759.1 129.8ZM766.0 131L764.1 131L764.1 123.9L765.9 123.9L766.0 125.3Q766.1 124.9 766.3 124.6L766.3 124.6Q766.6 124.2 767.1 124.0Q767.5 123.8 768.0 123.8L768.0 123.8Q768.8 123.8 769.2 124.3L769.2 124.3Q769.6 124.7 769.8 125.4L769.8 125.4Q770.0 125.0 770.2 124.7L770.2 124.7Q770.6 124.2 771.1 124.0Q771.5 123.8 772.1 123.8L772.1 123.8Q772.7 123.8 773.3 124.1Q773.8 124.4 774.1 124.9Q774.4 125.4 774.4 126.2L774.4 126.2L774.4 131L772.5 131L772.5 126.6Q772.5 126.0 772.1 125.7Q771.8 125.4 771.3 125.4L771.3 125.4Q771.0 125.4 770.7 125.5Q770.4 125.7 770.3 126.0Q770.2 126.3 770.2 126.6L770.2 126.6L770.2 131L768.3 131L768.3 126.5Q768.3 126.0 768.0 125.7Q767.7 125.4 767.2 125.4L767.2 125.4Q766.9 125.4 766.6 125.5Q766.3 125.7 766.2 126.0Q766.0 126.3 766.0 126.7L766.0 126.7L766.0 131ZM779.2 131.1L779.2 131.1Q778.1 131.1 777.3 130.7Q776.5 130.3 776.1 129.4Q775.7 128.6 775.7 127.5L775.7 127.5Q775.7 126.4 776.1 125.6Q776.5 124.7 777.3 124.3Q778.1 123.8 779.1 123.8L779.1 123.8Q779.8 123.8 780.4 124.0Q781.0 124.3 781.5 124.7Q781.9 125.2 782.2 125.8Q782.4 126.5 782.4 127.4L782.4 127.4L782.4 127.9L777.6 127.9Q777.6 128.5 777.8 128.9L777.8 128.9Q778.0 129.3 778.4 129.5Q778.7 129.7 779.2 129.7L779.2 129.7Q779.6 129.7 779.8 129.6Q780.1 129.5 780.3 129.3Q780.5 129.1 780.6 128.9L780.6 128.9L782.3 129.2Q782.1 129.8 781.7 130.2Q781.3 130.7 780.7 130.9Q780.0 131.1 779.2 131.1ZM777.6 126.8L777.6 126.8L780.6 126.8Q780.6 126.4 780.4 126.1L780.4 126.1Q780.3 125.7 779.9 125.5Q779.6 125.2 779.1 125.2L779.1 125.2Q778.6 125.2 778.3 125.5Q777.9 125.7 777.7 126.1L777.7 126.1Q777.6 126.4 777.6 126.8Z "/></g><mask id="satori_om-id-2-3-2"><rect x="714" y="142" width="101" height="12" fill="#fff" mask="url(#satori_om-id)"/></mask><g mask="url(#satori_om-id)" clip-path="url(#satori_cp-id)"><path fill="rgba(255,255,255,0.35)" d="M717.9 152.1L717.9 152.1Q716.9 152.1 716.1 151.6Q715.4 151.2 715.0 150.4Q714.6 149.5 714.6 148.4L714.6 148.4Q714.6 147.2 715.0 146.4Q715.4 145.5 716.1 145.1Q716.9 144.6 717.8 144.6L717.8 144.6Q718.4 144.6 718.9 144.8Q719.4 145.0 719.8 145.3Q720.2 145.6 720.4 146.0Q720.7 146.5 720.8 147.0L720.8 147.0L719.8 147.0Q719.7 146.7 719.5 146.4Q719.3 146.1 719.1 145.9Q718.8 145.7 718.5 145.6Q718.2 145.5 717.8 145.5L717.8 145.5Q717.2 145.5 716.6 145.8Q716.1 146.1 715.8 146.8Q715.5 147.4 715.5 148.4L715.5 148.4Q715.5 149.3 715.8 149.9Q716.1 150.6 716.7 150.9Q717.2 151.2 717.9 151.2L717.9 151.2Q718.5 151.2 718.9 151.0Q719.4 150.7 719.7 150.2L719.7 150.2Q719.9 149.8 719.9 149.2L719.9 149.2L718.0 149.2L718.0 148.3L720.8 148.3L720.8 149.1Q720.8 150.0 720.5 150.7Q720.1 151.4 719.4 151.7Q718.7 152.1 717.9 152.1ZM724.3 152.1L724.3 152.1Q723.7 152.1 723.3 151.9Q722.9 151.7 722.6 151.4Q722.4 151.0 722.4 150.4L722.4 150.4Q722.4 150.0 722.6 149.7Q722.8 149.4 723.1 149.2Q723.4 149.1 723.8 149.0Q724.1 148.9 724.5 148.8L724.5 148.8Q725.0 148.8 725.3 148.7Q725.6 148.7 725.8 148.6Q725.9 148.5 725.9 148.3L725.9 148.3L725.9 148.3Q725.9 148.0 725.8 147.7Q725.7 147.5 725.4 147.4Q725.2 147.2 724.8 147.2L724.8 147.2Q724.4 147.2 724.1 147.4Q723.8 147.5 723.7 147.7Q723.5 147.9 723.4 148.0L723.4 148.0L722.6 147.8Q722.8 147.3 723.1 147.0Q723.5 146.7 723.9 146.6Q724.3 146.5 724.8 146.5L724.8 146.5Q725.0 146.5 725.4 146.5Q725.7 146.6 726.1 146.8Q726.4 147.0 726.6 147.4Q726.8 147.8 726.8 148.4L726.8 148.4L726.8 152L725.9 152L725.9 151.3L725.9 151.3Q725.8 151.4 725.6 151.7Q725.4 151.9 725.1 152.0Q724.7 152.1 724.3 152.1ZM724.4 151.4L724.4 151.4Q724.9 151.4 725.2 151.2Q725.6 151.0 725.8 150.7Q725.9 150.4 725.9 150.0L725.9 150.0L725.9 149.3Q725.9 149.3 725.7 149.4Q725.5 149.4 725.3 149.5Q725.0 149.5 724.8 149.5Q724.6 149.6 724.5 149.6L724.5 149.6Q724.2 149.6 723.9 149.7Q723.6 149.8 723.5 150.0Q723.3 150.2 723.3 150.5L723.3 150.5Q723.3 150.8 723.4 151.0Q723.6 151.2 723.8 151.3Q724.1 151.4 724.4 151.4ZM729.7 152L728.8 152L728.8 146.5L729.7 146.5L729.7 147.5Q729.8 147.2 730.0 147.0L730.0 147.0Q730.2 146.7 730.6 146.6Q730.9 146.4 731.2 146.4L731.2 146.4Q731.8 146.4 732.2 146.8L732.2 146.8Q732.5 147.1 732.6 147.6L732.6 147.6Q732.7 147.3 732.9 147.1L732.9 147.1Q733.2 146.8 733.5 146.6Q733.9 146.4 734.3 146.4L734.3 146.4Q734.8 146.4 735.2 146.6Q735.6 146.9 735.8 147.3Q736.1 147.7 736.1 148.3L736.1 148.3L736.1 152L735.2 152L735.2 148.3Q735.2 147.8 734.9 147.5Q734.5 147.2 734.1 147.2L734.1 147.2Q733.7 147.2 733.4 147.4Q733.2 147.6 733.0 147.8Q732.9 148.1 732.9 148.4L732.9 148.4L732.9 152L732.0 152L732.0 148.3Q732.0 147.8 731.7 147.5Q731.4 147.2 730.9 147.2L730.9 147.2Q730.6 147.2 730.3 147.4Q730.1 147.5 729.9 147.8Q729.7 148.1 729.7 148.6L729.7 148.6L729.7 152ZM740.4 152.1L740.4 152.1Q739.6 152.1 739.0 151.8Q738.5 151.4 738.2 150.8Q737.8 150.2 737.8 149.3Q737.8 148.5 738.1 147.8Q738.4 147.2 739.0 146.8Q739.6 146.5 740.3 146.5L740.3 146.5Q740.7 146.5 741.2 146.6Q741.6 146.8 741.9 147.1Q742.3 147.4 742.5 147.9Q742.7 148.4 742.7 149.2L742.7 149.2L742.7 149.6L738.7 149.6Q738.8 150.1 738.9 150.5L738.9 150.5Q739.2 150.9 739.5 151.1Q739.9 151.3 740.4 151.3L740.4 151.3Q740.7 151.3 741.0 151.2Q741.3 151.2 741.4 151.0Q741.6 150.8 741.7 150.5L741.7 150.5L742.6 150.7Q742.5 151.1 742.2 151.5Q741.9 151.8 741.4 151.9Q741.0 152.1 740.4 152.1ZM738.7 148.8L738.7 148.8L741.8 148.8Q741.8 148.5 741.6 148.1L741.6 148.1Q741.5 147.7 741.1 147.5Q740.8 147.3 740.3 147.3Q739.8 147.3 739.5 147.5Q739.1 147.7 738.9 148.1L738.9 148.1Q738.8 148.5 738.7 148.8Z M749.8 152.1L749.8 152.1Q749.1 152.1 748.6 151.8Q748.1 151.4 747.8 150.8Q747.5 150.2 747.5 149.3L747.5 149.3Q747.5 148.4 747.8 147.8Q748.1 147.2 748.6 146.8Q749.1 146.5 749.8 146.5L749.8 146.5Q750.3 146.5 750.6 146.6Q751.0 146.8 751.1 147.0Q751.3 147.3 751.4 147.4L751.4 147.4L751.5 147.4L751.5 144.7L752.3 144.7L752.3 152L751.5 152L751.5 151.2L751.4 151.2Q751.3 151.3 751.1 151.5Q750.9 151.8 750.6 151.9Q750.3 152.1 749.8 152.1ZM749.9 151.3L749.9 151.3Q750.4 151.3 750.8 151.1Q751.1 150.8 751.3 150.3Q751.5 149.9 751.5 149.3L751.5 149.3Q751.5 148.7 751.3 148.2Q751.1 147.8 750.8 147.5Q750.4 147.3 749.9 147.3L749.9 147.3Q749.4 147.3 749.1 147.5Q748.7 147.8 748.6 148.3Q748.4 148.7 748.4 149.3L748.4 149.3Q748.4 149.8 748.6 150.3Q748.7 150.8 749.1 151.1Q749.4 151.3 749.9 151.3ZM756.7 152.1L756.7 152.1Q755.9 152.1 755.3 151.8Q754.7 151.4 754.4 150.8Q754.1 150.2 754.1 149.3Q754.1 148.5 754.4 147.8Q754.7 147.2 755.3 146.8Q755.8 146.5 756.6 146.5L756.6 146.5Q757 146.5 757.4 146.6Q757.8 146.8 758.2 147.1Q758.5 147.4 758.7 147.9Q758.9 148.4 758.9 149.2L758.9 149.2L758.9 149.6L755.0 149.6Q755.0 150.1 755.2 150.5L755.2 150.5Q755.4 150.9 755.8 151.1Q756.2 151.3 756.7 151.3L756.7 151.3Q757.0 151.3 757.3 151.2Q757.5 151.2 757.7 151.0Q757.9 150.8 758.0 150.5L758.0 150.5L758.9 150.7Q758.7 151.1 758.4 151.5Q758.1 151.8 757.7 151.9Q757.2 152.1 756.7 152.1ZM755.0 148.8L755.0 148.8L758.0 148.8Q758.0 148.5 757.9 148.1L757.9 148.1Q757.7 147.7 757.4 147.5Q757.1 147.3 756.6 147.3Q756.1 147.3 755.7 147.5Q755.4 147.7 755.2 148.1L755.2 148.1Q755.0 148.5 755.0 148.8ZM763.2 152L762.3 152L760.2 146.5L761.2 146.5L762.3 149.8Q762.5 150.3 762.6 150.8L762.6 150.8Q762.7 151.0 762.7 151.2L762.7 151.2Q762.8 151.0 762.9 150.8L762.9 150.8Q763.0 150.3 763.2 149.8L763.2 149.8L764.3 146.5L765.3 146.5L763.2 152ZM769.1 152.1L769.1 152.1Q768.3 152.1 767.8 151.8Q767.2 151.4 766.9 150.8Q766.6 150.2 766.6 149.3Q766.6 148.5 766.9 147.8Q767.2 147.2 767.7 146.8Q768.3 146.5 769.0 146.5L769.0 146.5Q769.5 146.5 769.9 146.6Q770.3 146.8 770.6 147.1Q771.0 147.4 771.2 147.9Q771.4 148.4 771.4 149.2L771.4 149.2L771.4 149.6L767.4 149.6Q767.5 150.1 767.7 150.5L767.7 150.5Q767.9 150.9 768.2 151.1Q768.6 151.3 769.1 151.3L769.1 151.3Q769.4 151.3 769.7 151.2Q770.0 151.2 770.2 151.0Q770.4 150.8 770.5 150.5L770.5 150.5L771.3 150.7Q771.2 151.1 770.9 151.5Q770.6 151.8 770.1 151.9Q769.7 152.1 769.1 152.1ZM767.5 148.8L767.5 148.8L770.5 148.8Q770.5 148.5 770.3 148.1L770.3 148.1Q770.2 147.7 769.8 147.5Q769.5 147.3 769.0 147.3Q768.5 147.3 768.2 147.5Q767.8 147.7 767.6 148.1L767.6 148.1Q767.5 148.5 767.5 148.8ZM773.2 144.7L774.0 144.7L774.0 152L773.2 152L773.2 144.7ZM778.3 152.1L778.3 152.1Q777.6 152.1 777.0 151.8Q776.4 151.4 776.1 150.8Q775.8 150.1 775.8 149.3L775.8 149.3Q775.8 148.5 776.1 147.8Q776.4 147.2 777.0 146.8Q777.6 146.5 778.3 146.5L778.3 146.5Q779.0 146.5 779.6 146.8Q780.2 147.2 780.5 147.8Q780.8 148.5 780.8 149.3L780.8 149.3Q780.8 150.1 780.5 150.8Q780.2 151.4 779.6 151.8Q779.0 152.1 778.3 152.1ZM778.3 151.3L778.3 151.3Q778.8 151.3 779.2 151.0Q779.6 150.8 779.7 150.3Q779.9 149.8 779.9 149.3L779.9 149.3Q779.9 148.8 779.7 148.3Q779.6 147.8 779.2 147.5Q778.8 147.3 778.3 147.3L778.3 147.3Q777.8 147.3 777.4 147.5Q777.0 147.8 776.9 148.3Q776.7 148.8 776.7 149.3L776.7 149.3Q776.7 149.8 776.9 150.3Q777.0 150.8 777.4 151.0Q777.8 151.3 778.3 151.3ZM783.5 154.0L782.6 154.0L782.6 146.5L783.4 146.5L783.4 147.4L783.5 147.4Q783.6 147.3 783.8 147.0Q783.9 146.8 784.3 146.6Q784.6 146.5 785.1 146.5L785.1 146.5Q785.8 146.5 786.3 146.8Q786.8 147.2 787.1 147.8Q787.4 148.4 787.4 149.3L787.4 149.3Q787.4 150.2 787.1 150.8Q786.8 151.4 786.3 151.8Q785.8 152.1 785.1 152.1L785.1 152.1Q784.6 152.1 784.3 151.9Q784.0 151.8 783.8 151.5Q783.6 151.3 783.5 151.2L783.5 151.2L783.5 151.2L783.5 154.0ZM785.0 151.3L785.0 151.3Q785.5 151.3 785.8 151.1Q786.2 150.8 786.3 150.3Q786.5 149.8 786.5 149.3L786.5 149.3Q786.5 148.7 786.4 148.3Q786.2 147.8 785.8 147.5Q785.5 147.3 785.0 147.3L785.0 147.3Q784.5 147.3 784.1 147.5Q783.8 147.8 783.6 148.2Q783.4 148.7 783.4 149.3L783.4 149.3Q783.4 149.9 783.6 150.3Q783.8 150.8 784.1 151.1Q784.5 151.3 785.0 151.3ZM790.1 152L789.2 152L789.2 146.5L790.0 146.5L790.1 147.5Q790.2 147.2 790.3 147.0L790.3 147.0Q790.6 146.7 790.9 146.6Q791.2 146.4 791.6 146.4L791.6 146.4Q792.2 146.4 792.5 146.8L792.5 146.8Q792.8 147.1 793.0 147.6L793.0 147.6Q793.1 147.3 793.3 147.1L793.3 147.1Q793.5 146.8 793.9 146.6Q794.3 146.4 794.7 146.4L794.7 146.4Q795.2 146.4 795.6 146.6Q795.9 146.9 796.2 147.3Q796.4 147.7 796.4 148.3L796.4 148.3L796.4 152L795.5 152L795.5 148.3Q795.5 147.8 795.2 147.5Q794.9 147.2 794.4 147.2L794.4 147.2Q794.1 147.2 793.8 147.4Q793.5 147.6 793.4 147.8Q793.2 148.1 793.2 148.4L793.2 148.4L793.2 152L792.4 152L792.4 148.3Q792.4 147.8 792.1 147.5Q791.8 147.2 791.3 147.2L791.3 147.2Q791.0 147.2 790.7 147.4Q790.4 147.5 790.2 147.8Q790.1 148.1 790.1 148.6L790.1 148.6L790.1 152ZM800.7 152.1L800.7 152.1Q800.0 152.1 799.4 151.8Q798.8 151.4 798.5 150.8Q798.2 150.2 798.2 149.3Q798.2 148.5 798.5 147.8Q798.8 147.2 799.4 146.8Q799.9 146.5 800.6 146.5L800.6 146.5Q801.1 146.5 801.5 146.6Q801.9 146.8 802.3 147.1Q802.6 147.4 802.8 147.9Q803.0 148.4 803.0 149.2L803.0 149.2L803.0 149.6L799.1 149.6Q799.1 150.1 799.3 150.5L799.3 150.5Q799.5 150.9 799.9 151.1Q800.3 151.3 800.8 151.3L800.8 151.3Q801.1 151.3 801.3 151.2Q801.6 151.2 801.8 151.0Q802.0 150.8 802.1 150.5L802.1 150.5L802.9 150.7Q802.8 151.1 802.5 151.5Q802.2 151.8 801.8 151.9Q801.3 152.1 800.7 152.1ZM799.1 148.8L799.1 148.8L802.1 148.8Q802.1 148.5 802.0 148.1L802.0 148.1Q801.8 147.7 801.5 147.5Q801.1 147.3 800.6 147.3Q800.2 147.3 799.8 147.5Q799.5 147.7 799.3 148.1L799.3 148.1Q799.1 148.5 799.1 148.8ZM805.7 148.7L805.7 148.7L805.7 152L804.8 152L804.8 146.5L805.6 146.5L805.6 147.6Q805.9 147.0 806.2 146.8L806.2 146.8Q806.7 146.5 807.3 146.5L807.3 146.5Q807.9 146.5 808.3 146.7Q808.7 146.9 808.9 147.4Q809.1 147.8 809.1 148.5L809.1 148.5L809.1 152L808.3 152L808.3 148.6Q808.3 148.0 807.9 147.6Q807.6 147.3 807.0 147.3L807.0 147.3Q806.6 147.3 806.3 147.4Q806.0 147.6 805.8 147.9Q805.7 148.3 805.7 148.7ZM812.2 146.5L813.3 146.5L813.3 147.3L812.2 147.3L812.2 150.6Q812.2 151.0 812.4 151.1Q812.5 151.3 812.9 151.3L812.9 151.3Q812.9 151.3 813.1 151.3Q813.2 151.2 813.3 151.2L813.3 151.2L813.5 152.0Q813.4 152.0 813.2 152.0Q813.0 152.1 812.8 152.1L812.8 152.1Q812.1 152.1 811.7 151.7Q811.3 151.3 811.3 150.7L811.3 150.7L811.3 147.3L810.5 147.3L810.5 146.5L811.3 146.5L811.3 145.2L812.2 145.2L812.2 146.5Z "/></g></svg>