<!-- Generated by readme-aura https://github.com/collectioneur/readme-aura -->
<svg width="900" height="130" viewBox="0 0 900 130" xmlns="http://www.w3.org/2000/svg"><clipPath id="satori_cp-id"><path x="0" y="0" width="900" height="130" d="M16,0 h868 a16,16 0 0 1 16,16 v98 a16,16 0 0 1 -16,16 h-868 a16,16 0 0 1 -16,-16 v-98 a16,16 0 0 1 16,-16"/></clipPath><mask id="satori_om-id"><rect x="0" y="0" width="900" height="130" fill="#fff"/></mask><path x="0" y="0" width="900" height="130" fill="#07070c" d="M16,0 h868 a16,16 0 0 1 16,16 v98 a16,16 0 0 1 -16,16 h-868 a16,16 0 0 1 -16,-16 v-98 a16,16 0 0 1 16,-16"/><clipPath id="satori_cp-id-0" clip-path="url(#satori_cp-id)"><rect x="0" y="0" width="900" height="130"/></clipPath><mask id="satori_om-id-0"><rect x="0" y="0" width="900" height="130" fill="#fff" mask="url(#satori_om-id)"/></mask><svg x="0" y="0" width="900" height="130" preserveAspectRatio="none" clip-path="url(#satori_cp-id-0)" mask="url(#satori_om-id-0)"><defs><radialGradient id="fg1" cx="50%" cy="50%" r="50%"><stop offset="0%" stop-color="rgba(212,175,55,0.38)"></stop><stop offset="100%" stop-color="rgba(212,175,55,0)"></stop></radialGradient><radialGradient id="fg2" cx="50%" cy="50%" r="50%"><stop offset="0%" stop-color="rgba(34,197,94,0.25)"></stop><stop offset="100%" stop-color="rgba(34,197,94,0)"></stop></radialGradient><radialGradient id="fg3" cx="50%" cy="50%" r="50%"><stop offset="0%" stop-color="rgba(212,175,55,0.18)"></stop><stop offset="100%" stop-color="rgba(212,175,55,0)"></stop></radialGradient></defs><ellipse id="fo1" cx="120" cy="65" rx="180" ry="90" fill="url(#fg1)"></ellipse><ellipse id="fo2" cx="780" cy="65" rx="170" ry="85" fill="url(#fg2)"></ellipse><ellipse id="fo3" cx="450" cy="65" rx="200" ry="75" fill="url(#fg3)"></ellipse><style>

    @keyframes fin-orb { 0%, 100% { transform: translate(0,0); opacity: 0.45; } 50% { transform: translate(18px,-12px); opacity: 0.68; } }
    @keyframes fin-orb-b { 0%, 100% { transform: translate(0,0); opacity: 0.38; } 50% { transform: translate(-14px,10px); opacity: 0.58; } }
    #fo1 { animation: fin-orb 11s ease-in-out infinite; }
    #fo2 { animation: fin-orb-b 13s ease-in-out infinite 1.4s; }
    #fo3 { animation: fin-orb 9s ease-in-out infinite 2.8s; }
  
</style>
</svg><mask id="satori_om-id-0-0"><rect x="0" y="0" width="0" height="130" fill="#fff" mask="url(#satori_om-id)"/></mask><mask id="satori_om-id-0-0-0"><rect x="0" y="0" width="0" height="130" fill="#fff" mask="url(#satori_om-id)"/></mask><mask id="satori_om-id-0-0-0-0"><rect x="0" y="0" width="0" height="130" fill="#fff" mask="url(#satori_om-id)"/></mask><mask id="satori_om-id-0-0-0-1"><rect x="0" y="0" width="0" height="130" fill="#fff" mask="url(#satori_om-id)"/></mask><mask id="satori_om-id-0-0-1"><rect x="0" y="0" width="0" height="130" fill="#fff" mask="url(#satori_om-id)"/></mask><mask id="satori_om-id-0-0-1-0"><rect x="0" y="0" width="0" height="130" fill="#fff" mask="url(#satori_om-id)"/></mask><mask id="satori_om-id-0-0-1-1"><rect x="0" y="0" width="0" height="130" fill="#fff" mask="url(#satori_om-id)"/></mask><mask id="satori_om-id-0-0-2"><rect x="0" y="0" width="0" height="130" fill="#fff" mask="url(#satori_om-id)"/></mask><mask id="satori_om-id-0-0-2-0"><rect x="0" y="0" width="0" height="130" fill="#fff" mask="url(#satori_om-id)"/></mask><mask id="satori_om-id-0-0-2-1"><rect x="0" y="0" width="0" height="130" fill="#fff" mask="url(#satori_om-id)"/></mask><mask id="satori_om-id-0-1"><rect x="0" y="0" width="0" height="130" fill="#fff" mask="url(#satori_om-id)"/></mask><mask id="satori_om-id-0-2"><rect x="0" y="0" width="0" height="130" fill="#fff" mask="url(#satori_om-id)"/></mask><mask id="satori_om-id-0-3"><rect x="0" y="0" width="0" height="130" fill="#fff" mask="url(#satori_om-id)"/></mask><mask id="satori_om-id-1"><rect x="83" y="59" width="100" height="12" fill="#fff" mask="url(#satori_om-id)"/></mask><g mask="url(#satori_om-id)" clip-path="url(#satori_cp-id)"><path fill="rgba(212,175,55,0.5)" d="M84.8 69L83.9 69L83.9 61.7L88.3 61.7L88.3 62.5L84.8 62.5L84.8 65.0L87.9 65.0L87.9 65.9L84.8 65.9L84.8 69ZM93.8 61.7L94.7 61.7L94.7 69L93.8 69L93.8 61.7ZM101.4 69L100.5 69L100.5 61.7L101.6 61.7L104.5 66.4Q104.6 66.6 104.8 66.8Q105.0 67.1 105.2 67.5L105.2 67.5Q105.3 67.7 105.4 67.9L105.4 67.9Q105.4 67.7 105.3 67.4L105.3 67.4Q105.3 67.1 105.3 66.7Q105.3 66.4 105.3 66.2L105.3 66.2L105.3 61.7L106.2 61.7L106.2 69L105.1 69L102.5 64.9Q102.3 64.6 102.1 64.3Q102.0 64.0 101.7 63.5L101.7 63.5Q101.6 63.2 101.3 62.8L101.3 62.8Q101.3 63.2 101.4 63.5L101.4 63.5Q101.4 64.0 101.4 64.3Q101.4 64.7 101.4 64.8L101.4 64.8L101.4 69ZM112.4 69L111.4 69L114.0 61.7L115.1 61.7L117.8 69L116.8 69L116.1 67.0L113.1 67.0L112.4 69ZM113.3 66.2L115.8 66.2L115.2 64.7Q115.1 64.3 114.9 63.7L114.9 63.7Q114.8 63.2 114.6 62.5L114.6 62.5Q114.3 63.2 114.2 63.7L114.2 63.7Q114.0 64.3 113.9 64.7L113.9 64.7L113.3 66.2ZM123.8 69L122.9 69L122.9 61.7L124.0 61.7L127.0 66.4Q127.1 66.6 127.2 66.8Q127.4 67.1 127.6 67.5L127.6 67.5Q127.7 67.7 127.8 67.9L127.8 67.9Q127.8 67.7 127.8 67.4L127.8 67.4Q127.8 67.1 127.8 66.7Q127.8 66.4 127.8 66.2L127.8 66.2L127.8 61.7L128.7 61.7L128.7 69L127.6 69L124.9 64.9Q124.8 64.6 124.6 64.3Q124.4 64.0 124.2 63.5L124.2 63.5Q124.0 63.2 123.8 62.8L123.8 62.8Q123.8 63.2 123.8 63.5L123.8 63.5Q123.8 64.0 123.8 64.3Q123.8 64.7 123.8 64.8L123.8 64.8L123.8 69ZM137.4 69.1L137.4 69.1Q136.4 69.1 135.7 68.6Q135.0 68.2 134.6 67.4Q134.2 66.5 134.2 65.4L134.2 65.4Q134.2 64.2 134.6 63.4Q135.0 62.5 135.7 62.1Q136.4 61.6 137.4 61.6L137.4 61.6Q137.9 61.6 138.4 61.8Q138.9 61.9 139.3 62.3Q139.7 62.6 140.0 63.0Q140.2 63.5 140.3 64.0L140.3 64.0L139.4 64.0Q139.3 63.6 139.1 63.4Q138.9 63.1 138.7 62.9Q138.4 62.7 138.1 62.6Q137.7 62.5 137.4 62.5L137.4 62.5Q136.7 62.5 136.2 62.8Q135.7 63.2 135.4 63.8Q135.1 64.4 135.1 65.4L135.1 65.4Q135.1 66.3 135.4 66.9Q135.7 67.6 136.2 67.9Q136.7 68.2 137.4 68.2L137.4 68.2Q137.7 68.2 138.1 68.1Q138.4 68.0 138.7 67.8Q138.9 67.7 139.1 67.4Q139.3 67.1 139.4 66.7L139.4 66.7L140.3 66.7Q140.2 67.3 140.0 67.7Q139.7 68.1 139.3 68.5Q138.9 68.8 138.4 68.9Q137.9 69.1 137.4 69.1ZM145.7 61.7L146.7 61.7L146.7 69L145.7 69L145.7 61.7ZM152.8 69L151.8 69L154.4 61.7L155.5 61.7L158.2 69L157.2 69L156.5 67.0L153.5 67.0L152.8 69ZM153.8 66.2L156.2 66.2L155.7 64.7Q155.5 64.3 155.3 63.7L155.3 63.7Q155.2 63.2 155.0 62.5L155.0 62.5Q154.8 63.2 154.6 63.7L154.6 63.7Q154.4 64.3 154.3 64.7L154.3 64.7L153.8 66.2ZM167.6 69L163.3 69L163.3 61.7L164.3 61.7L164.3 68.2L167.6 68.2L167.6 69ZM175.3 69.1L175.3 69.1Q174.5 69.1 173.9 68.9Q173.4 68.6 173.0 68.2Q172.7 67.7 172.7 67.1L172.7 67.1L173.6 67.1Q173.7 67.5 173.9 67.8Q174.1 68.0 174.5 68.2Q174.9 68.3 175.3 68.3L175.3 68.3Q175.8 68.3 176.2 68.1Q176.6 68.0 176.8 67.7Q177.0 67.4 177.0 67.0L177.0 67.0Q177.0 66.7 176.8 66.4Q176.7 66.2 176.3 66.1Q176.0 65.9 175.6 65.8L175.6 65.8L174.7 65.6Q173.8 65.3 173.4 64.9Q172.9 64.4 172.9 63.7L172.9 63.7Q172.9 63.1 173.2 62.6Q173.5 62.1 174.1 61.9Q174.7 61.6 175.4 61.6L175.4 61.6Q176.1 61.6 176.6 61.9Q177.2 62.1 177.5 62.6Q177.8 63.0 177.9 63.6L177.9 63.6L176.9 63.6Q176.9 63.0 176.4 62.7Q176.0 62.4 175.3 62.4L175.3 62.4Q174.9 62.4 174.5 62.6Q174.2 62.8 174.0 63.0Q173.8 63.3 173.8 63.6L173.8 63.6Q173.8 64.0 174.0 64.2Q174.2 64.5 174.6 64.6Q174.9 64.7 175.2 64.8L175.2 64.8L175.9 65.0Q176.2 65.1 176.5 65.2Q176.9 65.4 177.2 65.6Q177.5 65.8 177.7 66.2Q178.0 66.5 178.0 67.0L178.0 67.0Q178.0 67.6 177.6 68.1Q177.3 68.6 176.7 68.8Q176.1 69.1 175.3 69.1Z "/></g><mask id="satori_om-id-2"><rect x="231" y="35" width="587" height="60" fill="#fff" mask="url(#satori_om-id)"/></mask><mask id="satori_om-id-2-0"><rect x="231" y="35" width="118" height="60" fill="#fff" mask="url(#satori_om-id)"/></mask><mask id="satori_om-id-2-0-0"><rect x="254" y="35" width="73" height="41" fill="#fff" mask="url(#satori_om-id)"/></mask><g mask="url(#satori_om-id)" clip-path="url(#satori_cp-id)"><path fill="#D4AF37" d="M265.1 68.3L265.1 68.3Q262.3 68.3 260.1 67.4Q258.0 66.5 256.8 64.9Q255.6 63.4 255.6 61.4L255.6 61.4Q255.6 59.8 256.3 58.5Q257.0 57.2 258.2 56.3Q259.4 55.5 260.9 55.2L260.9 55.2L260.9 55.1Q258.9 54.7 257.7 53.1Q256.5 51.6 256.5 49.6L256.5 49.6Q256.5 47.7 257.6 46.2Q258.7 44.7 260.6 43.8Q262.6 42.9 265.1 42.9L265.1 42.9Q267.5 42.9 269.5 43.8Q271.4 44.7 272.6 46.2Q273.7 47.7 273.7 49.6L273.7 49.6Q273.7 51.6 272.4 53.1Q271.2 54.7 269.3 55.1L269.3 55.1L269.3 55.2Q270.7 55.5 271.9 56.3Q273.1 57.2 273.9 58.5Q274.6 59.8 274.6 61.4L274.6 61.4Q274.6 63.4 273.4 64.9Q272.1 66.5 270.0 67.4Q267.8 68.3 265.1 68.3ZM265.1 64.6L265.1 64.6Q266.3 64.6 267.3 64.1Q268.2 63.7 268.8 62.8Q269.3 62.0 269.3 61.0L269.3 61.0Q269.3 59.9 268.7 59.0Q268.2 58.2 267.2 57.7Q266.3 57.2 265.1 57.2L265.1 57.2Q263.8 57.2 262.9 57.7Q261.9 58.2 261.4 59.0Q260.8 59.8 260.8 61.0L260.8 61.0Q260.8 62.0 261.3 62.8Q261.9 63.7 262.8 64.1Q263.8 64.6 265.1 64.6ZM265.1 53.5L265.1 53.5Q266.1 53.5 266.9 53.1Q267.8 52.6 268.2 51.9Q268.7 51.1 268.7 50.1L268.7 50.1Q268.7 49.1 268.2 48.4Q267.8 47.6 267.0 47.2Q266.1 46.8 265.1 46.8L265.1 46.8Q264.0 46.8 263.2 47.2Q262.3 47.6 261.9 48.4Q261.4 49.1 261.4 50.1L261.4 50.1Q261.4 51.1 261.9 51.9Q262.3 52.6 263.2 53.1Q264.0 53.5 265.1 53.5ZM286.6 68.3L286.6 68.3Q283.5 68.3 281.3 66.8Q279.0 65.3 277.9 62.5Q276.7 59.7 276.7 55.6L276.7 55.6Q276.7 51.6 277.9 48.8Q279.0 46.0 281.3 44.4Q283.5 42.9 286.6 42.9L286.6 42.9Q289.7 42.9 291.9 44.5Q294.1 46.0 295.3 48.8Q296.5 51.6 296.5 55.6L296.5 55.6Q296.5 59.7 295.3 62.5Q294.2 65.3 291.9 66.8Q289.7 68.3 286.6 68.3ZM286.6 64.1L286.6 64.1Q288.1 64.1 289.2 63.1Q290.2 62.1 290.8 60.2Q291.3 58.4 291.3 55.6L291.3 55.6Q291.3 52.9 290.8 51.0Q290.2 49.1 289.2 48.1Q288.1 47.1 286.6 47.1L286.6 47.1Q285.1 47.1 284.0 48.1Q282.9 49.1 282.4 51.0Q281.9 52.9 281.9 55.6L281.9 55.6Q281.9 58.4 282.4 60.2Q282.9 62.1 284.0 63.1Q285.1 64.1 286.6 64.1Z M313.7 51.8L322.4 51.8L321.2 54.4L313.3 54.4Q313.3 55.0 313.3 55.7L313.3 55.7Q313.3 56.3 313.3 56.8L313.3 56.8L320.1 56.8L318.8 59.5L313.7 59.5Q313.8 59.9 314.0 60.3L314.0 60.3Q314.7 62.1 316.0 63.0Q317.2 63.8 318.9 63.8L318.9 63.8Q320.0 63.8 320.9 63.5Q321.7 63.3 322.4 62.9Q323.1 62.5 323.5 62.1L323.5 62.1L325.4 66.1Q324.1 67.2 322.5 67.8Q320.8 68.3 318.9 68.3L318.9 68.3Q315.8 68.3 313.4 66.8Q310.9 65.3 309.6 62.5L309.6 62.5Q308.9 61.1 308.6 59.5L308.6 59.5L305.1 59.5L306.1 56.8L308.2 56.8Q308.2 56.3 308.2 55.7L308.2 55.7Q308.2 55.0 308.2 54.4L308.2 54.4L305.1 54.4L306.1 51.8L308.5 51.8Q308.9 50.2 309.6 48.8L309.6 48.8Q310.9 46.0 313.4 44.5Q315.8 42.9 318.9 42.9L318.9 42.9Q320.8 42.9 322.5 43.5Q324.2 44.1 325.5 45.2L325.5 45.2L323.6 49.2Q323.2 48.9 322.5 48.5Q321.8 48.0 320.9 47.8Q320.0 47.5 318.9 47.5L318.9 47.5Q317.2 47.5 316.0 48.3Q314.7 49.2 314.0 51.0L314.0 51.0Q313.8 51.4 313.7 51.8L313.7 51.8Z "/></g><mask id="satori_om-id-2-0-1"><rect x="231" y="80" width="118" height="12" fill="#fff" mask="url(#satori_om-id)"/></mask><g mask="url(#satori_om-id)" clip-path="url(#satori_cp-id)"><path fill="rgba(255,255,255,0.38)" d="M234.8 90.1L234.8 90.1Q233.9 90.1 233.2 89.6Q232.4 89.2 232.0 88.4Q231.6 87.5 231.6 86.4L231.6 86.4Q231.6 85.2 232.0 84.4Q232.4 83.5 233.2 83.1Q233.9 82.6 234.8 82.6L234.8 82.6Q235.4 82.6 235.9 82.8Q236.4 82.9 236.7 83.3Q237.1 83.6 237.4 84.0Q237.7 84.5 237.8 85.0L237.8 85.0L236.8 85.0Q236.8 84.6 236.6 84.4Q236.4 84.1 236.1 83.9Q235.8 83.7 235.5 83.6Q235.2 83.5 234.8 83.5L234.8 83.5Q234.2 83.5 233.6 83.8Q233.1 84.2 232.8 84.8Q232.5 85.4 232.5 86.4L232.5 86.4Q232.5 87.3 232.8 87.9Q233.1 88.6 233.6 88.9Q234.2 89.2 234.8 89.2L234.8 89.2Q235.2 89.2 235.5 89.1Q235.8 89.0 236.1 88.8Q236.4 88.7 236.6 88.4Q236.8 88.1 236.8 87.7L236.8 87.7L237.8 87.7Q237.7 88.3 237.4 88.7Q237.1 89.1 236.8 89.5Q236.4 89.8 235.9 89.9Q235.4 90.1 234.8 90.1ZM244.5 90.1L244.5 90.1Q243.7 90.1 243.0 89.8Q242.4 89.4 242.0 88.9Q241.7 88.3 241.7 87.5L241.7 87.5L241.7 82.7L242.6 82.7L242.6 87.5Q242.6 88.0 242.8 88.4Q243.1 88.8 243.5 89.0Q243.9 89.3 244.5 89.3L244.5 89.3Q245.1 89.3 245.6 89.0Q246.0 88.8 246.2 88.4Q246.4 88.0 246.4 87.5L246.4 87.5L246.4 82.7L247.4 82.7L247.4 87.5Q247.4 88.3 247.0 88.9Q246.7 89.4 246.0 89.8Q245.4 90.1 244.5 90.1ZM252.6 90L251.6 90L251.6 82.7L254.1 82.7Q255.0 82.7 255.5 83.0Q256.1 83.3 256.3 83.8Q256.6 84.3 256.6 85.0Q256.6 85.6 256.3 86.1Q256.1 86.6 255.5 86.9L255.5 86.9Q255.4 87.0 255.2 87.0L255.2 87.0L256.9 90L255.8 90L254.3 87.2Q254.2 87.2 254.1 87.2L254.1 87.2L252.6 87.2L252.6 90ZM252.6 83.5L252.6 86.4L254.1 86.4Q254.7 86.4 255.0 86.2Q255.4 86.0 255.5 85.7Q255.7 85.4 255.7 85.0L255.7 85.0Q255.7 84.5 255.5 84.2Q255.4 83.9 255.0 83.7Q254.6 83.5 254.1 83.5L254.1 83.5L252.6 83.5ZM261.5 90L260.6 90L260.6 82.7L263.1 82.7Q263.9 82.7 264.4 83.0Q265.0 83.3 265.3 83.8Q265.5 84.3 265.5 85.0Q265.5 85.6 265.3 86.1Q265.0 86.6 264.5 86.9L264.5 86.9Q264.3 87.0 264.2 87.0L264.2 87.0L265.8 90L264.7 90L263.2 87.2Q263.1 87.2 263.1 87.2L263.1 87.2L261.5 87.2L261.5 90ZM261.5 83.5L261.5 86.4L263.0 86.4Q263.6 86.4 263.9 86.2Q264.3 86.0 264.4 85.7Q264.6 85.4 264.6 85.0L264.6 85.0Q264.6 84.5 264.4 84.2Q264.3 83.9 263.9 83.7Q263.6 83.5 263.0 83.5L263.0 83.5L261.5 83.5ZM274.0 90L269.5 90L269.5 82.7L273.9 82.7L273.9 83.5L270.4 83.5L270.4 85.9L273.7 85.9L273.7 86.7L270.4 86.7L270.4 89.2L274.0 89.2L274.0 90ZM278.9 90L278.0 90L278.0 82.7L279.1 82.7L282.1 87.4Q282.2 87.6 282.3 87.8Q282.5 88.1 282.7 88.5L282.7 88.5Q282.8 88.7 282.9 88.9L282.9 88.9Q282.9 88.7 282.9 88.4L282.9 88.4Q282.9 88.1 282.9 87.7Q282.9 87.4 282.9 87.2L282.9 87.2L282.9 82.7L283.8 82.7L283.8 90L282.7 90L280.0 85.9Q279.9 85.6 279.7 85.3Q279.5 85.0 279.3 84.5L279.3 84.5Q279.1 84.2 278.9 83.8L278.9 83.8Q278.9 84.2 278.9 84.5L278.9 84.5Q278.9 85.0 278.9 85.3Q278.9 85.7 278.9 85.8L278.9 85.8L278.9 90ZM289.9 83.5L287.6 83.5L287.6 82.7L293.1 82.7L293.1 83.5L290.9 83.5L290.9 90L289.9 90L289.9 83.5Z M303.2 90L302.3 90L302.3 82.7L306.7 82.7L306.7 83.5L303.2 83.5L303.2 86.0L306.4 86.0L306.4 86.9L303.2 86.9L303.2 90ZM313.6 90.1L313.6 90.1Q312.7 90.1 312.1 89.8Q311.4 89.4 311.1 88.9Q310.7 88.3 310.7 87.5L310.7 87.5L310.7 82.7L311.6 82.7L311.6 87.5Q311.6 88.0 311.9 88.4Q312.1 88.8 312.5 89.0Q313.0 89.3 313.6 89.3L313.6 89.3Q314.2 89.3 314.6 89.0Q315.0 88.8 315.2 88.4Q315.5 88.0 315.5 87.5L315.5 87.5L315.5 82.7L316.4 82.7L316.4 87.5Q316.4 88.3 316.0 88.9Q315.7 89.4 315.1 89.8Q314.4 90.1 313.6 90.1ZM321.6 90L320.7 90L320.7 82.7L321.7 82.7L324.7 87.4Q324.8 87.6 325.0 87.8Q325.2 88.1 325.4 88.5L325.4 88.5Q325.5 88.7 325.6 88.9L325.6 88.9Q325.5 88.7 325.5 88.4L325.5 88.4Q325.5 88.1 325.5 87.7Q325.5 87.4 325.5 87.2L325.5 87.2L325.5 82.7L326.4 82.7L326.4 90L325.3 90L322.7 85.9Q322.5 85.6 322.3 85.3Q322.1 85.0 321.9 84.5L321.9 84.5Q321.7 84.2 321.5 83.8L321.5 83.8Q321.5 84.2 321.5 84.5L321.5 84.5Q321.6 85.0 321.6 85.3Q321.6 85.7 321.6 85.8L321.6 85.8L321.6 90ZM333.0 90L333.0 90L330.7 90L330.7 82.7L333.1 82.7Q334.1 82.7 334.9 83.2Q335.6 83.6 336.0 84.4Q336.4 85.2 336.4 86.3L336.4 86.3Q336.4 87.5 336.0 88.3Q335.6 89.1 334.8 89.6Q334.1 90 333.0 90ZM331.6 83.5L331.6 89.2L332.9 89.2Q333.8 89.2 334.4 88.8Q335.0 88.5 335.2 87.9Q335.5 87.2 335.5 86.3L335.5 86.3Q335.5 85.5 335.2 84.8Q335.0 84.2 334.4 83.9Q333.8 83.5 333.0 83.5L333.0 83.5L331.6 83.5ZM342.7 90.1L342.7 90.1Q341.9 90.1 341.4 89.9Q340.8 89.6 340.5 89.2Q340.1 88.7 340.1 88.1L340.1 88.1L341.0 88.1Q341.1 88.5 341.3 88.8Q341.6 89.0 341.9 89.2Q342.3 89.3 342.7 89.3L342.7 89.3Q343.2 89.3 343.6 89.1Q344.0 89.0 344.2 88.7Q344.5 88.4 344.5 88.0L344.5 88.0Q344.5 87.7 344.3 87.4Q344.1 87.2 343.7 87.1Q343.4 86.9 343.0 86.8L343.0 86.8L342.2 86.6Q341.3 86.3 340.8 85.9Q340.3 85.4 340.3 84.7L340.3 84.7Q340.3 84.1 340.6 83.6Q341.0 83.1 341.5 82.9Q342.1 82.6 342.8 82.6L342.8 82.6Q343.5 82.6 344.1 82.9Q344.6 83.1 344.9 83.6Q345.3 84.0 345.3 84.6L345.3 84.6L344.4 84.6Q344.3 84.0 343.9 83.7Q343.4 83.4 342.8 83.4L342.8 83.4Q342.3 83.4 341.9 83.6Q341.6 83.8 341.4 84.0Q341.2 84.3 341.2 84.6L341.2 84.6Q341.2 85.0 341.4 85.2Q341.7 85.5 342.0 85.6Q342.3 85.7 342.6 85.8L342.6 85.8L343.3 86.0Q343.6 86.1 344.0 86.2Q344.3 86.4 344.6 86.6Q345.0 86.8 345.2 87.2Q345.4 87.5 345.4 88.0L345.4 88.0Q345.4 88.6 345.1 89.1Q344.8 89.6 344.2 89.8Q343.6 90.1 342.7 90.1Z "/></g><mask id="satori_om-id-2-1"><rect x="381" y="35" width="1" height="60" fill="#fff" mask="url(#satori_om-id)"/></mask><rect x="381" y="35" width="1" height="60" fill="rgba(212,175,55,0.15)" clip-path="url(#satori_cp-id)" mask="url(#satori_om-id)"/><mask id="satori_om-id-2-2"><rect x="414" y="35" width="214" height="60" fill="#fff" mask="url(#satori_om-id)"/></mask><mask id="satori_om-id-2-2-0"><rect x="463" y="35" width="116" height="41" fill="#fff" mask="url(#satori_om-id)"/></mask><g mask="url(#satori_om-id)" clip-path="url(#satori_cp-id)"><path fill="#22c55e" d="M470.0 43.3L475.4 43.3L475.4 68L470.4 68L470.4 47.7L470.2 47.7L464.5 51.7L464.5 47.1L470.0 43.3Z M495.2 68.3L495.2 68.3Q492.0 68.3 489.8 66.8Q487.6 65.3 486.5 62.5Q485.3 59.7 485.3 55.6L485.3 55.6Q485.3 51.6 486.5 48.8Q487.6 46.0 489.8 44.4Q492.0 42.9 495.2 42.9L495.2 42.9Q498.3 42.9 500.5 44.5Q502.7 46.0 503.9 48.8Q505.1 51.6 505.1 55.6L505.1 55.6Q505.1 59.7 503.9 62.5Q502.7 65.3 500.5 66.8Q498.3 68.3 495.2 68.3ZM495.2 64.1L495.2 64.1Q496.7 64.1 497.7 63.1Q498.8 62.1 499.4 60.2Q499.9 58.4 499.9 55.6L499.9 55.6Q499.9 52.9 499.4 51.0Q498.8 49.1 497.7 48.1Q496.7 47.1 495.2 47.1L495.2 47.1Q493.7 47.1 492.6 48.1Q491.5 49.1 491.0 51.0Q490.4 52.9 490.4 55.6L490.4 55.6Q490.4 58.4 491.0 60.2Q491.5 62.1 492.6 63.1Q493.7 64.1 495.2 64.1ZM517.1 68.3L517.1 68.3Q514.0 68.3 511.8 66.8Q509.6 65.3 508.4 62.5Q507.2 59.7 507.2 55.6L507.2 55.6Q507.2 51.6 508.4 48.8Q509.6 46.0 511.8 44.4Q514.0 42.9 517.1 42.9L517.1 42.9Q520.2 42.9 522.4 44.5Q524.6 46.0 525.8 48.8Q527.0 51.6 527.0 55.6L527.0 55.6Q527.0 59.7 525.8 62.5Q524.7 65.3 522.4 66.8Q520.2 68.3 517.1 68.3ZM517.1 64.1L517.1 64.1Q518.6 64.1 519.7 63.1Q520.7 62.1 521.3 60.2Q521.8 58.4 521.8 55.6L521.8 55.6Q521.8 52.9 521.3 51.0Q520.7 49.1 519.7 48.1Q518.6 47.1 517.1 47.1L517.1 47.1Q515.6 47.1 514.5 48.1Q513.5 49.1 512.9 51.0Q512.4 52.9 512.4 55.6L512.4 55.6Q512.4 58.4 512.9 60.2Q513.5 62.1 514.5 63.1Q515.6 64.1 517.1 64.1ZM539.0 68.3L539.0 68.3Q535.9 68.3 533.7 66.8Q531.5 65.3 530.3 62.5Q529.1 59.7 529.1 55.6L529.1 55.6Q529.1 51.6 530.3 48.8Q531.5 46.0 533.7 44.4Q535.9 42.9 539.0 42.9L539.0 42.9Q542.1 42.9 544.4 44.5Q546.6 46.0 547.8 48.8Q548.9 51.6 548.9 55.6L548.9 55.6Q548.9 59.7 547.8 62.5Q546.6 65.3 544.4 66.8Q542.2 68.3 539.0 68.3ZM539.0 64.1L539.0 64.1Q540.5 64.1 541.6 63.1Q542.7 62.1 543.2 60.2Q543.8 58.4 543.8 55.6L543.8 55.6Q543.8 52.9 543.2 51.0Q542.7 49.1 541.6 48.1Q540.5 47.1 539.0 47.1L539.0 47.1Q537.5 47.1 536.4 48.1Q535.4 49.1 534.8 51.0Q534.3 52.9 534.3 55.6L534.3 55.6Q534.3 58.4 534.8 60.2Q535.4 62.1 536.4 63.1Q537.5 64.1 539.0 64.1Z M566.2 51.8L574.8 51.8L573.6 54.4L565.7 54.4Q565.7 55.0 565.7 55.7L565.7 55.7Q565.7 56.3 565.7 56.8L565.7 56.8L572.5 56.8L571.3 59.5L566.2 59.5Q566.3 59.9 566.4 60.3L566.4 60.3Q567.1 62.1 568.4 63.0Q569.7 63.8 571.4 63.8L571.4 63.8Q572.4 63.8 573.3 63.5Q574.2 63.3 574.8 62.9Q575.5 62.5 576.0 62.1L576.0 62.1L577.9 66.1Q576.6 67.2 574.9 67.8Q573.2 68.3 571.4 68.3L571.4 68.3Q568.2 68.3 565.8 66.8Q563.4 65.3 562.0 62.5L562.0 62.5Q561.3 61.1 561.0 59.5L561.0 59.5L557.5 59.5L558.5 56.8L560.6 56.8Q560.6 56.3 560.6 55.7L560.6 55.7Q560.6 55.0 560.6 54.4L560.6 54.4L557.5 54.4L558.5 51.8L561.0 51.8Q561.3 50.2 562.0 48.8L562.0 48.8Q563.4 46.0 565.8 44.5Q568.2 42.9 571.4 42.9L571.4 42.9Q573.3 42.9 574.9 43.5Q576.6 44.1 578.0 45.2L578.0 45.2L576.1 49.2Q575.6 48.9 574.9 48.5Q574.2 48.0 573.3 47.8Q572.4 47.5 571.4 47.5L571.4 47.5Q569.7 47.5 568.4 48.3Q567.1 49.2 566.4 51.0L566.4 51.0Q566.3 51.4 566.2 51.8L566.2 51.8Z "/></g><mask id="satori_om-id-2-2-1"><rect x="414" y="80" width="214" height="12" fill="#fff" mask="url(#satori_om-id)"/></mask><g mask="url(#satori_om-id)" clip-path="url(#satori_cp-id)"><path fill="rgba(255,255,255,0.38)" d="M415.2 90L414.3 90L416.9 82.7L418.0 82.7L420.6 90L419.7 90L418.9 88.0L415.9 88.0L415.2 90ZM416.2 87.2L418.7 87.2L418.1 85.7Q418.0 85.3 417.8 84.7L417.8 84.7Q417.6 84.2 417.4 83.5L417.4 83.5Q417.2 84.2 417.1 84.7L417.1 84.7Q416.9 85.3 416.7 85.7L416.7 85.7L416.2 87.2ZM427.2 90.1L427.2 90.1Q426.3 90.1 425.6 89.6Q424.8 89.2 424.4 88.4Q424.0 87.5 424.0 86.4L424.0 86.4Q424.0 85.2 424.4 84.4Q424.8 83.5 425.6 83.1Q426.3 82.6 427.2 82.6L427.2 82.6Q427.8 82.6 428.3 82.8Q428.8 82.9 429.1 83.3Q429.5 83.6 429.8 84.0Q430.1 84.5 430.2 85.0L430.2 85.0L429.2 85.0Q429.2 84.6 429.0 84.4Q428.8 84.1 428.5 83.9Q428.2 83.7 427.9 83.6Q427.6 83.5 427.2 83.5L427.2 83.5Q426.6 83.5 426.0 83.8Q425.5 84.2 425.2 84.8Q424.9 85.4 424.9 86.4L424.9 86.4Q424.9 87.3 425.2 87.9Q425.5 88.6 426.0 88.9Q426.6 89.2 427.2 89.2L427.2 89.2Q427.6 89.2 427.9 89.1Q428.2 89.0 428.5 88.8Q428.8 88.7 429.0 88.4Q429.2 88.1 429.2 87.7L429.2 87.7L430.2 87.7Q430.1 88.3 429.8 88.7Q429.5 89.1 429.2 89.5Q428.8 89.8 428.3 89.9Q427.8 90.1 427.2 90.1ZM436.0 83.5L433.7 83.5L433.7 82.7L439.2 82.7L439.2 83.5L436.9 83.5L436.9 90L436.0 90L436.0 83.5ZM443.0 82.7L444.0 82.7L444.0 90L443.0 90L443.0 82.7ZM451.3 90L450.3 90L447.6 82.7L448.6 82.7L450.1 87.0Q450.2 87.4 450.4 88.0L450.4 88.0Q450.6 88.5 450.8 89.2L450.8 89.2Q451.0 88.5 451.2 88.0L451.2 88.0Q451.4 87.4 451.5 87.0L451.5 87.0L453.0 82.7L454.0 82.7L451.3 90ZM462.1 90L457.6 90L457.6 82.7L462.1 82.7L462.1 83.5L458.6 83.5L458.6 85.9L461.8 85.9L461.8 86.7L458.6 86.7L458.6 89.2L462.1 89.2L462.1 90Z M471.4 82.7L472.4 82.7L472.4 90L471.4 90L471.4 82.7ZM477.6 90L476.6 90L476.6 82.7L477.7 82.7L480.7 87.4Q480.8 87.6 481.0 87.8Q481.1 88.1 481.3 88.5L481.3 88.5Q481.4 88.7 481.5 88.9L481.5 88.9Q481.5 88.7 481.5 88.4L481.5 88.4Q481.5 88.1 481.5 87.7Q481.5 87.4 481.5 87.2L481.5 87.2L481.5 82.7L482.4 82.7L482.4 90L481.3 90L478.7 85.9Q478.5 85.6 478.3 85.3Q478.1 85.0 477.9 84.5L477.9 84.5Q477.7 84.2 477.5 83.8L477.5 83.8Q477.5 84.2 477.5 84.5L477.5 84.5Q477.5 85.0 477.6 85.3Q477.6 85.7 477.6 85.8L477.6 85.8L477.6 90ZM489.8 90L488.7 90L486.0 82.7L487.0 82.7L488.6 87.0Q488.7 87.4 488.9 88.0L488.9 88.0Q489.0 88.5 489.3 89.2L489.3 89.2Q489.5 88.5 489.6 88.0L489.6 88.0Q489.8 87.4 489.9 87.0L489.9 87.0L491.4 82.7L492.4 82.7L489.8 90ZM500.5 90L496.1 90L496.1 82.7L500.5 82.7L500.5 83.5L497.0 83.5L497.0 85.9L500.3 85.9L500.3 86.7L497.0 86.7L497.0 89.2L500.5 89.2L500.5 90ZM506.9 90.1L506.9 90.1Q506.1 90.1 505.5 89.9Q505.0 89.6 504.6 89.2Q504.3 88.7 504.3 88.1L504.3 88.1L505.2 88.1Q505.3 88.5 505.5 88.8Q505.7 89.0 506.1 89.2Q506.5 89.3 506.9 89.3L506.9 89.3Q507.4 89.3 507.8 89.1Q508.2 89.0 508.4 88.7Q508.6 88.4 508.6 88.0L508.6 88.0Q508.6 87.7 508.4 87.4Q508.2 87.2 507.9 87.1Q507.6 86.9 507.2 86.8L507.2 86.8L506.3 86.6Q505.4 86.3 505.0 85.9Q504.5 85.4 504.5 84.7L504.5 84.7Q504.5 84.1 504.8 83.6Q505.1 83.1 505.7 82.9Q506.3 82.6 507.0 82.6L507.0 82.6Q507.7 82.6 508.2 82.9Q508.8 83.1 509.1 83.6Q509.4 84.0 509.4 84.6L509.4 84.6L508.5 84.6Q508.5 84.0 508.0 83.7Q507.6 83.4 506.9 83.4L506.9 83.4Q506.5 83.4 506.1 83.6Q505.8 83.8 505.6 84.0Q505.4 84.3 505.4 84.6L505.4 84.6Q505.4 85.0 505.6 85.2Q505.8 85.5 506.2 85.6Q506.5 85.7 506.8 85.8L506.8 85.8L507.5 86.0Q507.8 86.1 508.1 86.2Q508.5 86.4 508.8 86.6Q509.1 86.8 509.3 87.2Q509.5 87.5 509.5 88.0L509.5 88.0Q509.5 88.6 509.2 89.1Q508.9 89.6 508.3 89.8Q507.7 90.1 506.9 90.1ZM515.4 83.5L513.1 83.5L513.1 82.7L518.6 82.7L518.6 83.5L516.3 83.5L516.3 90L515.4 90L515.4 83.5ZM523.3 90L522.4 90L522.4 82.7L523.8 82.7L525.6 87.3Q525.6 87.5 525.7 87.7Q525.8 88.0 525.9 88.2Q526.0 88.5 526.0 88.8L526.0 88.8Q526.1 88.9 526.1 89.0L526.1 89.0Q526.1 88.9 526.1 88.8L526.1 88.8Q526.2 88.5 526.3 88.3Q526.4 88.0 526.5 87.7Q526.6 87.5 526.6 87.3L526.6 87.3L528.4 82.7L529.7 82.7L529.7 90L528.8 90L528.8 85.8Q528.8 85.6 528.8 85.3Q528.8 85.0 528.8 84.7Q528.8 84.4 528.8 84.1L528.8 84.1Q528.8 83.9 528.8 83.7L528.8 83.7Q528.8 83.9 528.7 84.1L528.7 84.1Q528.6 84.5 528.5 84.8Q528.4 85.1 528.3 85.4Q528.2 85.7 528.1 85.8L528.1 85.8L526.5 90L525.7 90L524.0 85.8Q524.0 85.7 523.9 85.4Q523.8 85.2 523.7 84.8Q523.6 84.5 523.4 84.2L523.4 84.2Q523.4 83.9 523.3 83.7L523.3 83.7Q523.3 83.9 523.3 84.0L523.3 84.0Q523.3 84.4 523.3 84.7Q523.3 85.0 523.3 85.3Q523.3 85.6 523.3 85.8L523.3 85.8L523.3 90ZM538.5 90L534.0 90L534.0 82.7L538.4 82.7L538.4 83.5L534.9 83.5L534.9 85.9L538.2 85.9L538.2 86.7L534.9 86.7L534.9 89.2L538.5 89.2L538.5 90ZM543.4 90L542.5 90L542.5 82.7L543.6 82.7L546.5 87.4Q546.7 87.6 546.8 87.8Q547.0 88.1 547.2 88.5L547.2 88.5Q547.3 88.7 547.4 88.9L547.4 88.9Q547.4 88.7 547.4 88.4L547.4 88.4Q547.3 88.1 547.3 87.7Q547.3 87.4 547.3 87.2L547.3 87.2L547.3 82.7L548.3 82.7L548.3 90L547.2 90L544.5 85.9Q544.3 85.6 544.2 85.3Q544.0 85.0 543.7 84.5L543.7 84.5Q543.6 84.2 543.4 83.8L543.4 83.8Q543.4 84.2 543.4 84.5L543.4 84.5Q543.4 85.0 543.4 85.3Q543.4 85.7 543.4 85.8L543.4 85.8L543.4 90ZM554.4 83.5L552.1 83.5L552.1 82.7L557.6 82.7L557.6 83.5L555.3 83.5L555.3 90L554.4 90L554.4 83.5Z M568.5 82.4L569.3 82.4L566.9 91.1L566.1 91.1L568.5 82.4Z M579.1 90L578.2 90L578.2 82.7L579.5 82.7L581.3 87.3Q581.4 87.5 581.5 87.7Q581.5 88.0 581.6 88.2Q581.7 88.5 581.8 88.8L581.8 88.8Q581.8 88.9 581.9 89.0L581.9 89.0Q581.9 88.9 581.9 88.8L581.9 88.8Q582.0 88.5 582.1 88.3Q582.2 88.0 582.2 87.7Q582.3 87.5 582.4 87.3L582.4 87.3L584.2 82.7L585.5 82.7L585.5 90L584.6 90L584.6 85.8Q584.6 85.6 584.6 85.3Q584.6 85.0 584.6 84.7Q584.6 84.4 584.6 84.1L584.6 84.1Q584.6 83.9 584.6 83.7L584.6 83.7Q584.5 83.9 584.5 84.1L584.5 84.1Q584.4 84.5 584.2 84.8Q584.1 85.1 584.0 85.4Q583.9 85.7 583.9 85.8L583.9 85.8L582.2 90L581.4 90L579.8 85.8Q579.7 85.7 579.6 85.4Q579.5 85.2 579.4 84.8Q579.3 84.5 579.2 84.2L579.2 84.2Q579.1 83.9 579.1 83.7L579.1 83.7Q579.1 83.9 579.1 84.0L579.1 84.0Q579.1 84.4 579.1 84.7Q579.1 85.0 579.1 85.3Q579.1 85.6 579.1 85.8L579.1 85.8L579.1 90ZM592.7 90.1L592.7 90.1Q591.8 90.1 591.0 89.6Q590.3 89.2 589.9 88.4Q589.5 87.5 589.5 86.4L589.5 86.4Q589.5 85.2 589.9 84.4Q590.3 83.5 591.0 83.1Q591.8 82.6 592.7 82.6L592.7 82.6Q593.6 82.6 594.4 83.1Q595.1 83.5 595.5 84.4Q595.9 85.2 595.9 86.4L595.9 86.4Q595.9 87.5 595.5 88.4Q595.1 89.2 594.4 89.6Q593.6 90.1 592.7 90.1ZM592.7 89.2L592.7 89.2Q593.3 89.2 593.9 88.9Q594.4 88.6 594.7 87.9Q595.0 87.3 595.0 86.4L595.0 86.4Q595.0 85.4 594.7 84.8Q594.4 84.1 593.9 83.8Q593.3 83.5 592.7 83.5L592.7 83.5Q592.0 83.5 591.5 83.8Q591.0 84.2 590.7 84.8Q590.4 85.4 590.4 86.4L590.4 86.4Q590.4 87.3 590.7 87.9Q591.0 88.6 591.5 88.9Q592.0 89.2 592.7 89.2ZM600.8 90L599.9 90L599.9 82.7L601.0 82.7L603.9 87.4Q604.1 87.6 604.2 87.8Q604.4 88.1 604.6 88.5L604.6 88.5Q604.7 88.7 604.8 88.9L604.8 88.9Q604.8 88.7 604.8 88.4L604.8 88.4Q604.7 88.1 604.7 87.7Q604.7 87.4 604.7 87.2L604.7 87.2L604.7 82.7L605.7 82.7L605.7 90L604.6 90L601.9 85.9Q601.7 85.6 601.6 85.3Q601.4 85.0 601.1 84.5L601.1 84.5Q601.0 84.2 600.7 83.8L600.7 83.8Q600.8 84.2 600.8 84.5L600.8 84.5Q600.8 85.0 600.8 85.3Q600.8 85.7 600.8 85.8L600.8 85.8L600.8 90ZM611.8 83.5L609.5 83.5L609.5 82.7L615.0 82.7L615.0 83.5L612.7 83.5L612.7 90L611.8 90L611.8 83.5ZM619.8 90L618.9 90L618.9 82.7L619.8 82.7L619.8 85.9L623.6 85.9L623.6 82.7L624.6 82.7L624.6 90L623.6 90L623.6 86.7L619.8 86.7L619.8 90Z "/></g><mask id="satori_om-id-2-3"><rect x="660" y="35" width="1" height="60" fill="#fff" mask="url(#satori_om-id)"/></mask><rect x="660" y="35" width="1" height="60" fill="rgba(212,175,55,0.15)" clip-path="url(#satori_cp-id)" mask="url(#satori_om-id)"/><mask id="satori_om-id-2-4"><rect x="693" y="35" width="125" height="60" fill="#fff" mask="url(#satori_om-id)"/></mask><mask id="satori_om-id-2-4-0"><rect x="700" y="35" width="111" height="41" fill="#fff" mask="url(#satori_om-id)"/></mask><g mask="url(#satori_om-id)" clip-path="url(#satori_cp-id)"><path fill="rgba(255,255,255,0.55)" d="M707.3 68L702.2 68L702.2 43.3L711.9 43.3Q714.7 43.3 716.7 44.3Q718.7 45.4 719.7 47.3Q720.7 49.2 720.7 51.6L720.7 51.6Q720.7 54.1 719.7 55.9Q718.6 57.8 716.6 58.9Q714.6 59.9 711.8 59.9L711.8 59.9L707.3 59.9L707.3 68ZM707.3 47.4L707.3 55.8L711.0 55.8Q712.5 55.8 713.5 55.3Q714.5 54.8 715.0 53.8Q715.5 52.9 715.5 51.6Q715.5 50.4 715.0 49.4Q714.5 48.5 713.5 48.0Q712.5 47.4 710.9 47.4L710.9 47.4L707.3 47.4ZM728.1 68L723.2 68L723.2 49.4L728.0 49.4L728.0 52.7L728.2 52.7Q728.7 51.0 729.9 50.1Q731.1 49.2 732.7 49.2L732.7 49.2Q733.0 49.2 733.5 49.2Q733.9 49.3 734.3 49.4L734.3 49.4L734.3 53.8Q733.9 53.7 733.3 53.6Q732.7 53.6 732.1 53.6L732.1 53.6Q731.0 53.6 730.1 54.0Q729.1 54.5 728.6 55.4Q728.1 56.3 728.1 57.4L728.1 57.4L728.1 68ZM741.0 68L736.0 68L736.0 49.4L741.0 49.4L741.0 68ZM738.5 47.0L738.5 47.0Q737.4 47.0 736.6 46.3Q735.8 45.5 735.8 44.5L735.8 44.5Q735.8 43.4 736.6 42.6Q737.4 41.9 738.5 41.9L738.5 41.9Q739.6 41.9 740.4 42.6Q741.2 43.4 741.2 44.5L741.2 44.5Q741.2 45.5 740.4 46.3Q739.6 47.0 738.5 47.0ZM755.1 68L749.4 68L742.6 49.4L747.9 49.4L751.0 59.1Q751.6 60.9 752.0 62.7L752.0 62.7Q752.2 63.4 752.3 64.2L752.3 64.2Q752.5 63.4 752.7 62.7L752.7 62.7Q753.1 60.9 753.6 59.1L753.6 59.1L756.7 49.4L762.0 49.4L755.1 68ZM768.8 68.4L768.8 68.4Q767.0 68.4 765.6 67.7Q764.2 67.1 763.4 65.9Q762.6 64.6 762.6 62.8L762.6 62.8Q762.6 61.3 763.2 60.2Q763.8 59.2 764.7 58.5Q765.7 57.9 767.0 57.6Q768.2 57.2 769.6 57.1L769.6 57.1Q771.2 56.9 772.2 56.8Q773.2 56.7 773.7 56.4Q774.1 56.0 774.1 55.4L774.1 55.4L774.1 55.4Q774.1 54.6 773.8 54.0Q773.4 53.5 772.8 53.2Q772.1 52.9 771.2 52.9L771.2 52.9Q770.2 52.9 769.5 53.2Q768.8 53.5 768.4 54.0Q767.9 54.4 767.7 55.0L767.7 55.0L763.1 54.3Q763.6 52.7 764.7 51.5Q765.8 50.4 767.5 49.8Q769.1 49.2 771.2 49.2L771.2 49.2Q772.7 49.2 774.1 49.6Q775.5 49.9 776.7 50.7Q777.8 51.4 778.4 52.6Q779.1 53.8 779.1 55.5L779.1 55.5L779.1 68L774.4 68L774.4 65.4L774.2 65.4Q773.8 66.3 773.0 66.9Q772.3 67.6 771.2 68.0Q770.2 68.4 768.8 68.4ZM770.2 64.9L770.2 64.9Q771.4 64.9 772.3 64.4Q773.1 63.9 773.6 63.1Q774.1 62.3 774.1 61.4L774.1 61.4L774.1 59.4Q773.9 59.5 773.5 59.6Q773.0 59.8 772.5 59.9Q771.9 60.0 771.4 60.1Q770.9 60.1 770.5 60.2L770.5 60.2Q769.5 60.3 768.8 60.6Q768.2 60.9 767.8 61.4Q767.4 61.9 767.4 62.7L767.4 62.7Q767.4 63.4 767.8 63.9Q768.1 64.4 768.7 64.6Q769.4 64.9 770.2 64.9ZM788.1 49.4L791.6 49.4L791.6 53.2L788.1 53.2L788.1 62.6Q788.1 63.5 788.5 63.9Q788.9 64.3 789.8 64.3L789.8 64.3Q790.1 64.3 790.6 64.2Q791.1 64.1 791.4 64.1L791.4 64.1L792.1 67.8Q791.2 68.1 790.4 68.2Q789.6 68.3 788.8 68.3L788.8 68.3Q786.1 68.3 784.6 66.9Q783.1 65.5 783.1 63.0L783.1 63.0L783.1 53.2L780.5 53.2L780.5 49.4L783.1 49.4L783.1 45.0L788.1 45.0L788.1 49.4ZM802.2 68.4L802.2 68.4Q799.3 68.4 797.3 67.2Q795.2 66.0 794.1 63.9Q793.0 61.8 793.0 58.8L793.0 58.8Q793.0 55.9 794.1 53.8Q795.2 51.6 797.2 50.4Q799.2 49.2 801.9 49.2L801.9 49.2Q803.8 49.2 805.3 49.8Q806.9 50.4 808.1 51.5Q809.3 52.7 810.0 54.5Q810.6 56.2 810.6 58.6L810.6 58.6L810.6 60.0L797.9 60.0Q798.0 61.4 798.5 62.4L798.5 62.4Q799.0 63.5 800.0 64.1Q801.0 64.6 802.3 64.6L802.3 64.6Q803.1 64.6 803.9 64.4Q804.6 64.1 805.1 63.6Q805.6 63.1 805.8 62.4L805.8 62.4L810.4 63.3Q809.9 64.8 808.8 65.9Q807.7 67.1 806.0 67.7Q804.4 68.4 802.2 68.4ZM798.0 56.9L798.0 56.9L805.8 56.9Q805.7 56.0 805.4 55.2L805.4 55.2Q805.0 54.1 804.1 53.5Q803.3 53.0 802.0 53.0L802.0 53.0Q800.7 53.0 799.8 53.6Q798.9 54.2 798.4 55.2L798.4 55.2Q798.1 55.9 798.0 56.9Z "/></g><mask id="satori_om-id-2-4-1"><rect x="693" y="80" width="125" height="12" fill="#fff" mask="url(#satori_om-id)"/></mask><g mask="url(#satori_om-id)" clip-path="url(#satori_cp-id)"><path fill="rgba(255,255,255,0.38)" d="M694.8 90L693.9 90L693.9 82.7L698.3 82.7L698.3 83.5L694.8 83.5L694.8 86.0L697.9 86.0L697.9 86.9L694.8 86.9L694.8 90ZM705.1 90.1L705.1 90.1Q704.3 90.1 703.6 89.8Q703.0 89.4 702.6 88.9Q702.3 88.3 702.3 87.5L702.3 87.5L702.3 82.7L703.2 82.7L703.2 87.5Q703.2 88.0 703.4 88.4Q703.7 88.8 704.1 89.0Q704.5 89.3 705.1 89.3L705.1 89.3Q705.7 89.3 706.2 89.0Q706.6 88.8 706.8 88.4Q707.0 88.0 707.0 87.5L707.0 87.5L707.0 82.7L708.0 82.7L708.0 87.5Q708.0 88.3 707.6 88.9Q707.3 89.4 706.6 89.8Q706.0 90.1 705.1 90.1ZM713.2 90L712.2 90L712.2 82.7L713.3 82.7L716.3 87.4Q716.4 87.6 716.6 87.8Q716.7 88.1 716.9 88.5L716.9 88.5Q717.0 88.7 717.1 88.9L717.1 88.9Q717.1 88.7 717.1 88.4L717.1 88.4Q717.1 88.1 717.1 87.7Q717.1 87.4 717.1 87.2L717.1 87.2L717.1 82.7L718 82.7L718 90L716.9 90L714.3 85.9Q714.1 85.6 713.9 85.3Q713.7 85.0 713.5 84.5L713.5 84.5Q713.3 84.2 713.1 83.8L713.1 83.8Q713.1 84.2 713.1 84.5L713.1 84.5Q713.1 85.0 713.1 85.3Q713.2 85.7 713.2 85.8L713.2 85.8L713.2 90ZM724.5 90L724.5 90L722.3 90L722.3 82.7L724.6 82.7Q725.7 82.7 726.4 83.2Q727.2 83.6 727.6 84.4Q728 85.2 728 86.3L728 86.3Q728 87.5 727.6 88.3Q727.2 89.1 726.4 89.6Q725.6 90 724.5 90ZM723.2 83.5L723.2 89.2L724.5 89.2Q725.4 89.2 725.9 88.8Q726.5 88.5 726.8 87.9Q727.1 87.2 727.1 86.3L727.1 86.3Q727.1 85.5 726.8 84.8Q726.5 84.2 726.0 83.9Q725.4 83.5 724.6 83.5L724.6 83.5L723.2 83.5ZM732.0 82.7L732.9 82.7L732.9 90L732.0 90L732.0 82.7ZM738.1 90L737.2 90L737.2 82.7L738.3 82.7L741.2 87.4Q741.3 87.6 741.5 87.8Q741.7 88.1 741.9 88.5L741.9 88.5Q742.0 88.7 742.1 88.9L742.1 88.9Q742.0 88.7 742.0 88.4L742.0 88.4Q742.0 88.1 742.0 87.7Q742.0 87.4 742.0 87.2L742.0 87.2L742.0 82.7L742.9 82.7L742.9 90L741.8 90L739.2 85.9Q739.0 85.6 738.8 85.3Q738.6 85.0 738.4 84.5L738.4 84.5Q738.2 84.2 738.0 83.8L738.0 83.8Q738.0 84.2 738.0 84.5L738.0 84.5Q738.1 85.0 738.1 85.3Q738.1 85.7 738.1 85.8L738.1 85.8L738.1 90ZM750.2 90.1L750.2 90.1Q749.2 90.1 748.5 89.6Q747.7 89.2 747.3 88.4Q746.9 87.5 746.9 86.4L746.9 86.4Q746.9 85.2 747.3 84.4Q747.7 83.5 748.5 83.1Q749.2 82.6 750.1 82.6L750.1 82.6Q750.7 82.6 751.2 82.8Q751.7 83.0 752.1 83.3Q752.5 83.6 752.7 84.0Q753 84.5 753.1 85.0L753.1 85.0L752.1 85.0Q752.0 84.7 751.8 84.4Q751.7 84.1 751.4 83.9Q751.1 83.7 750.8 83.6Q750.5 83.5 750.1 83.5L750.1 83.5Q749.5 83.5 749.0 83.8Q748.4 84.1 748.1 84.8Q747.8 85.4 747.8 86.4L747.8 86.4Q747.8 87.3 748.1 87.9Q748.4 88.6 749.0 88.9Q749.5 89.2 750.2 89.2L750.2 89.2Q750.8 89.2 751.3 89.0Q751.7 88.7 752.0 88.2L752.0 88.2Q752.2 87.8 752.2 87.2L752.2 87.2L750.4 87.2L750.4 86.3L753.2 86.3L753.2 87.1Q753.2 88.0 752.8 88.7Q752.4 89.4 751.7 89.7Q751.0 90.1 750.2 90.1Z M764.8 90.1L764.8 90.1Q764.0 90.1 763.4 89.9Q762.9 89.6 762.5 89.2Q762.2 88.7 762.2 88.1L762.2 88.1L763.1 88.1Q763.1 88.5 763.4 88.8Q763.6 89.0 764.0 89.2Q764.4 89.3 764.8 89.3L764.8 89.3Q765.3 89.3 765.7 89.1Q766.1 89.0 766.3 88.7Q766.5 88.4 766.5 88.0L766.5 88.0Q766.5 87.7 766.3 87.4Q766.1 87.2 765.8 87.1Q765.5 86.9 765.1 86.8L765.1 86.8L764.2 86.6Q763.3 86.3 762.8 85.9Q762.4 85.4 762.4 84.7L762.4 84.7Q762.4 84.1 762.7 83.6Q763.0 83.1 763.6 82.9Q764.2 82.6 764.9 82.6L764.9 82.6Q765.6 82.6 766.1 82.9Q766.7 83.1 767.0 83.6Q767.3 84.0 767.3 84.6L767.3 84.6L766.4 84.6Q766.4 84.0 765.9 83.7Q765.5 83.4 764.8 83.4L764.8 83.4Q764.4 83.4 764.0 83.6Q763.7 83.8 763.5 84.0Q763.3 84.3 763.3 84.6L763.3 84.6Q763.3 85.0 763.5 85.2Q763.7 85.5 764.1 85.6Q764.4 85.7 764.7 85.8L764.7 85.8L765.4 86.0Q765.7 86.1 766.0 86.2Q766.4 86.4 766.7 86.6Q767.0 86.8 767.2 87.2Q767.4 87.5 767.4 88.0L767.4 88.0Q767.4 88.6 767.1 89.1Q766.8 89.6 766.2 89.8Q765.6 90.1 764.8 90.1ZM774.3 90.1L774.3 90.1Q773.4 90.1 772.7 89.6Q771.9 89.2 771.5 88.4Q771.1 87.5 771.1 86.4L771.1 86.4Q771.1 85.2 771.5 84.4Q771.9 83.5 772.7 83.1Q773.4 82.6 774.3 82.6L774.3 82.6Q775.3 82.6 776.0 83.1Q776.7 83.5 777.1 84.4Q777.6 85.2 777.6 86.4L777.6 86.4Q777.6 87.5 777.1 88.4Q776.7 89.2 776.0 89.6Q775.3 90.1 774.3 90.1ZM774.3 89.2L774.3 89.2Q775.0 89.2 775.5 88.9Q776.0 88.6 776.3 87.9Q776.7 87.3 776.7 86.4L776.7 86.4Q776.7 85.4 776.3 84.8Q776.0 84.1 775.5 83.8Q775.0 83.5 774.3 83.5L774.3 83.5Q773.7 83.5 773.2 83.8Q772.6 84.2 772.3 84.8Q772.0 85.4 772.0 86.4L772.0 86.4Q772.0 87.3 772.3 87.9Q772.6 88.6 773.2 88.9Q773.7 89.2 774.3 89.2ZM784.4 90.1L784.4 90.1Q783.5 90.1 782.9 89.8Q782.2 89.4 781.9 88.9Q781.5 88.3 781.5 87.5L781.5 87.5L781.5 82.7L782.5 82.7L782.5 87.5Q782.5 88.0 782.7 88.4Q782.9 88.8 783.4 89.0Q783.8 89.3 784.4 89.3L784.4 89.3Q785.0 89.3 785.4 89.0Q785.8 88.8 786.1 88.4Q786.3 88.0 786.3 87.5L786.3 87.5L786.3 82.7L787.2 82.7L787.2 87.5Q787.2 88.3 786.9 88.9Q786.5 89.4 785.9 89.8Q785.2 90.1 784.4 90.1ZM792.4 90L791.5 90L791.5 82.7L794.0 82.7Q794.8 82.7 795.4 83.0Q795.9 83.3 796.2 83.8Q796.4 84.3 796.4 85.0Q796.4 85.6 796.2 86.1Q795.9 86.6 795.4 86.9L795.4 86.9Q795.2 87.0 795.1 87.0L795.1 87.0L796.7 90L795.7 90L794.1 87.2Q794.1 87.2 794.0 87.2L794.0 87.2L792.4 87.2L792.4 90ZM792.4 83.5L792.4 86.4L793.9 86.4Q794.5 86.4 794.8 86.2Q795.2 86.0 795.4 85.7Q795.5 85.4 795.5 85.0L795.5 85.0Q795.5 84.5 795.4 84.2Q795.2 83.9 794.8 83.7Q794.5 83.5 793.9 83.5L793.9 83.5L792.4 83.5ZM803.4 90.1L803.4 90.1Q802.4 90.1 801.7 89.6Q801.0 89.2 800.5 88.4Q800.1 87.5 800.1 86.4L800.1 86.4Q800.1 85.2 800.5 84.4Q801.0 83.5 801.7 83.1Q802.4 82.6 803.4 82.6L803.4 82.6Q803.9 82.6 804.4 82.8Q804.9 82.9 805.3 83.3Q805.7 83.6 805.9 84.0Q806.2 84.5 806.3 85.0L806.3 85.0L805.4 85.0Q805.3 84.6 805.1 84.4Q804.9 84.1 804.6 83.9Q804.4 83.7 804.0 83.6Q803.7 83.5 803.4 83.5L803.4 83.5Q802.7 83.5 802.2 83.8Q801.6 84.2 801.3 84.8Q801.0 85.4 801.0 86.4L801.0 86.4Q801.0 87.3 801.3 87.9Q801.6 88.6 802.2 88.9Q802.7 89.2 803.4 89.2L803.4 89.2Q803.7 89.2 804.0 89.1Q804.4 89.0 804.6 88.8Q804.9 88.7 805.1 88.4Q805.3 88.1 805.4 87.7L805.4 87.7L806.3 87.7Q806.2 88.3 805.9 88.7Q805.7 89.1 805.3 89.5Q804.9 89.8 804.4 89.9Q803.9 90.1 803.4 90.1ZM814.7 90L810.2 90L810.2 82.7L814.6 82.7L814.6 83.5L811.1 83.5L811.1 85.9L814.4 85.9L814.4 86.7L811.1 86.7L811.1 89.2L814.7 89.2L814.7 90Z "/></g></svg>